<ttFont>
<head>
    <!-- Most of this table will be recalculated by the compiler -->
    <tableVersion value="1.0"/>
    <fontRevision value="1.29999"/>
    <checkSumAdjustment value="0x1330edc"/>
    <magicNumber value="0x5f0f3cf5"/>
    <flags value="00000000 00000011"/>
    <unitsPerEm value="1000"/>
    <created value="Wed Aug  3 10:55:08 2016"/>
    <modified value="Fri Oct 14 21:01:48 2016"/>
    <xMin value="-218"/>
    <yMin value="-365"/>
    <xMax value="1258"/>
    <yMax value="1006"/>
    <macStyle value="00000000 00000001"/>
    <lowestRecPPEM value="7"/>
    <fontDirectionHint value="2"/>
    <indexToLocFormat value="0"/>
    <glyphDataFormat value="0"/>
  </head>
    <TTGlyph name=".notdef" xMin="93" yMin="-230" xMax="412" yMax="775">
      <contour>
        <pt x="412" y="775" on="1"/>
        <pt x="412" y="-230" on="1"/>
        <pt x="93" y="-230" on="1"/>
        <pt x="93" y="775" on="1"/>
      </contour>
      <contour>
        <pt x="335" y="708" on="1"/>
        <pt x="169" y="708" on="1"/>
        <pt x="169" y="674" on="1"/>
        <pt x="234" y="674" on="1"/>
        <pt x="234" y="637" on="1"/>
        <pt x="168" y="637" on="1"/>
        <pt x="168" y="604" on="1"/>
        <pt x="335" y="604" on="1"/>
        <pt x="335" y="637" on="1"/>
        <pt x="268" y="637" on="1"/>
        <pt x="268" y="674" on="1"/>
        <pt x="335" y="674" on="1"/>
      </contour>
      <contour>
        <pt x="268" y="578" on="1"/>
        <pt x="168" y="578" on="1"/>
        <pt x="168" y="473" on="1"/>
        <pt x="335" y="473" on="1"/>
        <pt x="335" y="508" on="1"/>
        <pt x="268" y="508" on="1"/>
      </contour>
      <contour>
        <pt x="234" y="544" on="1"/>
        <pt x="234" y="508" on="1"/>
        <pt x="201" y="508" on="1"/>
        <pt x="201" y="544" on="1"/>
      </contour>
      <contour>
        <pt x="335" y="446" on="1"/>
        <pt x="168" y="446" on="1"/>
        <pt x="168" y="413" on="1"/>
        <pt x="234" y="413" on="1"/>
        <pt x="234" y="376" on="1"/>
        <pt x="168" y="376" on="1"/>
        <pt x="168" y="343" on="1"/>
        <pt x="268" y="343" on="1"/>
        <pt x="268" y="413" on="1"/>
        <pt x="335" y="413" on="1"/>
      </contour>
      <contour>
        <pt x="335" y="386" on="1"/>
        <pt x="301" y="386" on="1"/>
        <pt x="301" y="320" on="1"/>
        <pt x="168" y="320" on="1"/>
        <pt x="168" y="286" on="1"/>
        <pt x="335" y="286" on="1"/>
      </contour>
      <contour>
        <pt x="335" y="263" on="1"/>
        <pt x="234" y="263" on="1"/>
        <pt x="234" y="207" on="1"/>
        <pt x="268" y="207" on="1"/>
        <pt x="268" y="230" on="1"/>
        <pt x="301" y="230" on="1"/>
        <pt x="301" y="183" on="1"/>
        <pt x="201" y="183" on="1"/>
        <pt x="201" y="263" on="1"/>
        <pt x="168" y="263" on="1"/>
        <pt x="168" y="150" on="1"/>
        <pt x="335" y="150" on="1"/>
      </contour>
      <contour>
        <pt x="335" y="90" on="1"/>
        <pt x="168" y="90" on="1"/>
        <pt x="168" y="-24" on="1"/>
        <pt x="335" y="-24" on="1"/>
      </contour>
      <contour>
        <pt x="301" y="56" on="1"/>
        <pt x="301" y="9" on="1"/>
        <pt x="201" y="9" on="1"/>
        <pt x="201" y="56" on="1"/>
      </contour>
      <contour>
        <pt x="335" y="-47" on="1"/>
        <pt x="168" y="-47" on="1"/>
        <pt x="168" y="-80" on="1"/>
        <pt x="238" y="-80" on="1"/>
        <pt x="168" y="-127" on="1"/>
        <pt x="168" y="-161" on="1"/>
        <pt x="335" y="-161" on="1"/>
        <pt x="335" y="-127" on="1"/>
        <pt x="232" y="-127" on="1"/>
        <pt x="303" y="-80" on="1"/>
        <pt x="335" y="-80" on="1"/>
      </contour>
    </TTGlyph>
    <TTGlyph name="A" xMin="5" yMin="0" xMax="743" yMax="705">
      <contour>
        <pt x="5" y="0" on="1"/>
        <pt x="5" y="85" on="1"/>
        <pt x="78" y="113" on="1"/>
        <pt x="298" y="702" on="1"/>
        <pt x="458" y="705" on="1"/>
        <pt x="673" y="113" on="1"/>
        <pt x="743" y="85" on="1"/>
        <pt x="743" y="0" on="1"/>
        <pt x="425" y="0" on="1"/>
        <pt x="425" y="85" on="1"/>
        <pt x="500" y="112" on="1"/>
        <pt x="476" y="185" on="1"/>
        <pt x="254" y="185" on="1"/>
        <pt x="229" y="113" on="1"/>
        <pt x="307" y="85" on="1"/>
        <pt x="307" y="0" on="1"/>
      </contour>
      <contour>
        <pt x="289" y="292" on="1"/>
        <pt x="443" y="292" on="1"/>
        <pt x="368" y="529" on="1"/>
      </contour>
    </TTGlyph>
    <TTGlyph name="AE" xMin="5" yMin="0" xMax="921" yMax="705">
      <contour>
        <pt x="5" y="0" on="1"/>
        <pt x="5" y="85" on="1"/>
        <pt x="89" y="115" on="1"/>
        <pt x="318" y="585" on="1"/>
        <pt x="233" y="615" on="1"/>
        <pt x="233" y="700" on="1"/>
        <pt x="424" y="705" on="1"/>
        <pt x="909" y="705" on="1"/>
        <pt x="909" y="510" on="1"/>
        <pt x="816" y="510" on="1"/>
        <pt x="791" y="585" on="1"/>
        <pt x="629" y="585" on="1"/>
        <pt x="629" y="420" on="1"/>
        <pt x="831" y="420" on="1"/>
        <pt x="831" y="310" on="1"/>
        <pt x="629" y="310" on="1"/>
        <pt x="629" y="120" on="1"/>
        <pt x="806" y="120" on="1"/>
        <pt x="829" y="202" on="1"/>
        <pt x="921" y="202" on="1"/>
        <pt x="921" y="0" on="1"/>
        <pt x="400" y="0" on="1"/>
        <pt x="400" y="85" on="1"/>
        <pt x="474" y="115" on="1"/>
        <pt x="474" y="192" on="1"/>
        <pt x="281" y="192" on="1"/>
        <pt x="242" y="111" on="1"/>
        <pt x="303" y="85" on="1"/>
        <pt x="303" y="0" on="1"/>
      </contour>
      <contour>
        <pt x="328" y="300" on="1"/>
        <pt x="474" y="300" on="1"/>
        <pt x="474" y="585" on="1"/>
        <pt x="460" y="585" on="1"/>
      </contour>
    </TTGlyph>
    <TTGlyph name="AEacute" xMin="5" yMin="0" xMax="921" yMax="956">
      <component glyphName="AE" x="0" y="0" flags="0x0"/>
      <component glyphName="acute.Cup" x="500" y="0" flags="0x0"/>
    </TTGlyph>
    <TTGlyph name="Aacute" xMin="5" yMin="0" xMax="743" yMax="956">
      <component glyphName="A" x="0" y="0" flags="0x0"/>
      <component glyphName="acute.Cup" x="306" y="0" flags="0x0"/>
    </TTGlyph>
    <TTGlyph name="Abreve" xMin="5" yMin="0" xMax="743" yMax="941">
      <component glyphName="A" x="0" y="0" flags="0x0"/>
      <component glyphName="breve" x="169" y="167" flags="0x4"/>
    </TTGlyph>
    <TTGlyph name="Acircumflex" xMin="5" yMin="0" xMax="743" yMax="947">
      <contour>
        <pt x="228" y="742" on="1"/>
        <pt x="180" y="808" on="1"/>
        <pt x="333" y="939" on="1"/>
        <pt x="422" y="947" on="1"/>
        <pt x="584" y="808" on="1"/>
        <pt x="536" y="742" on="1"/>
        <pt x="385" y="840" on="1"/>
      </contour>
      <contour>
        <pt x="5" y="0" on="1"/>
        <pt x="5" y="85" on="1"/>
        <pt x="78" y="113" on="1"/>
        <pt x="298" y="702" on="1"/>
        <pt x="458" y="705" on="1"/>
        <pt x="673" y="113" on="1"/>
        <pt x="743" y="85" on="1"/>
        <pt x="743" y="0" on="1"/>
        <pt x="425" y="0" on="1"/>
        <pt x="425" y="85" on="1"/>
        <pt x="500" y="112" on="1"/>
        <pt x="476" y="185" on="1"/>
        <pt x="254" y="185" on="1"/>
        <pt x="229" y="113" on="1"/>
        <pt x="307" y="85" on="1"/>
        <pt x="307" y="0" on="1"/>
      </contour>
      <contour>
        <pt x="289" y="292" on="1"/>
        <pt x="443" y="292" on="1"/>
        <pt x="368" y="529" on="1"/>
      </contour>
    </TTGlyph>
    <TTGlyph name="Adieresis" xMin="5" yMin="0" xMax="743" yMax="925">
      <component glyphName="A" x="0" y="0" flags="0x0"/>
      <component glyphName="dieresis" x="112" y="135" flags="0x4"/>
    </TTGlyph>
    <TTGlyph name="Agrave" xMin="5" yMin="0" xMax="743" yMax="956">
      <component glyphName="A" x="0" y="0" flags="0x0"/>
      <component glyphName="grave.Cup" x="245" y="0" flags="0x0"/>
    </TTGlyph>
    <TTGlyph name="Amacron" xMin="5" yMin="0" xMax="743" yMax="907">
      <component glyphName="A" x="0" y="0" flags="0x0"/>
      <component glyphName="macron" x="243" y="160" flags="0x4"/>
    </TTGlyph>
    <TTGlyph name="Aogonek" xMin="5" yMin="-235" xMax="743" yMax="705">
      <contour>
        <pt x="537" y="-235" on="0"/>
        <pt x="475" y="-184" on="0"/>
        <pt x="475" y="-135" on="1"/>
        <pt x="475" y="-86" on="0"/>
        <pt x="560" y="-19" on="0"/>
        <pt x="603" y="0" on="1"/>
        <pt x="425" y="0" on="1"/>
        <pt x="425" y="85" on="1"/>
        <pt x="500" y="112" on="1"/>
        <pt x="476" y="185" on="1"/>
        <pt x="254" y="185" on="1"/>
        <pt x="229" y="113" on="1"/>
        <pt x="307" y="85" on="1"/>
        <pt x="307" y="0" on="1"/>
        <pt x="5" y="0" on="1"/>
        <pt x="5" y="85" on="1"/>
        <pt x="78" y="113" on="1"/>
        <pt x="298" y="702" on="1"/>
        <pt x="458" y="705" on="1"/>
        <pt x="673" y="113" on="1"/>
        <pt x="743" y="85" on="1"/>
        <pt x="743" y="0" on="1"/>
        <pt x="743" y="2" on="0"/>
        <pt x="658" y="-35" on="0"/>
        <pt x="590" y="-84" on="0"/>
        <pt x="590" y="-110" on="1"/>
        <pt x="590" y="-127" on="0"/>
        <pt x="611" y="-146" on="0"/>
        <pt x="627" y="-146" on="1"/>
        <pt x="638" y="-146" on="0"/>
        <pt x="666" y="-141" on="0"/>
        <pt x="670" y="-140" on="1"/>
        <pt x="687" y="-210" on="1"/>
        <pt x="683" y="-212" on="0"/>
        <pt x="655" y="-224" on="0"/>
        <pt x="609" y="-235" on="0"/>
        <pt x="585" y="-235" on="1"/>
      </contour>
      <contour>
        <pt x="289" y="292" on="1"/>
        <pt x="443" y="292" on="1"/>
        <pt x="368" y="529" on="1"/>
      </contour>
    </TTGlyph>
    <TTGlyph name="Aring" xMin="5" yMin="0" xMax="743" yMax="935">
      <contour>
        <pt x="5" y="85" on="1"/>
        <pt x="78" y="113" on="1"/>
        <pt x="298" y="702" on="1"/>
        <pt x="299" y="702" on="1"/>
        <pt x="276" y="718" on="0"/>
        <pt x="250" y="769" on="0"/>
        <pt x="250" y="802" on="1"/>
        <pt x="250" y="842" on="0"/>
        <pt x="288" y="903" on="0"/>
        <pt x="350" y="935" on="0"/>
        <pt x="384" y="935" on="1"/>
        <pt x="418" y="935" on="0"/>
        <pt x="479" y="905" on="0"/>
        <pt x="517" y="848" on="0"/>
        <pt x="517" y="808" on="1"/>
        <pt x="517" y="773" on="0"/>
        <pt x="486" y="716" on="0"/>
        <pt x="460" y="699" on="1"/>
        <pt x="673" y="113" on="1"/>
        <pt x="743" y="85" on="1"/>
        <pt x="743" y="0" on="1"/>
        <pt x="425" y="0" on="1"/>
        <pt x="425" y="85" on="1"/>
        <pt x="500" y="112" on="1"/>
        <pt x="476" y="185" on="1"/>
        <pt x="254" y="185" on="1"/>
        <pt x="229" y="113" on="1"/>
        <pt x="307" y="85" on="1"/>
        <pt x="307" y="0" on="1"/>
        <pt x="5" y="0" on="1"/>
      </contour>
      <contour>
        <pt x="405" y="748" on="0"/>
        <pt x="432" y="778" on="0"/>
        <pt x="432" y="806" on="1"/>
        <pt x="432" y="834" on="0"/>
        <pt x="407" y="863" on="0"/>
        <pt x="384" y="863" on="1"/>
        <pt x="362" y="863" on="0"/>
        <pt x="335" y="833" on="0"/>
        <pt x="335" y="805" on="1"/>
        <pt x="335" y="777" on="0"/>
        <pt x="360" y="748" on="0"/>
        <pt x="384" y="748" on="1"/>
      </contour>
      <contour>
        <pt x="289" y="292" on="1"/>
        <pt x="443" y="292" on="1"/>
        <pt x="368" y="529" on="1"/>
      </contour>
    </TTGlyph>
    <TTGlyph name="Aringacute" xMin="0" yMin="0" xMax="743" yMax="935">
      <contour>
        <pt x="743" y="85" on="1"/>
        <pt x="743" y="0" on="1"/>
        <pt x="425" y="0" on="1"/>
        <pt x="425" y="85" on="1"/>
        <pt x="500" y="112" on="1"/>
        <pt x="476" y="185" on="1"/>
        <pt x="254" y="185" on="1"/>
        <pt x="229" y="113" on="1"/>
        <pt x="307" y="85" on="1"/>
        <pt x="307" y="0" on="1"/>
        <pt x="5" y="0" on="1"/>
        <pt x="5" y="74" on="1"/>
        <pt x="0" y="82" on="1"/>
        <pt x="22" y="96" on="1"/>
        <pt x="24" y="92" on="1"/>
        <pt x="78" y="113" on="1"/>
        <pt x="298" y="702" on="1"/>
        <pt x="299" y="702" on="1"/>
        <pt x="276" y="718" on="0"/>
        <pt x="250" y="769" on="0"/>
        <pt x="250" y="802" on="1"/>
        <pt x="250" y="842" on="0"/>
        <pt x="288" y="903" on="0"/>
        <pt x="350" y="935" on="0"/>
        <pt x="384" y="935" on="1"/>
        <pt x="418" y="935" on="0"/>
        <pt x="479" y="905" on="0"/>
        <pt x="517" y="848" on="0"/>
        <pt x="517" y="808" on="1"/>
        <pt x="517" y="773" on="0"/>
        <pt x="486" y="716" on="0"/>
        <pt x="460" y="699" on="1"/>
        <pt x="673" y="113" on="1"/>
      </contour>
      <contour>
        <pt x="362" y="863" on="0"/>
        <pt x="335" y="833" on="0"/>
        <pt x="335" y="805" on="1"/>
        <pt x="335" y="777" on="0"/>
        <pt x="360" y="748" on="0"/>
        <pt x="384" y="748" on="1"/>
        <pt x="405" y="748" on="0"/>
        <pt x="432" y="778" on="0"/>
        <pt x="432" y="806" on="1"/>
        <pt x="432" y="834" on="0"/>
        <pt x="407" y="863" on="0"/>
        <pt x="384" y="863" on="1"/>
      </contour>
      <contour>
        <pt x="289" y="292" on="1"/>
        <pt x="443" y="292" on="1"/>
        <pt x="368" y="529" on="1"/>
      </contour>
    </TTGlyph>
    <TTGlyph name="Atilde" xMin="5" yMin="0" xMax="743" yMax="926">
      <contour>
        <pt x="180" y="820" on="0"/>
        <pt x="213" y="877" on="0"/>
        <pt x="268" y="926" on="0"/>
        <pt x="305" y="926" on="1"/>
        <pt x="329" y="926" on="0"/>
        <pt x="372" y="914" on="0"/>
        <pt x="399" y="902" on="1"/>
        <pt x="426" y="891" on="0"/>
        <pt x="460" y="880" on="0"/>
        <pt x="479" y="880" on="1"/>
        <pt x="496" y="880" on="0"/>
        <pt x="527" y="899" on="0"/>
        <pt x="546" y="919" on="0"/>
        <pt x="548" y="922" on="1"/>
        <pt x="603" y="880" on="1"/>
        <pt x="603" y="877" on="0"/>
        <pt x="565" y="822" on="0"/>
        <pt x="505" y="776" on="0"/>
        <pt x="468" y="776" on="1"/>
        <pt x="444" y="776" on="0"/>
        <pt x="406" y="786" on="0"/>
        <pt x="377" y="797" on="1"/>
        <pt x="353" y="806" on="0"/>
        <pt x="319" y="815" on="0"/>
        <pt x="300" y="815" on="1"/>
        <pt x="281" y="815" on="0"/>
        <pt x="249" y="798" on="0"/>
        <pt x="230" y="780" on="0"/>
        <pt x="228" y="777" on="1"/>
        <pt x="180" y="816" on="1"/>
      </contour>
      <contour>
        <pt x="5" y="0" on="1"/>
        <pt x="5" y="85" on="1"/>
        <pt x="78" y="113" on="1"/>
        <pt x="298" y="702" on="1"/>
        <pt x="458" y="705" on="1"/>
        <pt x="673" y="113" on="1"/>
        <pt x="743" y="85" on="1"/>
        <pt x="743" y="0" on="1"/>
        <pt x="425" y="0" on="1"/>
        <pt x="425" y="85" on="1"/>
        <pt x="500" y="112" on="1"/>
        <pt x="476" y="185" on="1"/>
        <pt x="254" y="185" on="1"/>
        <pt x="229" y="113" on="1"/>
        <pt x="307" y="85" on="1"/>
        <pt x="307" y="0" on="1"/>
      </contour>
      <contour>
        <pt x="289" y="292" on="1"/>
        <pt x="443" y="292" on="1"/>
        <pt x="368" y="529" on="1"/>
      </contour>
    </TTGlyph>
    <TTGlyph name="B" xMin="35" yMin="0" xMax="613" yMax="705">
      <contour>
        <pt x="35" y="85" on="1"/>
        <pt x="110" y="115" on="1"/>
        <pt x="110" y="585" on="1"/>
        <pt x="35" y="615" on="1"/>
        <pt x="35" y="700" on="1"/>
        <pt x="265" y="705" on="1"/>
        <pt x="370" y="705" on="1"/>
        <pt x="471" y="705" on="0"/>
        <pt x="590" y="618" on="0"/>
        <pt x="590" y="532" on="1"/>
        <pt x="590" y="405" on="0"/>
        <pt x="470" y="367" on="1"/>
        <pt x="540" y="347" on="0"/>
        <pt x="613" y="265" on="0"/>
        <pt x="613" y="207" on="1"/>
        <pt x="613" y="0" on="0"/>
        <pt x="353" y="0" on="1"/>
        <pt x="35" y="0" on="1"/>
      </contour>
      <contour>
        <pt x="323" y="417" on="1"/>
        <pt x="378" y="417" on="0"/>
        <pt x="435" y="464" on="0"/>
        <pt x="435" y="510" on="1"/>
        <pt x="435" y="547" on="0"/>
        <pt x="388" y="585" on="0"/>
        <pt x="350" y="585" on="1"/>
        <pt x="265" y="585" on="1"/>
        <pt x="265" y="417" on="1"/>
      </contour>
      <contour>
        <pt x="348" y="120" on="1"/>
        <pt x="400" y="120" on="0"/>
        <pt x="455" y="165" on="0"/>
        <pt x="455" y="207" on="1"/>
        <pt x="455" y="261" on="0"/>
        <pt x="391" y="312" on="0"/>
        <pt x="323" y="312" on="1"/>
        <pt x="265" y="312" on="1"/>
        <pt x="265" y="120" on="1"/>
      </contour>
    </TTGlyph>
    <TTGlyph name="C" xMin="55" yMin="-12" xMax="637" yMax="717">
      <contour>
        <pt x="495" y="577" on="0"/>
        <pt x="466" y="585" on="0"/>
        <pt x="416" y="592" on="0"/>
        <pt x="387" y="592" on="1"/>
        <pt x="307" y="592" on="0"/>
        <pt x="222" y="470" on="0"/>
        <pt x="222" y="347" on="1"/>
        <pt x="222" y="229" on="0"/>
        <pt x="310" y="117" on="0"/>
        <pt x="392" y="117" on="1"/>
        <pt x="436" y="117" on="0"/>
        <pt x="521" y="148" on="0"/>
        <pt x="582" y="185" on="0"/>
        <pt x="582" y="187" on="1"/>
        <pt x="637" y="97" on="1"/>
        <pt x="637" y="94" on="0"/>
        <pt x="561" y="36" on="0"/>
        <pt x="445" y="-12" on="0"/>
        <pt x="375" y="-12" on="1"/>
        <pt x="222" y="-12" on="0"/>
        <pt x="55" y="169" on="0"/>
        <pt x="55" y="342" on="1"/>
        <pt x="55" y="458" on="0"/>
        <pt x="138" y="627" on="0"/>
        <pt x="290" y="717" on="0"/>
        <pt x="392" y="717" on="1"/>
        <pt x="446" y="717" on="0"/>
        <pt x="549" y="696" on="0"/>
        <pt x="625" y="671" on="0"/>
        <pt x="625" y="670" on="1"/>
        <pt x="620" y="480" on="1"/>
        <pt x="522" y="480" on="1"/>
        <pt x="499" y="576" on="1"/>
      </contour>
    </TTGlyph>
    <TTGlyph name="Cacute" xMin="55" yMin="-12" xMax="637" yMax="956">
      <component glyphName="C" x="0" y="0" flags="0x0"/>
      <component glyphName="acute.Cup" x="261" y="0" flags="0x0"/>
    </TTGlyph>
    <TTGlyph name="Ccaron" xMin="55" yMin="-12" xMax="637" yMax="957">
      <component glyphName="C" x="0" y="0" flags="0x0"/>
      <component glyphName="caron.Cup" x="175" y="0" flags="0x0"/>
    </TTGlyph>
    <TTGlyph name="Ccedilla" xMin="55" yMin="-234" xMax="637" yMax="717">
      <contour>
        <pt x="357" y="-234" on="0"/>
        <pt x="301" y="-219" on="0"/>
        <pt x="266" y="-203" on="0"/>
        <pt x="262" y="-200" on="1"/>
        <pt x="294" y="-144" on="1"/>
        <pt x="297" y="-146" on="0"/>
        <pt x="322" y="-157" on="0"/>
        <pt x="358" y="-167" on="0"/>
        <pt x="376" y="-167" on="1"/>
        <pt x="397" y="-167" on="0"/>
        <pt x="422" y="-147" on="0"/>
        <pt x="422" y="-130" on="1"/>
        <pt x="422" y="-109" on="0"/>
        <pt x="378" y="-87" on="0"/>
        <pt x="340" y="-87" on="1"/>
        <pt x="340" y="-10" on="1"/>
        <pt x="203" y="-1" on="0"/>
        <pt x="55" y="179" on="0"/>
        <pt x="55" y="342" on="1"/>
        <pt x="55" y="458" on="0"/>
        <pt x="138" y="627" on="0"/>
        <pt x="290" y="717" on="0"/>
        <pt x="392" y="717" on="1"/>
        <pt x="446" y="717" on="0"/>
        <pt x="549" y="696" on="0"/>
        <pt x="625" y="671" on="0"/>
        <pt x="625" y="670" on="1"/>
        <pt x="620" y="480" on="1"/>
        <pt x="522" y="480" on="1"/>
        <pt x="499" y="576" on="1"/>
        <pt x="495" y="577" on="0"/>
        <pt x="466" y="585" on="0"/>
        <pt x="416" y="592" on="0"/>
        <pt x="387" y="592" on="1"/>
        <pt x="307" y="592" on="0"/>
        <pt x="222" y="470" on="0"/>
        <pt x="222" y="347" on="1"/>
        <pt x="222" y="229" on="0"/>
        <pt x="310" y="117" on="0"/>
        <pt x="392" y="117" on="1"/>
        <pt x="436" y="117" on="0"/>
        <pt x="521" y="148" on="0"/>
        <pt x="582" y="185" on="0"/>
        <pt x="582" y="187" on="1"/>
        <pt x="637" y="97" on="1"/>
        <pt x="637" y="95" on="0"/>
        <pt x="577" y="48" on="0"/>
        <pt x="484" y="1" on="0"/>
        <pt x="428" y="-8" on="1"/>
        <pt x="428" y="-44" on="1"/>
        <pt x="468" y="-52" on="0"/>
        <pt x="513" y="-98" on="0"/>
        <pt x="513" y="-134" on="1"/>
        <pt x="513" y="-178" on="0"/>
        <pt x="441" y="-234" on="0"/>
        <pt x="387" y="-234" on="1"/>
      </contour>
    </TTGlyph>
    <TTGlyph name="Ccircumflex" xMin="55" yMin="-12" xMax="637" yMax="947">
      <component glyphName="C" x="0" y="0" flags="0x0"/>
      <component glyphName="circumflex" x="95" y="107" flags="0x4"/>
    </TTGlyph>
    <TTGlyph name="Cdotaccent" xMin="55" yMin="-12" xMax="637" yMax="925">
      <component glyphName="C" x="0" y="0" flags="0x0"/>
      <component glyphName="dotaccent" x="232" y="0" flags="0x0"/>
    </TTGlyph>
    <TTGlyph name="D" xMin="40" yMin="0" xMax="683" yMax="705">
      <contour>
        <pt x="40" y="85" on="1"/>
        <pt x="115" y="115" on="1"/>
        <pt x="115" y="585" on="1"/>
        <pt x="40" y="615" on="1"/>
        <pt x="40" y="700" on="1"/>
        <pt x="270" y="705" on="1"/>
        <pt x="365" y="705" on="1"/>
        <pt x="517" y="705" on="0"/>
        <pt x="683" y="529" on="0"/>
        <pt x="683" y="362" on="1"/>
        <pt x="683" y="251" on="0"/>
        <pt x="601" y="87" on="0"/>
        <pt x="451" y="0" on="0"/>
        <pt x="350" y="0" on="1"/>
        <pt x="40" y="0" on="1"/>
      </contour>
      <contour>
        <pt x="353" y="120" on="1"/>
        <pt x="431" y="120" on="0"/>
        <pt x="515" y="229" on="0"/>
        <pt x="515" y="357" on="1"/>
        <pt x="515" y="479" on="0"/>
        <pt x="437" y="585" on="0"/>
        <pt x="360" y="585" on="1"/>
        <pt x="270" y="585" on="1"/>
        <pt x="270" y="120" on="1"/>
      </contour>
    </TTGlyph>
    <TTGlyph name="Dcaron" xMin="40" yMin="0" xMax="683" yMax="957">
      <component glyphName="D" x="0" y="0" flags="0x0"/>
      <component glyphName="caron.Cup" x="164" y="0" flags="0x0"/>
    </TTGlyph>
    <TTGlyph name="Dcroat" xMin="40" yMin="0" xMax="686" yMax="705">
      <component glyphName="Eth" x="0" y="0" flags="0x0"/>
    </TTGlyph>
    <TTGlyph name="E" xMin="45" yMin="0" xMax="567" yMax="705">
      <contour>
        <pt x="45" y="0" on="1"/>
        <pt x="45" y="85" on="1"/>
        <pt x="120" y="115" on="1"/>
        <pt x="120" y="585" on="1"/>
        <pt x="45" y="615" on="1"/>
        <pt x="45" y="700" on="1"/>
        <pt x="275" y="705" on="1"/>
        <pt x="555" y="705" on="1"/>
        <pt x="555" y="512" on="1"/>
        <pt x="465" y="512" on="1"/>
        <pt x="440" y="585" on="1"/>
        <pt x="275" y="585" on="1"/>
        <pt x="275" y="420" on="1"/>
        <pt x="477" y="420" on="1"/>
        <pt x="477" y="310" on="1"/>
        <pt x="275" y="310" on="1"/>
        <pt x="275" y="120" on="1"/>
        <pt x="454" y="120" on="1"/>
        <pt x="477" y="202" on="1"/>
        <pt x="567" y="202" on="1"/>
        <pt x="567" y="0" on="1"/>
      </contour>
    </TTGlyph>
    <TTGlyph name="Eacute" xMin="45" yMin="0" xMax="567" yMax="956">
      <component glyphName="E" x="0" y="0" flags="0x0"/>
      <component glyphName="acute.Cup" x="220" y="0" flags="0x0"/>
    </TTGlyph>
    <TTGlyph name="Ebreve" xMin="45" yMin="0" xMax="567" yMax="941">
      <component glyphName="E" x="0" y="0" flags="0x0"/>
      <component glyphName="breve" x="105" y="167" flags="0x4"/>
    </TTGlyph>
    <TTGlyph name="Ecaron" xMin="45" yMin="0" xMax="567" yMax="957">
      <component glyphName="E" x="0" y="0" flags="0x0"/>
      <component glyphName="caron.Cup" x="133" y="0" flags="0x0"/>
    </TTGlyph>
    <TTGlyph name="Ecircumflex" xMin="45" yMin="0" xMax="567" yMax="947">
      <component glyphName="E" x="0" y="0" flags="0x0"/>
      <component glyphName="circumflex" x="57" y="107" flags="0x4"/>
    </TTGlyph>
    <TTGlyph name="Edieresis" xMin="45" yMin="0" xMax="567" yMax="926">
      <component glyphName="E" x="0" y="0" flags="0x0"/>
      <component glyphName="dieresis" x="50" y="136" flags="0x4"/>
    </TTGlyph>
    <TTGlyph name="Edotaccent" xMin="45" yMin="0" xMax="567" yMax="925">
      <component glyphName="E" x="0" y="0" flags="0x0"/>
      <component glyphName="dotaccent" x="164" y="0" flags="0x0"/>
    </TTGlyph>
    <TTGlyph name="Egrave" xMin="45" yMin="0" xMax="567" yMax="956">
      <component glyphName="E" x="0" y="0" flags="0x0"/>
      <component glyphName="grave.Cup" x="159" y="0" flags="0x0"/>
    </TTGlyph>
    <TTGlyph name="Emacron" xMin="45" yMin="0" xMax="567" yMax="907">
      <component glyphName="E" x="0" y="0" flags="0x0"/>
      <component glyphName="macron" x="173" y="160" flags="0x4"/>
    </TTGlyph>
    <TTGlyph name="Eng" xMin="35" yMin="-157" xMax="757" yMax="705">
      <contour>
        <pt x="434" y="-157" on="0"/>
        <pt x="385" y="-151" on="0"/>
        <pt x="378" y="-150" on="1"/>
        <pt x="391" y="-50" on="1"/>
        <pt x="446" y="-50" on="1"/>
        <pt x="481" y="-50" on="0"/>
        <pt x="523" y="-32" on="0"/>
        <pt x="534" y="-13" on="1"/>
        <pt x="247" y="453" on="1"/>
        <pt x="247" y="115" on="1"/>
        <pt x="325" y="85" on="1"/>
        <pt x="325" y="0" on="1"/>
        <pt x="35" y="0" on="1"/>
        <pt x="35" y="85" on="1"/>
        <pt x="110" y="115" on="1"/>
        <pt x="110" y="585" on="1"/>
        <pt x="35" y="615" on="1"/>
        <pt x="35" y="700" on="1"/>
        <pt x="275" y="705" on="1"/>
        <pt x="545" y="236" on="1"/>
        <pt x="545" y="585" on="1"/>
        <pt x="472" y="615" on="1"/>
        <pt x="472" y="700" on="1"/>
        <pt x="757" y="705" on="1"/>
        <pt x="757" y="615" on="1"/>
        <pt x="682" y="585" on="1"/>
        <pt x="682" y="106" on="1"/>
        <pt x="682" y="15" on="0"/>
        <pt x="640" y="-99" on="0"/>
        <pt x="541" y="-157" on="0"/>
        <pt x="454" y="-157" on="1"/>
      </contour>
    </TTGlyph>
    <TTGlyph name="Eogonek" xMin="45" yMin="-235" xMax="567" yMax="705">
      <contour>
        <pt x="408" y="-235" on="0"/>
        <pt x="346" y="-184" on="0"/>
        <pt x="346" y="-135" on="1"/>
        <pt x="346" y="-97" on="0"/>
        <pt x="391" y="-37" on="0"/>
        <pt x="447" y="2" on="0"/>
        <pt x="447" y="0" on="1"/>
        <pt x="45" y="0" on="1"/>
        <pt x="45" y="85" on="1"/>
        <pt x="120" y="115" on="1"/>
        <pt x="120" y="585" on="1"/>
        <pt x="45" y="615" on="1"/>
        <pt x="45" y="700" on="1"/>
        <pt x="275" y="705" on="1"/>
        <pt x="555" y="705" on="1"/>
        <pt x="555" y="512" on="1"/>
        <pt x="465" y="512" on="1"/>
        <pt x="440" y="585" on="1"/>
        <pt x="275" y="585" on="1"/>
        <pt x="275" y="420" on="1"/>
        <pt x="477" y="420" on="1"/>
        <pt x="477" y="310" on="1"/>
        <pt x="275" y="310" on="1"/>
        <pt x="275" y="120" on="1"/>
        <pt x="454" y="120" on="1"/>
        <pt x="477" y="202" on="1"/>
        <pt x="567" y="202" on="1"/>
        <pt x="567" y="0" on="1"/>
        <pt x="567" y="1" on="0"/>
        <pt x="508" y="-39" on="0"/>
        <pt x="461" y="-88" on="0"/>
        <pt x="461" y="-110" on="1"/>
        <pt x="461" y="-127" on="0"/>
        <pt x="482" y="-146" on="0"/>
        <pt x="498" y="-146" on="1"/>
        <pt x="508" y="-146" on="0"/>
        <pt x="537" y="-141" on="0"/>
        <pt x="541" y="-140" on="1"/>
        <pt x="558" y="-210" on="1"/>
        <pt x="554" y="-212" on="0"/>
        <pt x="526" y="-224" on="0"/>
        <pt x="480" y="-235" on="0"/>
        <pt x="456" y="-235" on="1"/>
      </contour>
    </TTGlyph>
    <TTGlyph name="Eth" xMin="40" yMin="0" xMax="686" yMax="705">
      <contour>
        <pt x="40" y="85" on="1"/>
        <pt x="115" y="115" on="1"/>
        <pt x="115" y="312" on="1"/>
        <pt x="47" y="312" on="1"/>
        <pt x="47" y="422" on="1"/>
        <pt x="115" y="422" on="1"/>
        <pt x="115" y="585" on="1"/>
        <pt x="40" y="615" on="1"/>
        <pt x="40" y="700" on="1"/>
        <pt x="270" y="705" on="1"/>
        <pt x="369" y="705" on="1"/>
        <pt x="520" y="705" on="0"/>
        <pt x="686" y="529" on="0"/>
        <pt x="686" y="362" on="1"/>
        <pt x="686" y="251" on="0"/>
        <pt x="605" y="87" on="0"/>
        <pt x="455" y="0" on="0"/>
        <pt x="354" y="0" on="1"/>
        <pt x="40" y="0" on="1"/>
      </contour>
      <contour>
        <pt x="356" y="120" on="1"/>
        <pt x="435" y="120" on="0"/>
        <pt x="519" y="229" on="0"/>
        <pt x="519" y="357" on="1"/>
        <pt x="519" y="478" on="0"/>
        <pt x="440" y="585" on="0"/>
        <pt x="364" y="585" on="1"/>
        <pt x="269" y="585" on="1"/>
        <pt x="269" y="422" on="1"/>
        <pt x="390" y="422" on="1"/>
        <pt x="390" y="312" on="1"/>
        <pt x="269" y="312" on="1"/>
        <pt x="269" y="120" on="1"/>
      </contour>
    </TTGlyph>
    <TTGlyph name="Euro" xMin="27" yMin="-12" xMax="607" yMax="717">
      <contour>
        <pt x="27" y="464" on="1"/>
        <pt x="99" y="464" on="1"/>
        <pt x="119" y="573" on="0"/>
        <pt x="256" y="717" on="0"/>
        <pt x="385" y="717" on="1"/>
        <pt x="432" y="717" on="0"/>
        <pt x="522" y="698" on="0"/>
        <pt x="579" y="678" on="0"/>
        <pt x="587" y="675" on="1"/>
        <pt x="582" y="510" on="1"/>
        <pt x="489" y="510" on="1"/>
        <pt x="473" y="580" on="1"/>
        <pt x="470" y="581" on="0"/>
        <pt x="446" y="588" on="0"/>
        <pt x="404" y="595" on="0"/>
        <pt x="380" y="595" on="1"/>
        <pt x="332" y="595" on="0"/>
        <pt x="277" y="537" on="0"/>
        <pt x="258" y="474" on="0"/>
        <pt x="258" y="464" on="1"/>
        <pt x="457" y="464" on="1"/>
        <pt x="457" y="374" on="1"/>
        <pt x="27" y="374" on="1"/>
      </contour>
      <contour>
        <pt x="240" y="-12" on="0"/>
        <pt x="120" y="129" on="0"/>
        <pt x="102" y="221" on="1"/>
        <pt x="27" y="221" on="1"/>
        <pt x="27" y="311" on="1"/>
        <pt x="457" y="311" on="1"/>
        <pt x="457" y="221" on="1"/>
        <pt x="265" y="221" on="1"/>
        <pt x="295" y="116" on="0"/>
        <pt x="392" y="116" on="1"/>
        <pt x="430" y="116" on="0"/>
        <pt x="501" y="141" on="0"/>
        <pt x="552" y="172" on="0"/>
        <pt x="552" y="173" on="1"/>
        <pt x="607" y="85" on="1"/>
        <pt x="607" y="82" on="0"/>
        <pt x="539" y="31" on="0"/>
        <pt x="434" y="-12" on="0"/>
        <pt x="370" y="-12" on="1"/>
      </contour>
    </TTGlyph>
    <TTGlyph name="F" xMin="45" yMin="0" xMax="555" yMax="705">
      <contour>
        <pt x="45" y="0" on="1"/>
        <pt x="45" y="85" on="1"/>
        <pt x="120" y="115" on="1"/>
        <pt x="120" y="585" on="1"/>
        <pt x="45" y="615" on="1"/>
        <pt x="45" y="700" on="1"/>
        <pt x="275" y="705" on="1"/>
        <pt x="555" y="705" on="1"/>
        <pt x="555" y="515" on="1"/>
        <pt x="462" y="515" on="1"/>
        <pt x="437" y="585" on="1"/>
        <pt x="275" y="585" on="1"/>
        <pt x="275" y="410" on="1"/>
        <pt x="482" y="410" on="1"/>
        <pt x="482" y="300" on="1"/>
        <pt x="275" y="300" on="1"/>
        <pt x="275" y="115" on="1"/>
        <pt x="367" y="85" on="1"/>
        <pt x="367" y="0" on="1"/>
      </contour>
    </TTGlyph>
    <TTGlyph name="G" xMin="55" yMin="-12" xMax="715" yMax="717">
      <contour>
        <pt x="222" y="-12" on="0"/>
        <pt x="55" y="169" on="0"/>
        <pt x="55" y="342" on="1"/>
        <pt x="55" y="458" on="0"/>
        <pt x="138" y="627" on="0"/>
        <pt x="290" y="717" on="0"/>
        <pt x="392" y="717" on="1"/>
        <pt x="446" y="717" on="0"/>
        <pt x="549" y="696" on="0"/>
        <pt x="625" y="671" on="0"/>
        <pt x="625" y="670" on="1"/>
        <pt x="620" y="490" on="1"/>
        <pt x="527" y="490" on="1"/>
        <pt x="502" y="576" on="1"/>
        <pt x="498" y="577" on="0"/>
        <pt x="469" y="585" on="0"/>
        <pt x="418" y="592" on="0"/>
        <pt x="389" y="592" on="1"/>
        <pt x="307" y="592" on="0"/>
        <pt x="222" y="470" on="0"/>
        <pt x="222" y="347" on="1"/>
        <pt x="222" y="115" on="0"/>
        <pt x="392" y="115" on="1"/>
        <pt x="415" y="115" on="0"/>
        <pt x="464" y="123" on="0"/>
        <pt x="497" y="132" on="0"/>
        <pt x="502" y="133" on="1"/>
        <pt x="502" y="259" on="1"/>
        <pt x="427" y="282" on="1"/>
        <pt x="427" y="364" on="1"/>
        <pt x="715" y="369" on="1"/>
        <pt x="715" y="282" on="1"/>
        <pt x="647" y="259" on="1"/>
        <pt x="647" y="55" on="1"/>
        <pt x="647" y="53" on="0"/>
        <pt x="571" y="18" on="0"/>
        <pt x="450" y="-12" on="0"/>
        <pt x="375" y="-12" on="1"/>
      </contour>
    </TTGlyph>
    <TTGlyph name="Gamma" xMin="35" yMin="0" xMax="568" yMax="705">
      <component glyphName="uni0413" x="0" y="0" flags="0x0"/>
    </TTGlyph>
    <TTGlyph name="Gbreve" xMin="55" yMin="-12" xMax="715" yMax="941">
      <component glyphName="G" x="0" y="0" flags="0x0"/>
      <component glyphName="breve" x="168" y="167" flags="0x4"/>
    </TTGlyph>
    <TTGlyph name="Gcircumflex" xMin="55" yMin="-12" xMax="715" yMax="947">
      <component glyphName="G" x="0" y="0" flags="0x0"/>
      <component glyphName="circumflex" x="103" y="107" flags="0x4"/>
    </TTGlyph>
    <TTGlyph name="Gcommaaccent" xMin="55" yMin="-332" xMax="715" yMax="717">
      <component glyphName="G" x="0" y="0" flags="0x0"/>
      <component glyphName="uni0326" x="470" y="0" flags="0x0"/>
    </TTGlyph>
    <TTGlyph name="Gdotaccent" xMin="55" yMin="-12" xMax="715" yMax="925">
      <component glyphName="G" x="0" y="0" flags="0x0"/>
      <component glyphName="dotaccent" x="234" y="0" flags="0x0"/>
    </TTGlyph>
    <TTGlyph name="H" xMin="35" yMin="0" xMax="763" yMax="705">
      <contour>
        <pt x="345" y="0" on="1"/>
        <pt x="35" y="0" on="1"/>
        <pt x="35" y="85" on="1"/>
        <pt x="110" y="115" on="1"/>
        <pt x="110" y="585" on="1"/>
        <pt x="35" y="615" on="1"/>
        <pt x="35" y="700" on="1"/>
        <pt x="345" y="705" on="1"/>
        <pt x="345" y="615" on="1"/>
        <pt x="265" y="585" on="1"/>
        <pt x="265" y="425" on="1"/>
        <pt x="533" y="425" on="1"/>
        <pt x="533" y="585" on="1"/>
        <pt x="453" y="615" on="1"/>
        <pt x="453" y="700" on="1"/>
        <pt x="763" y="705" on="1"/>
        <pt x="763" y="615" on="1"/>
        <pt x="688" y="585" on="1"/>
        <pt x="688" y="115" on="1"/>
        <pt x="763" y="85" on="1"/>
        <pt x="763" y="0" on="1"/>
        <pt x="453" y="0" on="1"/>
        <pt x="453" y="85" on="1"/>
        <pt x="533" y="115" on="1"/>
        <pt x="533" y="305" on="1"/>
        <pt x="265" y="305" on="1"/>
        <pt x="265" y="115" on="1"/>
        <pt x="345" y="85" on="1"/>
      </contour>
    </TTGlyph>
    <TTGlyph name="Hbar" xMin="35" yMin="0" xMax="757" yMax="705">
      <contour>
        <pt x="35" y="0" on="1"/>
        <pt x="35" y="85" on="1"/>
        <pt x="110" y="115" on="1"/>
        <pt x="110" y="465" on="1"/>
        <pt x="35" y="465" on="1"/>
        <pt x="35" y="555" on="1"/>
        <pt x="110" y="555" on="1"/>
        <pt x="110" y="585" on="1"/>
        <pt x="35" y="615" on="1"/>
        <pt x="35" y="700" on="1"/>
        <pt x="342" y="705" on="1"/>
        <pt x="342" y="617" on="1"/>
        <pt x="265" y="587" on="1"/>
        <pt x="265" y="555" on="1"/>
        <pt x="527" y="555" on="1"/>
        <pt x="527" y="587" on="1"/>
        <pt x="450" y="617" on="1"/>
        <pt x="450" y="700" on="1"/>
        <pt x="757" y="705" on="1"/>
        <pt x="757" y="615" on="1"/>
        <pt x="682" y="585" on="1"/>
        <pt x="682" y="555" on="1"/>
        <pt x="757" y="555" on="1"/>
        <pt x="757" y="465" on="1"/>
        <pt x="682" y="465" on="1"/>
        <pt x="682" y="115" on="1"/>
        <pt x="757" y="85" on="1"/>
        <pt x="757" y="0" on="1"/>
        <pt x="450" y="0" on="1"/>
        <pt x="450" y="85" on="1"/>
        <pt x="527" y="115" on="1"/>
        <pt x="527" y="295" on="1"/>
        <pt x="265" y="295" on="1"/>
        <pt x="265" y="115" on="1"/>
        <pt x="342" y="85" on="1"/>
        <pt x="342" y="0" on="1"/>
      </contour>
      <contour>
        <pt x="265" y="412" on="1"/>
        <pt x="527" y="412" on="1"/>
        <pt x="527" y="465" on="1"/>
        <pt x="265" y="465" on="1"/>
      </contour>
    </TTGlyph>
    <TTGlyph name="Hcircumflex" xMin="35" yMin="0" xMax="763" yMax="947">
      <component glyphName="H" x="0" y="0" flags="0x0"/>
      <component glyphName="circumflex" x="131" y="107" flags="0x4"/>
    </TTGlyph>
    <TTGlyph name="I" xMin="40" yMin="0" xMax="345" yMax="705">
      <contour>
        <pt x="345" y="0" on="1"/>
        <pt x="40" y="0" on="1"/>
        <pt x="40" y="85" on="1"/>
        <pt x="115" y="115" on="1"/>
        <pt x="115" y="585" on="1"/>
        <pt x="40" y="615" on="1"/>
        <pt x="40" y="700" on="1"/>
        <pt x="345" y="705" on="1"/>
        <pt x="345" y="615" on="1"/>
        <pt x="270" y="585" on="1"/>
        <pt x="270" y="115" on="1"/>
        <pt x="345" y="85" on="1"/>
      </contour>
    </TTGlyph>
    <TTGlyph name="IJ" xMin="40" yMin="-160" xMax="734" yMax="705">
      <component glyphName="I" x="0" y="0" flags="0x0"/>
      <component glyphName="J" x="385" y="0" flags="0x0"/>
    </TTGlyph>
    <TTGlyph name="Iacute" xMin="40" yMin="0" xMax="360" yMax="956">
      <component glyphName="I" x="0" y="0" flags="0x0"/>
      <component glyphName="acute.Cup" x="87" y="0" flags="0x0"/>
    </TTGlyph>
    <TTGlyph name="Ibreve" xMin="29" yMin="0" xMax="356" yMax="941">
      <component glyphName="I" x="0" y="0" flags="0x0"/>
      <component glyphName="breve" x="-27" y="167" flags="0x4"/>
    </TTGlyph>
    <TTGlyph name="Icircumflex" xMin="-15" yMin="0" xMax="389" yMax="947">
      <component glyphName="I" x="0" y="0" flags="0x0"/>
      <component glyphName="circumflex" x="-85" y="107" flags="0x4"/>
    </TTGlyph>
    <TTGlyph name="Idieresis" xMin="26" yMin="0" xMax="380" yMax="925">
      <contour>
        <pt x="26" y="882" on="0"/>
        <pt x="69" y="925" on="0"/>
        <pt x="100" y="925" on="1"/>
        <pt x="135" y="925" on="0"/>
        <pt x="172" y="884" on="0"/>
        <pt x="172" y="847" on="1"/>
        <pt x="172" y="811" on="0"/>
        <pt x="129" y="769" on="0"/>
        <pt x="98" y="769" on="1"/>
        <pt x="63" y="769" on="0"/>
        <pt x="26" y="809" on="0"/>
        <pt x="26" y="847" on="1"/>
      </contour>
      <contour>
        <pt x="234" y="882" on="0"/>
        <pt x="278" y="925" on="0"/>
        <pt x="308" y="925" on="1"/>
        <pt x="343" y="925" on="0"/>
        <pt x="380" y="884" on="0"/>
        <pt x="380" y="847" on="1"/>
        <pt x="380" y="811" on="0"/>
        <pt x="337" y="769" on="0"/>
        <pt x="306" y="769" on="1"/>
        <pt x="271" y="769" on="0"/>
        <pt x="234" y="809" on="0"/>
        <pt x="234" y="847" on="1"/>
      </contour>
      <contour>
        <pt x="359" y="0" on="1"/>
        <pt x="54" y="0" on="1"/>
        <pt x="54" y="85" on="1"/>
        <pt x="129" y="115" on="1"/>
        <pt x="129" y="585" on="1"/>
        <pt x="54" y="615" on="1"/>
        <pt x="54" y="700" on="1"/>
        <pt x="359" y="705" on="1"/>
        <pt x="359" y="615" on="1"/>
        <pt x="284" y="585" on="1"/>
        <pt x="284" y="115" on="1"/>
        <pt x="359" y="85" on="1"/>
      </contour>
    </TTGlyph>
    <TTGlyph name="Idotaccent" xMin="40" yMin="0" xMax="345" yMax="925">
      <component glyphName="I" x="0" y="0" flags="0x0"/>
      <component glyphName="dotaccent" x="40" y="0" flags="0x0"/>
    </TTGlyph>
    <TTGlyph name="Igrave" xMin="19" yMin="0" xMax="345" yMax="956">
      <component glyphName="I" x="0" y="0" flags="0x0"/>
      <component glyphName="grave.Cup" x="19" y="0" flags="0x0"/>
    </TTGlyph>
    <TTGlyph name="Igravecy" xMin="35" yMin="0" xMax="777" yMax="956">
      <component glyphName="uni0418" x="0" y="0" flags="0x0"/>
      <component glyphName="grave.Cup" x="209" y="0" flags="0x0"/>
    </TTGlyph>
    <TTGlyph name="Imacron" xMin="40" yMin="0" xMax="345" yMax="907">
      <component glyphName="I" x="0" y="0" flags="0x0"/>
      <component glyphName="macron" x="38" y="160" flags="0x4"/>
    </TTGlyph>
    <TTGlyph name="Iogonek" xMin="40" yMin="-235" xMax="345" yMax="705">
      <contour>
        <pt x="146" y="-235" on="0"/>
        <pt x="84" y="-184" on="0"/>
        <pt x="84" y="-135" on="1"/>
        <pt x="84" y="-86" on="0"/>
        <pt x="161" y="-18" on="0"/>
        <pt x="200" y="0" on="1"/>
        <pt x="40" y="0" on="1"/>
        <pt x="40" y="85" on="1"/>
        <pt x="115" y="115" on="1"/>
        <pt x="115" y="585" on="1"/>
        <pt x="40" y="615" on="1"/>
        <pt x="40" y="700" on="1"/>
        <pt x="345" y="705" on="1"/>
        <pt x="345" y="615" on="1"/>
        <pt x="270" y="585" on="1"/>
        <pt x="270" y="115" on="1"/>
        <pt x="345" y="85" on="1"/>
        <pt x="345" y="0" on="1"/>
        <pt x="285" y="-26" on="0"/>
        <pt x="199" y="-81" on="0"/>
        <pt x="199" y="-110" on="1"/>
        <pt x="199" y="-127" on="0"/>
        <pt x="220" y="-146" on="0"/>
        <pt x="236" y="-146" on="1"/>
        <pt x="247" y="-146" on="0"/>
        <pt x="275" y="-141" on="0"/>
        <pt x="279" y="-140" on="1"/>
        <pt x="296" y="-210" on="1"/>
        <pt x="292" y="-212" on="0"/>
        <pt x="264" y="-224" on="0"/>
        <pt x="218" y="-235" on="0"/>
        <pt x="194" y="-235" on="1"/>
      </contour>
    </TTGlyph>
    <TTGlyph name="Itilde" xMin="-23" yMin="0" xMax="400" yMax="926">
      <contour>
        <pt x="-23" y="820" on="0"/>
        <pt x="10" y="877" on="0"/>
        <pt x="65" y="926" on="0"/>
        <pt x="102" y="926" on="1"/>
        <pt x="126" y="926" on="0"/>
        <pt x="169" y="914" on="0"/>
        <pt x="196" y="902" on="1"/>
        <pt x="223" y="891" on="0"/>
        <pt x="257" y="880" on="0"/>
        <pt x="276" y="880" on="1"/>
        <pt x="293" y="880" on="0"/>
        <pt x="324" y="899" on="0"/>
        <pt x="343" y="919" on="0"/>
        <pt x="345" y="922" on="1"/>
        <pt x="400" y="880" on="1"/>
        <pt x="400" y="877" on="0"/>
        <pt x="362" y="822" on="0"/>
        <pt x="302" y="776" on="0"/>
        <pt x="265" y="776" on="1"/>
        <pt x="241" y="776" on="0"/>
        <pt x="203" y="786" on="0"/>
        <pt x="174" y="797" on="1"/>
        <pt x="150" y="806" on="0"/>
        <pt x="116" y="815" on="0"/>
        <pt x="97" y="815" on="1"/>
        <pt x="78" y="815" on="0"/>
        <pt x="46" y="798" on="0"/>
        <pt x="27" y="780" on="0"/>
        <pt x="25" y="777" on="1"/>
        <pt x="-23" y="816" on="1"/>
      </contour>
      <contour>
        <pt x="345" y="0" on="1"/>
        <pt x="40" y="0" on="1"/>
        <pt x="40" y="85" on="1"/>
        <pt x="115" y="115" on="1"/>
        <pt x="115" y="585" on="1"/>
        <pt x="40" y="615" on="1"/>
        <pt x="40" y="700" on="1"/>
        <pt x="345" y="705" on="1"/>
        <pt x="345" y="615" on="1"/>
        <pt x="270" y="585" on="1"/>
        <pt x="270" y="115" on="1"/>
        <pt x="345" y="85" on="1"/>
      </contour>
    </TTGlyph>
    <TTGlyph name="J" xMin="-30" yMin="-160" xMax="349" yMax="705">
      <contour>
        <pt x="26" y="-160" on="0"/>
        <pt x="-23" y="-154" on="0"/>
        <pt x="-30" y="-153" on="1"/>
        <pt x="-17" y="-50" on="1"/>
        <pt x="31" y="-50" on="1"/>
        <pt x="119" y="-50" on="0"/>
        <pt x="119" y="46" on="1"/>
        <pt x="119" y="585" on="1"/>
        <pt x="39" y="615" on="1"/>
        <pt x="39" y="700" on="1"/>
        <pt x="349" y="705" on="1"/>
        <pt x="349" y="615" on="1"/>
        <pt x="274" y="585" on="1"/>
        <pt x="274" y="106" on="1"/>
        <pt x="274" y="15" on="0"/>
        <pt x="232" y="-101" on="0"/>
        <pt x="132" y="-160" on="0"/>
        <pt x="46" y="-160" on="1"/>
      </contour>
    </TTGlyph>
    <TTGlyph name="Jcircumflex" xMin="-30" yMin="-160" xMax="384" yMax="947">
      <contour>
        <pt x="48" y="742" on="1"/>
        <pt x="0" y="808" on="1"/>
        <pt x="143" y="939" on="1"/>
        <pt x="232" y="947" on="1"/>
        <pt x="384" y="808" on="1"/>
        <pt x="336" y="742" on="1"/>
        <pt x="195" y="840" on="1"/>
      </contour>
      <contour>
        <pt x="26" y="-160" on="0"/>
        <pt x="-23" y="-154" on="0"/>
        <pt x="-30" y="-153" on="1"/>
        <pt x="-17" y="-50" on="1"/>
        <pt x="31" y="-50" on="1"/>
        <pt x="119" y="-50" on="0"/>
        <pt x="119" y="46" on="1"/>
        <pt x="119" y="585" on="1"/>
        <pt x="39" y="615" on="1"/>
        <pt x="39" y="700" on="1"/>
        <pt x="349" y="705" on="1"/>
        <pt x="349" y="615" on="1"/>
        <pt x="274" y="585" on="1"/>
        <pt x="274" y="106" on="1"/>
        <pt x="274" y="15" on="0"/>
        <pt x="232" y="-101" on="0"/>
        <pt x="132" y="-160" on="0"/>
        <pt x="46" y="-160" on="1"/>
      </contour>
    </TTGlyph>
    <TTGlyph name="K" xMin="35" yMin="0" xMax="729" yMax="705">
      <contour>
        <pt x="644" y="115" on="1"/>
        <pt x="729" y="85" on="1"/>
        <pt x="729" y="0" on="1"/>
        <pt x="414" y="0" on="1"/>
        <pt x="414" y="85" on="1"/>
        <pt x="474" y="115" on="1"/>
        <pt x="344" y="305" on="1"/>
        <pt x="265" y="305" on="1"/>
        <pt x="265" y="115" on="1"/>
        <pt x="325" y="85" on="1"/>
        <pt x="325" y="0" on="1"/>
        <pt x="35" y="0" on="1"/>
        <pt x="35" y="85" on="1"/>
        <pt x="110" y="115" on="1"/>
        <pt x="110" y="587" on="1"/>
        <pt x="35" y="617" on="1"/>
        <pt x="35" y="700" on="1"/>
        <pt x="325" y="705" on="1"/>
        <pt x="325" y="617" on="1"/>
        <pt x="265" y="587" on="1"/>
        <pt x="265" y="415" on="1"/>
        <pt x="354" y="415" on="1"/>
        <pt x="465" y="595" on="1"/>
        <pt x="410" y="617" on="1"/>
        <pt x="410" y="700" on="1"/>
        <pt x="701" y="705" on="1"/>
        <pt x="701" y="617" on="1"/>
        <pt x="611" y="589" on="1"/>
        <pt x="464" y="369" on="1"/>
      </contour>
    </TTGlyph>
    <TTGlyph name="Kcommaaccent" xMin="35" yMin="-332" xMax="729" yMax="705">
      <component glyphName="K" x="0" y="0" flags="0x0"/>
      <component glyphName="uni0326" x="475" y="0" flags="0x0"/>
    </TTGlyph>
    <TTGlyph name="L" xMin="30" yMin="0" xMax="530" yMax="705">
      <contour>
        <pt x="260" y="120" on="1"/>
        <pt x="413" y="120" on="1"/>
        <pt x="435" y="230" on="1"/>
        <pt x="530" y="230" on="1"/>
        <pt x="530" y="0" on="1"/>
        <pt x="30" y="0" on="1"/>
        <pt x="30" y="85" on="1"/>
        <pt x="105" y="115" on="1"/>
        <pt x="105" y="585" on="1"/>
        <pt x="30" y="615" on="1"/>
        <pt x="30" y="700" on="1"/>
        <pt x="335" y="705" on="1"/>
        <pt x="335" y="615" on="1"/>
        <pt x="260" y="585" on="1"/>
      </contour>
    </TTGlyph>
    <TTGlyph name="Lacute" xMin="30" yMin="0" xMax="530" yMax="956">
      <component glyphName="L" x="0" y="0" flags="0x0"/>
      <component glyphName="acute.Cup" x="95" y="0" flags="0x0"/>
    </TTGlyph>
    <TTGlyph name="Lcaron" xMin="30" yMin="0" xMax="535" yMax="705">
      <contour>
        <pt x="260" y="120" on="1"/>
        <pt x="413" y="120" on="1"/>
        <pt x="435" y="230" on="1"/>
        <pt x="530" y="230" on="1"/>
        <pt x="530" y="0" on="1"/>
        <pt x="30" y="0" on="1"/>
        <pt x="30" y="85" on="1"/>
        <pt x="105" y="115" on="1"/>
        <pt x="105" y="585" on="1"/>
        <pt x="30" y="615" on="1"/>
        <pt x="30" y="700" on="1"/>
        <pt x="335" y="705" on="1"/>
        <pt x="335" y="615" on="1"/>
        <pt x="260" y="585" on="1"/>
      </contour>
      <contour>
        <pt x="371" y="448" on="1"/>
        <pt x="409" y="580" on="0"/>
        <pt x="404" y="700" on="1"/>
        <pt x="535" y="705" on="1"/>
        <pt x="534" y="649" on="0"/>
        <pt x="490" y="498" on="0"/>
        <pt x="451" y="420" on="1"/>
      </contour>
    </TTGlyph>
    <TTGlyph name="Lcommaaccent" xMin="30" yMin="-332" xMax="530" yMax="705">
      <component glyphName="L" x="0" y="0" flags="0x0"/>
      <component glyphName="uni0326" x="400" y="0" flags="0x0"/>
    </TTGlyph>
    <TTGlyph name="Ldot" xMin="30" yMin="0" xMax="530" yMax="705">
      <component glyphName="L" x="0" y="0" flags="0x0"/>
      <component glyphName="periodcentered" x="262" y="70" flags="0x4"/>
    </TTGlyph>
    <TTGlyph name="Lslash" xMin="20" yMin="0" xMax="554" yMax="705">
      <contour>
        <pt x="284" y="438" on="1"/>
        <pt x="421" y="499" on="1"/>
        <pt x="453" y="392" on="1"/>
        <pt x="284" y="317" on="1"/>
        <pt x="284" y="120" on="1"/>
        <pt x="437" y="120" on="1"/>
        <pt x="459" y="230" on="1"/>
        <pt x="554" y="230" on="1"/>
        <pt x="554" y="0" on="1"/>
        <pt x="54" y="0" on="1"/>
        <pt x="54" y="85" on="1"/>
        <pt x="129" y="115" on="1"/>
        <pt x="129" y="254" on="1"/>
        <pt x="52" y="220" on="1"/>
        <pt x="20" y="327" on="1"/>
        <pt x="129" y="375" on="1"/>
        <pt x="129" y="585" on="1"/>
        <pt x="54" y="615" on="1"/>
        <pt x="54" y="700" on="1"/>
        <pt x="359" y="705" on="1"/>
        <pt x="359" y="615" on="1"/>
        <pt x="284" y="585" on="1"/>
      </contour>
    </TTGlyph>
    <TTGlyph name="M" xMin="35" yMin="0" xMax="843" yMax="705">
      <contour>
        <pt x="35" y="0" on="1"/>
        <pt x="35" y="85" on="1"/>
        <pt x="110" y="115" on="1"/>
        <pt x="110" y="585" on="1"/>
        <pt x="35" y="615" on="1"/>
        <pt x="35" y="700" on="1"/>
        <pt x="293" y="705" on="1"/>
        <pt x="443" y="372" on="1"/>
        <pt x="600" y="700" on="1"/>
        <pt x="840" y="705" on="1"/>
        <pt x="840" y="615" on="1"/>
        <pt x="768" y="585" on="1"/>
        <pt x="768" y="115" on="1"/>
        <pt x="843" y="85" on="1"/>
        <pt x="843" y="0" on="1"/>
        <pt x="545" y="0" on="1"/>
        <pt x="545" y="85" on="1"/>
        <pt x="623" y="115" on="1"/>
        <pt x="623" y="491" on="1"/>
        <pt x="596" y="425" on="1"/>
        <pt x="483" y="190" on="1"/>
        <pt x="375" y="185" on="1"/>
        <pt x="260" y="422" on="1"/>
        <pt x="243" y="474" on="1"/>
        <pt x="243" y="115" on="1"/>
        <pt x="320" y="85" on="1"/>
        <pt x="320" y="0" on="1"/>
      </contour>
    </TTGlyph>
    <TTGlyph name="N" xMin="35" yMin="0" xMax="757" yMax="705">
      <contour>
        <pt x="35" y="0" on="1"/>
        <pt x="35" y="85" on="1"/>
        <pt x="110" y="115" on="1"/>
        <pt x="110" y="585" on="1"/>
        <pt x="35" y="615" on="1"/>
        <pt x="35" y="700" on="1"/>
        <pt x="275" y="705" on="1"/>
        <pt x="545" y="243" on="1"/>
        <pt x="545" y="585" on="1"/>
        <pt x="472" y="615" on="1"/>
        <pt x="472" y="700" on="1"/>
        <pt x="757" y="705" on="1"/>
        <pt x="757" y="615" on="1"/>
        <pt x="682" y="585" on="1"/>
        <pt x="682" y="0" on="1"/>
        <pt x="515" y="0" on="1"/>
        <pt x="247" y="453" on="1"/>
        <pt x="247" y="115" on="1"/>
        <pt x="325" y="85" on="1"/>
        <pt x="325" y="0" on="1"/>
      </contour>
    </TTGlyph>
    <TTGlyph name="Nacute" xMin="35" yMin="0" xMax="757" yMax="956">
      <component glyphName="N" x="0" y="0" flags="0x0"/>
      <component glyphName="acute.Cup" x="305" y="0" flags="0x0"/>
    </TTGlyph>
    <TTGlyph name="Ncaron" xMin="35" yMin="0" xMax="757" yMax="957">
      <component glyphName="N" x="0" y="0" flags="0x0"/>
      <component glyphName="caron.Cup" x="202" y="0" flags="0x0"/>
    </TTGlyph>
    <TTGlyph name="Ncommaaccent" xMin="35" yMin="-332" xMax="757" yMax="705">
      <component glyphName="N" x="0" y="0" flags="0x0"/>
      <component glyphName="uni0326" x="505" y="0" flags="0x0"/>
    </TTGlyph>
    <TTGlyph name="Ntilde" xMin="35" yMin="0" xMax="757" yMax="926">
      <contour>
        <pt x="182" y="820" on="0"/>
        <pt x="215" y="877" on="0"/>
        <pt x="270" y="926" on="0"/>
        <pt x="307" y="926" on="1"/>
        <pt x="331" y="926" on="0"/>
        <pt x="374" y="914" on="0"/>
        <pt x="401" y="902" on="1"/>
        <pt x="428" y="891" on="0"/>
        <pt x="462" y="880" on="0"/>
        <pt x="481" y="880" on="1"/>
        <pt x="498" y="880" on="0"/>
        <pt x="529" y="899" on="0"/>
        <pt x="548" y="919" on="0"/>
        <pt x="550" y="922" on="1"/>
        <pt x="605" y="880" on="1"/>
        <pt x="605" y="877" on="0"/>
        <pt x="567" y="822" on="0"/>
        <pt x="507" y="776" on="0"/>
        <pt x="470" y="776" on="1"/>
        <pt x="446" y="776" on="0"/>
        <pt x="408" y="786" on="0"/>
        <pt x="379" y="797" on="1"/>
        <pt x="355" y="806" on="0"/>
        <pt x="321" y="815" on="0"/>
        <pt x="302" y="815" on="1"/>
        <pt x="283" y="815" on="0"/>
        <pt x="251" y="798" on="0"/>
        <pt x="232" y="780" on="0"/>
        <pt x="230" y="777" on="1"/>
        <pt x="182" y="816" on="1"/>
      </contour>
      <contour>
        <pt x="35" y="0" on="1"/>
        <pt x="35" y="85" on="1"/>
        <pt x="110" y="115" on="1"/>
        <pt x="110" y="585" on="1"/>
        <pt x="35" y="615" on="1"/>
        <pt x="35" y="700" on="1"/>
        <pt x="275" y="705" on="1"/>
        <pt x="545" y="243" on="1"/>
        <pt x="545" y="585" on="1"/>
        <pt x="472" y="615" on="1"/>
        <pt x="472" y="700" on="1"/>
        <pt x="757" y="705" on="1"/>
        <pt x="757" y="615" on="1"/>
        <pt x="682" y="585" on="1"/>
        <pt x="682" y="0" on="1"/>
        <pt x="515" y="0" on="1"/>
        <pt x="247" y="453" on="1"/>
        <pt x="247" y="115" on="1"/>
        <pt x="325" y="85" on="1"/>
        <pt x="325" y="0" on="1"/>
      </contour>
    </TTGlyph>
    <TTGlyph name="O" xMin="55" yMin="-13" xMax="700" yMax="717">
      <contour>
        <pt x="535" y="717" on="0"/>
        <pt x="700" y="530" on="0"/>
        <pt x="700" y="362" on="1"/>
        <pt x="700" y="251" on="0"/>
        <pt x="616" y="81" on="0"/>
        <pt x="464" y="-13" on="0"/>
        <pt x="365" y="-13" on="1"/>
        <pt x="215" y="-13" on="0"/>
        <pt x="55" y="171" on="0"/>
        <pt x="55" y="347" on="1"/>
        <pt x="55" y="461" on="0"/>
        <pt x="135" y="628" on="0"/>
        <pt x="284" y="717" on="0"/>
        <pt x="385" y="717" on="1"/>
      </contour>
      <contour>
        <pt x="302" y="592" on="0"/>
        <pt x="225" y="481" on="0"/>
        <pt x="225" y="352" on="1"/>
        <pt x="225" y="228" on="0"/>
        <pt x="295" y="112" on="0"/>
        <pt x="370" y="112" on="1"/>
        <pt x="448" y="112" on="0"/>
        <pt x="530" y="227" on="0"/>
        <pt x="530" y="357" on="1"/>
        <pt x="530" y="479" on="0"/>
        <pt x="456" y="592" on="0"/>
        <pt x="380" y="592" on="1"/>
      </contour>
    </TTGlyph>
    <TTGlyph name="OE" xMin="55" yMin="-10" xMax="909" yMax="715">
      <contour>
        <pt x="214" y="-10" on="0"/>
        <pt x="55" y="172" on="0"/>
        <pt x="55" y="347" on="1"/>
        <pt x="55" y="461" on="0"/>
        <pt x="136" y="627" on="0"/>
        <pt x="284" y="715" on="0"/>
        <pt x="385" y="715" on="1"/>
        <pt x="407" y="715" on="0"/>
        <pt x="465" y="711" on="0"/>
        <pt x="477" y="710" on="1"/>
        <pt x="527" y="705" on="0"/>
        <pt x="562" y="705" on="1"/>
        <pt x="897" y="705" on="1"/>
        <pt x="897" y="510" on="1"/>
        <pt x="804" y="510" on="1"/>
        <pt x="779" y="585" on="1"/>
        <pt x="617" y="585" on="1"/>
        <pt x="617" y="420" on="1"/>
        <pt x="819" y="420" on="1"/>
        <pt x="819" y="310" on="1"/>
        <pt x="617" y="310" on="1"/>
        <pt x="617" y="120" on="1"/>
        <pt x="794" y="120" on="1"/>
        <pt x="817" y="200" on="1"/>
        <pt x="909" y="200" on="1"/>
        <pt x="909" y="0" on="1"/>
        <pt x="549" y="0" on="1"/>
        <pt x="518" y="0" on="0"/>
        <pt x="468" y="-5" on="1"/>
        <pt x="383" y="-10" on="0"/>
        <pt x="365" y="-10" on="1"/>
      </contour>
      <contour>
        <pt x="383" y="115" on="0"/>
        <pt x="437" y="118" on="1"/>
        <pt x="462" y="120" on="1"/>
        <pt x="462" y="585" on="1"/>
        <pt x="451" y="586" on="0"/>
        <pt x="410" y="589" on="0"/>
        <pt x="391" y="589" on="1"/>
        <pt x="334" y="589" on="0"/>
        <pt x="261" y="547" on="0"/>
        <pt x="223" y="443" on="0"/>
        <pt x="223" y="352" on="1"/>
        <pt x="223" y="229" on="0"/>
        <pt x="296" y="115" on="0"/>
        <pt x="373" y="115" on="1"/>
      </contour>
    </TTGlyph>
    <TTGlyph name="Oacute" xMin="55" yMin="-13" xMax="700" yMax="956">
      <component glyphName="O" x="0" y="0" flags="0x0"/>
      <component glyphName="acute.Cup" x="265" y="0" flags="0x0"/>
    </TTGlyph>
    <TTGlyph name="Obreve" xMin="55" yMin="-13" xMax="700" yMax="941">
      <component glyphName="O" x="0" y="0" flags="0x0"/>
      <component glyphName="breve" x="158" y="167" flags="0x4"/>
    </TTGlyph>
    <TTGlyph name="Ocircumflex" xMin="55" yMin="-13" xMax="700" yMax="947">
      <component glyphName="O" x="0" y="0" flags="0x0"/>
      <component glyphName="circumflex" x="109" y="107" flags="0x4"/>
    </TTGlyph>
    <TTGlyph name="Odieresis" xMin="55" yMin="-13" xMax="700" yMax="925">
      <component glyphName="O" x="0" y="0" flags="0x0"/>
      <component glyphName="dieresis" x="104" y="135" flags="0x4"/>
    </TTGlyph>
    <TTGlyph name="Ograve" xMin="55" yMin="-13" xMax="700" yMax="956">
      <component glyphName="O" x="0" y="0" flags="0x0"/>
      <component glyphName="grave.Cup" x="209" y="0" flags="0x0"/>
    </TTGlyph>
    <TTGlyph name="Ohungarumlaut" xMin="55" yMin="-13" xMax="700" yMax="987">
      <contour>
        <pt x="241" y="735" on="1"/>
        <pt x="178" y="797" on="1"/>
        <pt x="355" y="987" on="1"/>
        <pt x="436" y="904" on="1"/>
      </contour>
      <contour>
        <pt x="466" y="735" on="1"/>
        <pt x="403" y="797" on="1"/>
        <pt x="580" y="987" on="1"/>
        <pt x="661" y="904" on="1"/>
      </contour>
      <contour>
        <pt x="535" y="717" on="0"/>
        <pt x="700" y="530" on="0"/>
        <pt x="700" y="362" on="1"/>
        <pt x="700" y="251" on="0"/>
        <pt x="616" y="81" on="0"/>
        <pt x="464" y="-13" on="0"/>
        <pt x="365" y="-13" on="1"/>
        <pt x="215" y="-13" on="0"/>
        <pt x="55" y="171" on="0"/>
        <pt x="55" y="347" on="1"/>
        <pt x="55" y="461" on="0"/>
        <pt x="135" y="628" on="0"/>
        <pt x="284" y="717" on="0"/>
        <pt x="385" y="717" on="1"/>
      </contour>
      <contour>
        <pt x="302" y="592" on="0"/>
        <pt x="225" y="481" on="0"/>
        <pt x="225" y="352" on="1"/>
        <pt x="225" y="228" on="0"/>
        <pt x="295" y="112" on="0"/>
        <pt x="370" y="112" on="1"/>
        <pt x="448" y="112" on="0"/>
        <pt x="530" y="227" on="0"/>
        <pt x="530" y="357" on="1"/>
        <pt x="530" y="479" on="0"/>
        <pt x="456" y="592" on="0"/>
        <pt x="380" y="592" on="1"/>
      </contour>
    </TTGlyph>
    <TTGlyph name="Omacron" xMin="55" yMin="-13" xMax="700" yMax="907">
      <component glyphName="O" x="0" y="0" flags="0x0"/>
      <component glyphName="macron" x="233" y="160" flags="0x4"/>
    </TTGlyph>
    <TTGlyph name="Oslash" xMin="60" yMin="-110" xMax="705" yMax="793">
      <contour>
        <pt x="72" y="-59" on="1"/>
        <pt x="150" y="69" on="1"/>
        <pt x="60" y="161" on="0"/>
        <pt x="60" y="347" on="1"/>
        <pt x="60" y="461" on="0"/>
        <pt x="141" y="628" on="0"/>
        <pt x="290" y="717" on="0"/>
        <pt x="390" y="717" on="1"/>
        <pt x="468" y="717" on="0"/>
        <pt x="529" y="690" on="1"/>
        <pt x="591" y="793" on="1"/>
        <pt x="680" y="742" on="1"/>
        <pt x="613" y="633" on="1"/>
        <pt x="658" y="587" on="0"/>
        <pt x="705" y="450" on="0"/>
        <pt x="705" y="362" on="1"/>
        <pt x="705" y="251" on="0"/>
        <pt x="621" y="81" on="0"/>
        <pt x="469" y="-12" on="0"/>
        <pt x="370" y="-12" on="1"/>
        <pt x="294" y="-12" on="0"/>
        <pt x="235" y="12" on="1"/>
        <pt x="161" y="-110" on="1"/>
      </contour>
      <contour>
        <pt x="458" y="575" on="1"/>
        <pt x="426" y="592" on="0"/>
        <pt x="385" y="592" on="1"/>
        <pt x="308" y="592" on="0"/>
        <pt x="228" y="484" on="0"/>
        <pt x="228" y="363" on="1"/>
        <pt x="228" y="277" on="0"/>
        <pt x="249" y="231" on="1"/>
      </contour>
      <contour>
        <pt x="538" y="112" on="0"/>
        <pt x="538" y="357" on="1"/>
        <pt x="538" y="427" on="0"/>
        <pt x="516" y="473" on="1"/>
        <pt x="306" y="129" on="1"/>
        <pt x="335" y="112" on="0"/>
        <pt x="375" y="112" on="1"/>
      </contour>
    </TTGlyph>
    <TTGlyph name="Oslashacute" xMin="60" yMin="-110" xMax="705" yMax="956">
      <component glyphName="Oslash" x="0" y="0" flags="0x0"/>
      <component glyphName="acute.Cup" x="260" y="0" flags="0x0"/>
    </TTGlyph>
    <TTGlyph name="Otilde" xMin="55" yMin="-13" xMax="700" yMax="925">
      <component glyphName="O" x="0" y="0" flags="0x0"/>
      <component glyphName="tilde.Cup" x="164" y="-1" flags="0x4"/>
    </TTGlyph>
    <TTGlyph name="P" xMin="35" yMin="0" xMax="603" yMax="705">
      <contour>
        <pt x="35" y="85" on="1"/>
        <pt x="110" y="115" on="1"/>
        <pt x="110" y="585" on="1"/>
        <pt x="35" y="615" on="1"/>
        <pt x="35" y="700" on="1"/>
        <pt x="265" y="705" on="1"/>
        <pt x="360" y="705" on="1"/>
        <pt x="474" y="705" on="0"/>
        <pt x="603" y="593" on="0"/>
        <pt x="603" y="495" on="1"/>
        <pt x="603" y="371" on="0"/>
        <pt x="456" y="245" on="0"/>
        <pt x="318" y="245" on="1"/>
        <pt x="265" y="245" on="1"/>
        <pt x="265" y="115" on="1"/>
        <pt x="340" y="85" on="1"/>
        <pt x="340" y="0" on="1"/>
        <pt x="35" y="0" on="1"/>
      </contour>
      <contour>
        <pt x="318" y="362" on="1"/>
        <pt x="381" y="362" on="0"/>
        <pt x="448" y="420" on="0"/>
        <pt x="448" y="475" on="1"/>
        <pt x="448" y="525" on="0"/>
        <pt x="395" y="585" on="0"/>
        <pt x="345" y="585" on="1"/>
        <pt x="265" y="585" on="1"/>
        <pt x="265" y="362" on="1"/>
      </contour>
    </TTGlyph>
    <TTGlyph name="Pi" xMin="30" yMin="-10" xMax="786" yMax="705">
      <contour>
        <pt x="556" y="-10" on="0"/>
        <pt x="478" y="77" on="0"/>
        <pt x="478" y="170" on="1"/>
        <pt x="478" y="585" on="1"/>
        <pt x="267" y="585" on="1"/>
        <pt x="267" y="112" on="1"/>
        <pt x="350" y="87" on="1"/>
        <pt x="350" y="0" on="1"/>
        <pt x="30" y="0" on="1"/>
        <pt x="30" y="87" on="1"/>
        <pt x="112" y="112" on="1"/>
        <pt x="112" y="585" on="1"/>
        <pt x="37" y="615" on="1"/>
        <pt x="37" y="700" on="1"/>
        <pt x="267" y="705" on="1"/>
        <pt x="708" y="705" on="1"/>
        <pt x="708" y="615" on="1"/>
        <pt x="633" y="585" on="1"/>
        <pt x="633" y="164" on="1"/>
        <pt x="633" y="132" on="0"/>
        <pt x="657" y="101" on="0"/>
        <pt x="683" y="101" on="1"/>
        <pt x="701" y="101" on="0"/>
        <pt x="745" y="114" on="0"/>
        <pt x="751" y="117" on="1"/>
        <pt x="786" y="47" on="1"/>
        <pt x="786" y="45" on="0"/>
        <pt x="735" y="15" on="0"/>
        <pt x="661" y="-10" on="0"/>
        <pt x="620" y="-10" on="1"/>
      </contour>
    </TTGlyph>
    <TTGlyph name="Q" xMin="55" yMin="-200" xMax="840" yMax="717">
      <contour>
        <pt x="640" y="-200" on="0"/>
        <pt x="580" y="-173" on="0"/>
        <pt x="542" y="-147" on="1"/>
        <pt x="340" y="-11" on="1"/>
        <pt x="201" y="-2" on="0"/>
        <pt x="55" y="180" on="0"/>
        <pt x="55" y="347" on="1"/>
        <pt x="55" y="460" on="0"/>
        <pt x="137" y="627" on="0"/>
        <pt x="289" y="717" on="0"/>
        <pt x="392" y="717" on="1"/>
        <pt x="545" y="717" on="0"/>
        <pt x="710" y="530" on="0"/>
        <pt x="710" y="362" on="1"/>
        <pt x="710" y="233" on="0"/>
        <pt x="600" y="49" on="0"/>
        <pt x="502" y="11" on="1"/>
        <pt x="538" y="-12" on="1"/>
        <pt x="589" y="-47" on="0"/>
        <pt x="662" y="-85" on="0"/>
        <pt x="695" y="-85" on="1"/>
        <pt x="709" y="-85" on="0"/>
        <pt x="750" y="-69" on="0"/>
        <pt x="782" y="-53" on="0"/>
        <pt x="787" y="-50" on="1"/>
        <pt x="840" y="-130" on="1"/>
        <pt x="832" y="-135" on="0"/>
        <pt x="774" y="-169" on="0"/>
        <pt x="699" y="-200" on="0"/>
        <pt x="670" y="-200" on="1"/>
      </contour>
      <contour>
        <pt x="462" y="112" on="0"/>
        <pt x="545" y="232" on="0"/>
        <pt x="545" y="357" on="1"/>
        <pt x="545" y="478" on="0"/>
        <pt x="469" y="592" on="0"/>
        <pt x="387" y="592" on="1"/>
        <pt x="302" y="592" on="0"/>
        <pt x="220" y="477" on="0"/>
        <pt x="220" y="352" on="1"/>
        <pt x="220" y="231" on="0"/>
        <pt x="297" y="112" on="0"/>
        <pt x="377" y="112" on="1"/>
      </contour>
    </TTGlyph>
    <TTGlyph name="R" xMin="35" yMin="0" xMax="665" yMax="705">
      <contour>
        <pt x="35" y="85" on="1"/>
        <pt x="110" y="115" on="1"/>
        <pt x="110" y="585" on="1"/>
        <pt x="35" y="615" on="1"/>
        <pt x="35" y="700" on="1"/>
        <pt x="265" y="705" on="1"/>
        <pt x="341" y="705" on="1"/>
        <pt x="466" y="705" on="0"/>
        <pt x="601" y="602" on="0"/>
        <pt x="601" y="501" on="1"/>
        <pt x="601" y="433" on="0"/>
        <pt x="541" y="339" on="0"/>
        <pt x="488" y="312" on="1"/>
        <pt x="513" y="283" on="0"/>
        <pt x="530" y="247" on="1"/>
        <pt x="597" y="110" on="1"/>
        <pt x="665" y="85" on="1"/>
        <pt x="665" y="0" on="1"/>
        <pt x="480" y="0" on="1"/>
        <pt x="396" y="185" on="1"/>
        <pt x="377" y="228" on="0"/>
        <pt x="355" y="263" on="0"/>
        <pt x="327" y="277" on="0"/>
        <pt x="300" y="277" on="1"/>
        <pt x="265" y="277" on="1"/>
        <pt x="265" y="115" on="1"/>
        <pt x="337" y="85" on="1"/>
        <pt x="337" y="0" on="1"/>
        <pt x="35" y="0" on="1"/>
      </contour>
      <contour>
        <pt x="322" y="382" on="1"/>
        <pt x="381" y="382" on="0"/>
        <pt x="447" y="437" on="0"/>
        <pt x="447" y="487" on="1"/>
        <pt x="447" y="530" on="0"/>
        <pt x="393" y="585" on="0"/>
        <pt x="347" y="585" on="1"/>
        <pt x="265" y="585" on="1"/>
        <pt x="265" y="382" on="1"/>
      </contour>
    </TTGlyph>
    <TTGlyph name="Racute" xMin="35" yMin="0" xMax="665" yMax="956">
      <component glyphName="R" x="0" y="0" flags="0x0"/>
      <component glyphName="acute.Cup" x="205" y="0" flags="0x0"/>
    </TTGlyph>
    <TTGlyph name="Rcaron" xMin="35" yMin="0" xMax="665" yMax="957">
      <component glyphName="R" x="0" y="0" flags="0x0"/>
      <component glyphName="caron.Cup" x="120" y="0" flags="0x0"/>
    </TTGlyph>
    <TTGlyph name="Rcommaaccent" xMin="35" yMin="-332" xMax="665" yMax="705">
      <component glyphName="R" x="0" y="0" flags="0x0"/>
      <component glyphName="uni0326" x="475" y="0" flags="0x0"/>
    </TTGlyph>
    <TTGlyph name="S" xMin="60" yMin="-13" xMax="555" yMax="717">
      <contour>
        <pt x="182" y="131" on="0"/>
        <pt x="208" y="121" on="0"/>
        <pt x="251" y="112" on="0"/>
        <pt x="277" y="112" on="1"/>
        <pt x="328" y="112" on="0"/>
        <pt x="398" y="155" on="0"/>
        <pt x="398" y="193" on="1"/>
        <pt x="398" y="216" on="0"/>
        <pt x="367" y="247" on="0"/>
        <pt x="320" y="268" on="0"/>
        <pt x="275" y="284" on="1"/>
        <pt x="209" y="307" on="0"/>
        <pt x="123" y="352" on="0"/>
        <pt x="60" y="437" on="0"/>
        <pt x="60" y="505" on="1"/>
        <pt x="60" y="572" on="0"/>
        <pt x="126" y="668" on="0"/>
        <pt x="241" y="717" on="0"/>
        <pt x="314" y="717" on="1"/>
        <pt x="364" y="717" on="0"/>
        <pt x="462" y="699" on="0"/>
        <pt x="526" y="680" on="0"/>
        <pt x="534" y="677" on="1"/>
        <pt x="529" y="495" on="1"/>
        <pt x="437" y="495" on="1"/>
        <pt x="412" y="580" on="1"/>
        <pt x="408" y="581" on="0"/>
        <pt x="382" y="588" on="0"/>
        <pt x="343" y="595" on="0"/>
        <pt x="324" y="595" on="1"/>
        <pt x="273" y="595" on="0"/>
        <pt x="218" y="555" on="0"/>
        <pt x="218" y="524" on="1"/>
        <pt x="218" y="492" on="0"/>
        <pt x="278" y="455" on="0"/>
        <pt x="343" y="432" on="1"/>
        <pt x="409" y="409" on="0"/>
        <pt x="494" y="365" on="0"/>
        <pt x="555" y="283" on="0"/>
        <pt x="555" y="219" on="1"/>
        <pt x="555" y="146" on="0"/>
        <pt x="485" y="41" on="0"/>
        <pt x="363" y="-13" on="0"/>
        <pt x="285" y="-13" on="1"/>
        <pt x="235" y="-13" on="0"/>
        <pt x="136" y="4" on="0"/>
        <pt x="71" y="22" on="0"/>
        <pt x="62" y="25" on="1"/>
        <pt x="62" y="217" on="1"/>
        <pt x="164" y="217" on="1"/>
        <pt x="179" y="133" on="1"/>
      </contour>
    </TTGlyph>
    <TTGlyph name="Sacute" xMin="60" yMin="-13" xMax="555" yMax="956">
      <component glyphName="S" x="0" y="0" flags="0x0"/>
      <component glyphName="acute.Cup" x="190" y="0" flags="0x0"/>
    </TTGlyph>
    <TTGlyph name="Scaron" xMin="60" yMin="-13" xMax="555" yMax="957">
      <component glyphName="S" x="0" y="0" flags="0x0"/>
      <component glyphName="caron.Cup" x="111" y="0" flags="0x0"/>
    </TTGlyph>
    <TTGlyph name="Scedilla" xMin="60" yMin="-233" xMax="555" yMax="717">
      <contour>
        <pt x="555" y="122" on="0"/>
        <pt x="436" y="3" on="0"/>
        <pt x="337" y="-10" on="1"/>
        <pt x="337" y="-43" on="1"/>
        <pt x="377" y="-51" on="0"/>
        <pt x="423" y="-97" on="0"/>
        <pt x="423" y="-132" on="1"/>
        <pt x="423" y="-177" on="0"/>
        <pt x="353" y="-233" on="0"/>
        <pt x="297" y="-233" on="1"/>
        <pt x="267" y="-233" on="0"/>
        <pt x="213" y="-219" on="0"/>
        <pt x="179" y="-204" on="0"/>
        <pt x="175" y="-201" on="1"/>
        <pt x="206" y="-146" on="1"/>
        <pt x="209" y="-148" on="0"/>
        <pt x="232" y="-158" on="0"/>
        <pt x="267" y="-167" on="0"/>
        <pt x="284" y="-167" on="1"/>
        <pt x="307" y="-167" on="0"/>
        <pt x="334" y="-146" on="0"/>
        <pt x="334" y="-129" on="1"/>
        <pt x="334" y="-108" on="0"/>
        <pt x="290" y="-86" on="0"/>
        <pt x="252" y="-86" on="1"/>
        <pt x="252" y="-12" on="1"/>
        <pt x="208" y="-9" on="0"/>
        <pt x="123" y="7" on="0"/>
        <pt x="69" y="23" on="0"/>
        <pt x="62" y="25" on="1"/>
        <pt x="62" y="217" on="1"/>
        <pt x="164" y="217" on="1"/>
        <pt x="179" y="133" on="1"/>
        <pt x="182" y="131" on="0"/>
        <pt x="208" y="121" on="0"/>
        <pt x="251" y="112" on="0"/>
        <pt x="277" y="112" on="1"/>
        <pt x="328" y="112" on="0"/>
        <pt x="398" y="155" on="0"/>
        <pt x="398" y="193" on="1"/>
        <pt x="398" y="216" on="0"/>
        <pt x="367" y="247" on="0"/>
        <pt x="320" y="268" on="0"/>
        <pt x="275" y="284" on="1"/>
        <pt x="209" y="307" on="0"/>
        <pt x="123" y="352" on="0"/>
        <pt x="60" y="437" on="0"/>
        <pt x="60" y="505" on="1"/>
        <pt x="60" y="572" on="0"/>
        <pt x="126" y="668" on="0"/>
        <pt x="241" y="717" on="0"/>
        <pt x="314" y="717" on="1"/>
        <pt x="364" y="717" on="0"/>
        <pt x="462" y="699" on="0"/>
        <pt x="526" y="680" on="0"/>
        <pt x="534" y="677" on="1"/>
        <pt x="529" y="495" on="1"/>
        <pt x="437" y="495" on="1"/>
        <pt x="412" y="580" on="1"/>
        <pt x="408" y="581" on="0"/>
        <pt x="382" y="588" on="0"/>
        <pt x="343" y="595" on="0"/>
        <pt x="324" y="595" on="1"/>
        <pt x="273" y="595" on="0"/>
        <pt x="218" y="555" on="0"/>
        <pt x="218" y="524" on="1"/>
        <pt x="218" y="492" on="0"/>
        <pt x="278" y="455" on="0"/>
        <pt x="343" y="432" on="1"/>
        <pt x="409" y="409" on="0"/>
        <pt x="494" y="365" on="0"/>
        <pt x="555" y="283" on="0"/>
        <pt x="555" y="219" on="1"/>
      </contour>
    </TTGlyph>
    <TTGlyph name="Scircumflex" xMin="60" yMin="-13" xMax="555" yMax="947">
      <component glyphName="S" x="0" y="0" flags="0x0"/>
      <component glyphName="circumflex" x="31" y="107" flags="0x4"/>
    </TTGlyph>
    <TTGlyph name="Scommaaccent" xMin="60" yMin="-332" xMax="555" yMax="717">
      <component glyphName="S" x="0" y="0" flags="0x0"/>
      <component glyphName="uni0326" x="430" y="0" flags="0x0"/>
    </TTGlyph>
    <TTGlyph name="ShortIcy" xMin="35" yMin="0" xMax="777" yMax="946">
      <component glyphName="uni0418" x="0" y="0" flags="0x0"/>
      <component glyphName="uniF6D4" x="194" y="165" flags="0x4"/>
    </TTGlyph>
    <TTGlyph name="T" xMin="10" yMin="0" xMax="590" yMax="705">
      <contour>
        <pt x="127" y="0" on="1"/>
        <pt x="127" y="85" on="1"/>
        <pt x="222" y="115" on="1"/>
        <pt x="222" y="585" on="1"/>
        <pt x="127" y="585" on="1"/>
        <pt x="102" y="490" on="1"/>
        <pt x="10" y="490" on="1"/>
        <pt x="10" y="705" on="1"/>
        <pt x="590" y="705" on="1"/>
        <pt x="590" y="490" on="1"/>
        <pt x="497" y="490" on="1"/>
        <pt x="472" y="585" on="1"/>
        <pt x="377" y="585" on="1"/>
        <pt x="377" y="115" on="1"/>
        <pt x="472" y="85" on="1"/>
        <pt x="472" y="0" on="1"/>
      </contour>
    </TTGlyph>
    <TTGlyph name="Tbar" xMin="10" yMin="0" xMax="590" yMax="705">
      <contour>
        <pt x="472" y="585" on="1"/>
        <pt x="377" y="585" on="1"/>
        <pt x="377" y="395" on="1"/>
        <pt x="512" y="395" on="1"/>
        <pt x="512" y="300" on="1"/>
        <pt x="377" y="300" on="1"/>
        <pt x="377" y="115" on="1"/>
        <pt x="472" y="85" on="1"/>
        <pt x="472" y="0" on="1"/>
        <pt x="127" y="0" on="1"/>
        <pt x="127" y="85" on="1"/>
        <pt x="222" y="115" on="1"/>
        <pt x="222" y="300" on="1"/>
        <pt x="87" y="300" on="1"/>
        <pt x="87" y="395" on="1"/>
        <pt x="222" y="395" on="1"/>
        <pt x="222" y="585" on="1"/>
        <pt x="127" y="585" on="1"/>
        <pt x="102" y="490" on="1"/>
        <pt x="10" y="490" on="1"/>
        <pt x="10" y="705" on="1"/>
        <pt x="590" y="705" on="1"/>
        <pt x="590" y="490" on="1"/>
        <pt x="497" y="490" on="1"/>
      </contour>
    </TTGlyph>
    <TTGlyph name="Tcaron" xMin="10" yMin="0" xMax="590" yMax="957">
      <component glyphName="T" x="0" y="0" flags="0x0"/>
      <component glyphName="caron.Cup" x="110" y="0" flags="0x0"/>
    </TTGlyph>
    <TTGlyph name="Thorn" xMin="35" yMin="0" xMax="604" yMax="705">
      <contour>
        <pt x="35" y="85" on="1"/>
        <pt x="110" y="115" on="1"/>
        <pt x="110" y="585" on="1"/>
        <pt x="35" y="615" on="1"/>
        <pt x="35" y="700" on="1"/>
        <pt x="350" y="705" on="1"/>
        <pt x="350" y="615" on="1"/>
        <pt x="265" y="585" on="1"/>
        <pt x="265" y="555" on="1"/>
        <pt x="364" y="555" on="1"/>
        <pt x="478" y="555" on="0"/>
        <pt x="604" y="459" on="0"/>
        <pt x="604" y="370" on="1"/>
        <pt x="604" y="262" on="0"/>
        <pt x="453" y="160" on="0"/>
        <pt x="319" y="160" on="1"/>
        <pt x="265" y="160" on="1"/>
        <pt x="265" y="115" on="1"/>
        <pt x="350" y="85" on="1"/>
        <pt x="350" y="0" on="1"/>
        <pt x="35" y="0" on="1"/>
      </contour>
      <contour>
        <pt x="329" y="267" on="1"/>
        <pt x="387" y="267" on="0"/>
        <pt x="451" y="314" on="0"/>
        <pt x="451" y="360" on="1"/>
        <pt x="451" y="401" on="0"/>
        <pt x="394" y="445" on="0"/>
        <pt x="346" y="445" on="1"/>
        <pt x="265" y="445" on="1"/>
        <pt x="265" y="267" on="1"/>
      </contour>
    </TTGlyph>
    <TTGlyph name="U" xMin="35" yMin="-12" xMax="754" yMax="705">
      <contour>
        <pt x="241" y="-12" on="0"/>
        <pt x="109" y="124" on="0"/>
        <pt x="109" y="270" on="1"/>
        <pt x="109" y="585" on="1"/>
        <pt x="35" y="615" on="1"/>
        <pt x="35" y="700" on="1"/>
        <pt x="342" y="705" on="1"/>
        <pt x="342" y="615" on="1"/>
        <pt x="264" y="585" on="1"/>
        <pt x="264" y="270" on="1"/>
        <pt x="264" y="183" on="0"/>
        <pt x="322" y="110" on="0"/>
        <pt x="395" y="110" on="1"/>
        <pt x="447" y="110" on="0"/>
        <pt x="503" y="147" on="0"/>
        <pt x="524" y="222" on="0"/>
        <pt x="524" y="285" on="1"/>
        <pt x="524" y="585" on="1"/>
        <pt x="446" y="615" on="1"/>
        <pt x="446" y="700" on="1"/>
        <pt x="754" y="705" on="1"/>
        <pt x="754" y="615" on="1"/>
        <pt x="679" y="585" on="1"/>
        <pt x="679" y="285" on="1"/>
        <pt x="679" y="135" on="0"/>
        <pt x="546" y="-12" on="0"/>
        <pt x="390" y="-12" on="1"/>
      </contour>
    </TTGlyph>
    <TTGlyph name="Uacute" xMin="35" yMin="-12" xMax="754" yMax="956">
      <component glyphName="U" x="0" y="0" flags="0x0"/>
      <component glyphName="acute.Cup" x="285" y="0" flags="0x0"/>
    </TTGlyph>
    <TTGlyph name="Ubreve" xMin="35" yMin="-12" xMax="754" yMax="941">
      <component glyphName="U" x="0" y="0" flags="0x0"/>
      <component glyphName="breve" x="180" y="167" flags="0x4"/>
    </TTGlyph>
    <TTGlyph name="Ucircumflex" xMin="35" yMin="-12" xMax="754" yMax="947">
      <component glyphName="U" x="0" y="0" flags="0x0"/>
      <component glyphName="circumflex" x="120" y="107" flags="0x4"/>
    </TTGlyph>
    <TTGlyph name="Udieresis" xMin="35" yMin="-12" xMax="754" yMax="925">
      <component glyphName="U" x="0" y="0" flags="0x0"/>
      <component glyphName="dieresis" x="123" y="135" flags="0x4"/>
    </TTGlyph>
    <TTGlyph name="Ugrave" xMin="35" yMin="-12" xMax="754" yMax="956">
      <component glyphName="U" x="0" y="0" flags="0x0"/>
      <component glyphName="grave.Cup" x="219" y="0" flags="0x0"/>
    </TTGlyph>
    <TTGlyph name="Uhungarumlaut" xMin="35" yMin="-12" xMax="754" yMax="987">
      <contour>
        <pt x="253" y="735" on="1"/>
        <pt x="190" y="797" on="1"/>
        <pt x="367" y="987" on="1"/>
        <pt x="448" y="904" on="1"/>
      </contour>
      <contour>
        <pt x="478" y="735" on="1"/>
        <pt x="415" y="797" on="1"/>
        <pt x="592" y="987" on="1"/>
        <pt x="673" y="904" on="1"/>
      </contour>
      <contour>
        <pt x="241" y="-12" on="0"/>
        <pt x="109" y="124" on="0"/>
        <pt x="109" y="270" on="1"/>
        <pt x="109" y="585" on="1"/>
        <pt x="35" y="615" on="1"/>
        <pt x="35" y="700" on="1"/>
        <pt x="342" y="705" on="1"/>
        <pt x="342" y="615" on="1"/>
        <pt x="264" y="585" on="1"/>
        <pt x="264" y="270" on="1"/>
        <pt x="264" y="183" on="0"/>
        <pt x="322" y="110" on="0"/>
        <pt x="395" y="110" on="1"/>
        <pt x="447" y="110" on="0"/>
        <pt x="503" y="147" on="0"/>
        <pt x="524" y="222" on="0"/>
        <pt x="524" y="285" on="1"/>
        <pt x="524" y="585" on="1"/>
        <pt x="446" y="615" on="1"/>
        <pt x="446" y="700" on="1"/>
        <pt x="754" y="705" on="1"/>
        <pt x="754" y="615" on="1"/>
        <pt x="679" y="585" on="1"/>
        <pt x="679" y="285" on="1"/>
        <pt x="679" y="135" on="0"/>
        <pt x="546" y="-12" on="0"/>
        <pt x="390" y="-12" on="1"/>
      </contour>
    </TTGlyph>
    <TTGlyph name="Umacron" xMin="35" yMin="-12" xMax="754" yMax="907">
      <component glyphName="U" x="0" y="0" flags="0x0"/>
      <component glyphName="macron" x="243" y="160" flags="0x4"/>
    </TTGlyph>
    <TTGlyph name="Uogonek" xMin="32" yMin="-235" xMax="750" yMax="705">
      <contour>
        <pt x="344" y="-235" on="0"/>
        <pt x="282" y="-184" on="0"/>
        <pt x="282" y="-135" on="1"/>
        <pt x="282" y="-95" on="0"/>
        <pt x="334" y="-32" on="0"/>
        <pt x="366" y="-11" on="1"/>
        <pt x="236" y="-11" on="0"/>
        <pt x="107" y="126" on="0"/>
        <pt x="107" y="270" on="1"/>
        <pt x="107" y="585" on="1"/>
        <pt x="32" y="615" on="1"/>
        <pt x="32" y="700" on="1"/>
        <pt x="340" y="705" on="1"/>
        <pt x="340" y="615" on="1"/>
        <pt x="262" y="585" on="1"/>
        <pt x="262" y="270" on="1"/>
        <pt x="262" y="183" on="0"/>
        <pt x="320" y="110" on="0"/>
        <pt x="392" y="110" on="1"/>
        <pt x="444" y="110" on="0"/>
        <pt x="499" y="147" on="0"/>
        <pt x="520" y="222" on="0"/>
        <pt x="520" y="285" on="1"/>
        <pt x="520" y="585" on="1"/>
        <pt x="442" y="615" on="1"/>
        <pt x="442" y="700" on="1"/>
        <pt x="750" y="705" on="1"/>
        <pt x="750" y="615" on="1"/>
        <pt x="675" y="585" on="1"/>
        <pt x="675" y="285" on="1"/>
        <pt x="675" y="176" on="0"/>
        <pt x="611" y="53" on="0"/>
        <pt x="533" y="12" on="1"/>
        <pt x="397" y="-60" on="0"/>
        <pt x="397" y="-110" on="1"/>
        <pt x="397" y="-127" on="0"/>
        <pt x="418" y="-146" on="0"/>
        <pt x="434" y="-146" on="1"/>
        <pt x="444" y="-146" on="0"/>
        <pt x="473" y="-141" on="0"/>
        <pt x="477" y="-140" on="1"/>
        <pt x="494" y="-210" on="1"/>
        <pt x="490" y="-212" on="0"/>
        <pt x="462" y="-224" on="0"/>
        <pt x="416" y="-235" on="0"/>
        <pt x="392" y="-235" on="1"/>
      </contour>
    </TTGlyph>
    <TTGlyph name="Uring" xMin="35" yMin="-12" xMax="754" yMax="995">
      <component glyphName="U" x="0" y="0" flags="0x0"/>
      <component glyphName="ring" x="185" y="138" flags="0x4"/>
    </TTGlyph>
    <TTGlyph name="Utilde" xMin="35" yMin="-12" xMax="754" yMax="926">
      <contour>
        <pt x="182" y="820" on="0"/>
        <pt x="215" y="877" on="0"/>
        <pt x="270" y="926" on="0"/>
        <pt x="307" y="926" on="1"/>
        <pt x="331" y="926" on="0"/>
        <pt x="374" y="914" on="0"/>
        <pt x="401" y="902" on="1"/>
        <pt x="428" y="891" on="0"/>
        <pt x="462" y="880" on="0"/>
        <pt x="481" y="880" on="1"/>
        <pt x="498" y="880" on="0"/>
        <pt x="529" y="899" on="0"/>
        <pt x="548" y="919" on="0"/>
        <pt x="550" y="922" on="1"/>
        <pt x="605" y="880" on="1"/>
        <pt x="605" y="877" on="0"/>
        <pt x="567" y="822" on="0"/>
        <pt x="507" y="776" on="0"/>
        <pt x="470" y="776" on="1"/>
        <pt x="446" y="776" on="0"/>
        <pt x="408" y="786" on="0"/>
        <pt x="379" y="797" on="1"/>
        <pt x="355" y="806" on="0"/>
        <pt x="321" y="815" on="0"/>
        <pt x="302" y="815" on="1"/>
        <pt x="283" y="815" on="0"/>
        <pt x="251" y="798" on="0"/>
        <pt x="232" y="780" on="0"/>
        <pt x="230" y="777" on="1"/>
        <pt x="182" y="816" on="1"/>
      </contour>
      <contour>
        <pt x="241" y="-12" on="0"/>
        <pt x="109" y="124" on="0"/>
        <pt x="109" y="270" on="1"/>
        <pt x="109" y="585" on="1"/>
        <pt x="35" y="615" on="1"/>
        <pt x="35" y="700" on="1"/>
        <pt x="342" y="705" on="1"/>
        <pt x="342" y="615" on="1"/>
        <pt x="264" y="585" on="1"/>
        <pt x="264" y="270" on="1"/>
        <pt x="264" y="183" on="0"/>
        <pt x="322" y="110" on="0"/>
        <pt x="395" y="110" on="1"/>
        <pt x="447" y="110" on="0"/>
        <pt x="503" y="147" on="0"/>
        <pt x="524" y="222" on="0"/>
        <pt x="524" y="285" on="1"/>
        <pt x="524" y="585" on="1"/>
        <pt x="446" y="615" on="1"/>
        <pt x="446" y="700" on="1"/>
        <pt x="754" y="705" on="1"/>
        <pt x="754" y="615" on="1"/>
        <pt x="679" y="585" on="1"/>
        <pt x="679" y="285" on="1"/>
        <pt x="679" y="135" on="0"/>
        <pt x="546" y="-12" on="0"/>
        <pt x="390" y="-12" on="1"/>
      </contour>
    </TTGlyph>
    <TTGlyph name="V" xMin="5" yMin="0" xMax="719" yMax="705">
      <contour>
        <pt x="275" y="0" on="1"/>
        <pt x="73" y="587" on="1"/>
        <pt x="5" y="615" on="1"/>
        <pt x="5" y="700" on="1"/>
        <pt x="315" y="705" on="1"/>
        <pt x="315" y="615" on="1"/>
        <pt x="241" y="586" on="1"/>
        <pt x="333" y="299" on="1"/>
        <pt x="365" y="176" on="1"/>
        <pt x="397" y="294" on="1"/>
        <pt x="496" y="585" on="1"/>
        <pt x="420" y="615" on="1"/>
        <pt x="420" y="700" on="1"/>
        <pt x="719" y="705" on="1"/>
        <pt x="719" y="615" on="1"/>
        <pt x="646" y="585" on="1"/>
        <pt x="435" y="0" on="1"/>
      </contour>
    </TTGlyph>
    <TTGlyph name="W" xMin="5" yMin="0" xMax="1030" yMax="705">
      <contour>
        <pt x="75" y="586" on="1"/>
        <pt x="5" y="615" on="1"/>
        <pt x="5" y="700" on="1"/>
        <pt x="302" y="705" on="1"/>
        <pt x="302" y="615" on="1"/>
        <pt x="229" y="585" on="1"/>
        <pt x="318" y="225" on="1"/>
        <pt x="455" y="697" on="1"/>
        <pt x="590" y="705" on="1"/>
        <pt x="727" y="226" on="1"/>
        <pt x="820" y="585" on="1"/>
        <pt x="745" y="615" on="1"/>
        <pt x="745" y="700" on="1"/>
        <pt x="1030" y="705" on="1"/>
        <pt x="1030" y="615" on="1"/>
        <pt x="958" y="585" on="1"/>
        <pt x="790" y="0" on="1"/>
        <pt x="648" y="0" on="1"/>
        <pt x="514" y="475" on="1"/>
        <pt x="378" y="0" on="1"/>
        <pt x="240" y="0" on="1"/>
      </contour>
    </TTGlyph>
    <TTGlyph name="Wacute" xMin="5" yMin="0" xMax="1030" yMax="956">
      <component glyphName="W" x="0" y="0" flags="0x0"/>
      <component glyphName="acute.Cup" x="380" y="0" flags="0x0"/>
    </TTGlyph>
    <TTGlyph name="Wcircumflex" xMin="5" yMin="0" xMax="1030" yMax="947">
      <component glyphName="W" x="0" y="0" flags="0x0"/>
      <component glyphName="circumflex" x="245" y="107" flags="0x4"/>
    </TTGlyph>
    <TTGlyph name="Wdieresis" xMin="5" yMin="0" xMax="1030" yMax="925">
      <component glyphName="W" x="0" y="0" flags="0x0"/>
      <component glyphName="dieresis" x="265" y="135" flags="0x4"/>
    </TTGlyph>
    <TTGlyph name="Wgrave" xMin="5" yMin="0" xMax="1030" yMax="956">
      <component glyphName="W" x="0" y="0" flags="0x0"/>
      <component glyphName="grave.Cup" x="385" y="0" flags="0x0"/>
    </TTGlyph>
    <TTGlyph name="X" xMin="10" yMin="0" xMax="730" yMax="705">
      <contour>
        <pt x="10" y="0" on="1"/>
        <pt x="10" y="85" on="1"/>
        <pt x="72" y="110" on="1"/>
        <pt x="274" y="354" on="1"/>
        <pt x="88" y="596" on="1"/>
        <pt x="30" y="615" on="1"/>
        <pt x="30" y="700" on="1"/>
        <pt x="330" y="705" on="1"/>
        <pt x="330" y="615" on="1"/>
        <pt x="280" y="598" on="1"/>
        <pt x="383" y="461" on="1"/>
        <pt x="481" y="594" on="1"/>
        <pt x="427" y="615" on="1"/>
        <pt x="427" y="700" on="1"/>
        <pt x="715" y="705" on="1"/>
        <pt x="715" y="615" on="1"/>
        <pt x="649" y="595" on="1"/>
        <pt x="465" y="362" on="1"/>
        <pt x="660" y="109" on="1"/>
        <pt x="730" y="85" on="1"/>
        <pt x="730" y="0" on="1"/>
        <pt x="420" y="0" on="1"/>
        <pt x="420" y="85" on="1"/>
        <pt x="466" y="105" on="1"/>
        <pt x="356" y="253" on="1"/>
        <pt x="244" y="109" on="1"/>
        <pt x="307" y="85" on="1"/>
        <pt x="307" y="0" on="1"/>
      </contour>
    </TTGlyph>
    <TTGlyph name="Y" xMin="7" yMin="0" xMax="660" yMax="705">
      <contour>
        <pt x="180" y="0" on="1"/>
        <pt x="180" y="85" on="1"/>
        <pt x="255" y="115" on="1"/>
        <pt x="255" y="244" on="1"/>
        <pt x="72" y="588" on="1"/>
        <pt x="7" y="615" on="1"/>
        <pt x="7" y="700" on="1"/>
        <pt x="290" y="705" on="1"/>
        <pt x="290" y="615" on="1"/>
        <pt x="239" y="594" on="1"/>
        <pt x="339" y="379" on="1"/>
        <pt x="445" y="593" on="1"/>
        <pt x="390" y="615" on="1"/>
        <pt x="390" y="700" on="1"/>
        <pt x="660" y="705" on="1"/>
        <pt x="660" y="615" on="1"/>
        <pt x="591" y="588" on="1"/>
        <pt x="410" y="245" on="1"/>
        <pt x="410" y="115" on="1"/>
        <pt x="485" y="85" on="1"/>
        <pt x="485" y="0" on="1"/>
      </contour>
    </TTGlyph>
    <TTGlyph name="Yacute" xMin="7" yMin="0" xMax="660" yMax="956">
      <component glyphName="Y" x="0" y="0" flags="0x0"/>
      <component glyphName="acute.Cup" x="260" y="0" flags="0x0"/>
    </TTGlyph>
    <TTGlyph name="Ycircumflex" xMin="7" yMin="0" xMax="660" yMax="947">
      <component glyphName="Y" x="0" y="0" flags="0x0"/>
      <component glyphName="circumflex" x="79" y="107" flags="0x4"/>
    </TTGlyph>
    <TTGlyph name="Ydieresis" xMin="7" yMin="0" xMax="660" yMax="926">
      <component glyphName="Y" x="0" y="0" flags="0x0"/>
      <component glyphName="dieresis" x="58" y="136" flags="0x4"/>
    </TTGlyph>
    <TTGlyph name="Ygrave" xMin="7" yMin="0" xMax="660" yMax="956">
      <component glyphName="Y" x="0" y="0" flags="0x0"/>
      <component glyphName="grave.Cup" x="194" y="0" flags="0x0"/>
    </TTGlyph>
    <TTGlyph name="Z" xMin="30" yMin="0" xMax="585" yMax="705">
      <contour>
        <pt x="30" y="0" on="1"/>
        <pt x="30" y="105" on="1"/>
        <pt x="385" y="585" on="1"/>
        <pt x="175" y="585" on="1"/>
        <pt x="150" y="495" on="1"/>
        <pt x="55" y="495" on="1"/>
        <pt x="55" y="705" on="1"/>
        <pt x="585" y="705" on="1"/>
        <pt x="585" y="592" on="1"/>
        <pt x="237" y="120" on="1"/>
        <pt x="465" y="120" on="1"/>
        <pt x="487" y="220" on="1"/>
        <pt x="582" y="220" on="1"/>
        <pt x="582" y="0" on="1"/>
      </contour>
    </TTGlyph>
    <TTGlyph name="Zacute" xMin="30" yMin="0" xMax="585" yMax="956">
      <component glyphName="Z" x="0" y="0" flags="0x0"/>
      <component glyphName="acute.Cup" x="210" y="0" flags="0x0"/>
    </TTGlyph>
    <TTGlyph name="Zcaron" xMin="30" yMin="0" xMax="585" yMax="957">
      <component glyphName="Z" x="0" y="0" flags="0x0"/>
      <component glyphName="caron.Cup" x="113" y="0" flags="0x0"/>
    </TTGlyph>
    <TTGlyph name="Zdotaccent" xMin="30" yMin="0" xMax="585" yMax="925">
      <component glyphName="Z" x="0" y="0" flags="0x0"/>
      <component glyphName="dotaccent" x="170" y="0" flags="0x0"/>
    </TTGlyph>
    <TTGlyph name="a" xMin="40" yMin="-10" xMax="576" yMax="550">
      <contour>
        <pt x="123" y="-10" on="0"/>
        <pt x="40" y="72" on="0"/>
        <pt x="40" y="147" on="1"/>
        <pt x="40" y="233" on="0"/>
        <pt x="163" y="312" on="0"/>
        <pt x="281" y="312" on="1"/>
        <pt x="351" y="312" on="1"/>
        <pt x="351" y="367" on="1"/>
        <pt x="351" y="440" on="0"/>
        <pt x="274" y="440" on="1"/>
        <pt x="251" y="440" on="0"/>
        <pt x="212" y="433" on="0"/>
        <pt x="189" y="426" on="0"/>
        <pt x="186" y="425" on="1"/>
        <pt x="171" y="362" on="1"/>
        <pt x="81" y="362" on="1"/>
        <pt x="74" y="510" on="1"/>
        <pt x="83" y="513" on="0"/>
        <pt x="152" y="532" on="0"/>
        <pt x="248" y="550" on="0"/>
        <pt x="291" y="550" on="1"/>
        <pt x="368" y="550" on="0"/>
        <pt x="459" y="511" on="0"/>
        <pt x="501" y="425" on="0"/>
        <pt x="501" y="352" on="1"/>
        <pt x="501" y="105" on="1"/>
        <pt x="576" y="87" on="1"/>
        <pt x="576" y="7" on="1"/>
        <pt x="376" y="0" on="1"/>
        <pt x="358" y="65" on="1"/>
        <pt x="358" y="63" on="0"/>
        <pt x="306" y="23" on="0"/>
        <pt x="234" y="-10" on="0"/>
        <pt x="196" y="-10" on="1"/>
      </contour>
      <contour>
        <pt x="268" y="102" on="0"/>
        <pt x="315" y="128" on="0"/>
        <pt x="347" y="156" on="0"/>
        <pt x="351" y="160" on="1"/>
        <pt x="351" y="227" on="1"/>
        <pt x="294" y="227" on="1"/>
        <pt x="236" y="227" on="0"/>
        <pt x="185" y="196" on="0"/>
        <pt x="185" y="162" on="1"/>
        <pt x="185" y="133" on="0"/>
        <pt x="216" y="102" on="0"/>
        <pt x="244" y="102" on="1"/>
      </contour>
    </TTGlyph>
    <TTGlyph name="aacute" xMin="40" yMin="-10" xMax="576" yMax="851">
      <component glyphName="a" x="0" y="0" flags="0x0"/>
      <component glyphName="acute" x="145" y="0" flags="0x0"/>
    </TTGlyph>
    <TTGlyph name="abreve" xMin="40" yMin="-10" xMax="576" yMax="790">
      <component glyphName="a" x="0" y="0" flags="0x0"/>
      <component glyphName="breve" x="70" y="16" flags="0x4"/>
    </TTGlyph>
    <TTGlyph name="acircumflex" xMin="40" yMin="-10" xMax="576" yMax="825">
      <component glyphName="a" x="0" y="0" flags="0x0"/>
      <component glyphName="circumflex.x" x="0" y="-15" flags="0x4"/>
    </TTGlyph>
    <TTGlyph name="acute" xMin="0" yMin="600" xMax="291" yMax="851">
      <contour>
        <pt x="49" y="600" on="1"/>
        <pt x="0" y="673" on="1"/>
        <pt x="223" y="851" on="1"/>
        <pt x="291" y="747" on="1"/>
      </contour>
    </TTGlyph>
    <TTGlyph name="acute.Cup" xMin="0" yMin="735" xMax="273" yMax="956">
      <contour>
        <pt x="273" y="847" on="1"/>
        <pt x="46" y="735" on="1"/>
        <pt x="0" y="815" on="1"/>
        <pt x="215" y="956" on="1"/>
      </contour>
    </TTGlyph>
    <TTGlyph name="acute.x" xMin="14" yMin="598" xMax="305" yMax="849">
      <contour>
        <pt x="63" y="598" on="1"/>
        <pt x="14" y="671" on="1"/>
        <pt x="237" y="849" on="1"/>
        <pt x="305" y="745" on="1"/>
      </contour>
    </TTGlyph>
    <TTGlyph name="adieresis" xMin="40" yMin="-10" xMax="576" yMax="776">
      <component glyphName="a" x="0" y="0" flags="0x0"/>
      <component glyphName="dieresis" x="14" y="-14" flags="0x4"/>
    </TTGlyph>
    <TTGlyph name="ae" xMin="40" yMin="-10" xMax="836" yMax="550">
      <contour>
        <pt x="124" y="-10" on="0"/>
        <pt x="40" y="74" on="0"/>
        <pt x="40" y="147" on="1"/>
        <pt x="40" y="233" on="0"/>
        <pt x="162" y="312" on="0"/>
        <pt x="280" y="312" on="1"/>
        <pt x="350" y="312" on="1"/>
        <pt x="350" y="367" on="1"/>
        <pt x="350" y="439" on="0"/>
        <pt x="273" y="439" on="1"/>
        <pt x="251" y="439" on="0"/>
        <pt x="212" y="432" on="0"/>
        <pt x="188" y="425" on="0"/>
        <pt x="185" y="424" on="1"/>
        <pt x="170" y="362" on="1"/>
        <pt x="80" y="362" on="1"/>
        <pt x="73" y="510" on="1"/>
        <pt x="73" y="512" on="0"/>
        <pt x="149" y="532" on="0"/>
        <pt x="246" y="549" on="0"/>
        <pt x="288" y="549" on="1"/>
        <pt x="344" y="549" on="0"/>
        <pt x="421" y="521" on="0"/>
        <pt x="444" y="491" on="1"/>
        <pt x="511" y="550" on="0"/>
        <pt x="610" y="550" on="1"/>
        <pt x="718" y="550" on="0"/>
        <pt x="836" y="426" on="0"/>
        <pt x="836" y="316" on="1"/>
        <pt x="836" y="292" on="0"/>
        <pt x="831" y="245" on="0"/>
        <pt x="830" y="238" on="1"/>
        <pt x="499" y="235" on="1"/>
        <pt x="503" y="176" on="0"/>
        <pt x="568" y="110" on="0"/>
        <pt x="620" y="110" on="1"/>
        <pt x="657" y="110" on="0"/>
        <pt x="731" y="131" on="0"/>
        <pt x="780" y="153" on="0"/>
        <pt x="786" y="157" on="1"/>
        <pt x="830" y="74" on="1"/>
        <pt x="830" y="72" on="0"/>
        <pt x="757" y="27" on="0"/>
        <pt x="655" y="-10" on="0"/>
        <pt x="600" y="-10" on="1"/>
        <pt x="454" y="-10" on="0"/>
        <pt x="392" y="90" on="1"/>
        <pt x="356" y="48" on="0"/>
        <pt x="257" y="-10" on="0"/>
        <pt x="195" y="-10" on="1"/>
      </contour>
      <contour>
        <pt x="682" y="325" on="1"/>
        <pt x="682" y="374" on="0"/>
        <pt x="642" y="430" on="0"/>
        <pt x="600" y="430" on="1"/>
        <pt x="558" y="430" on="0"/>
        <pt x="505" y="374" on="0"/>
        <pt x="499" y="325" on="1"/>
      </contour>
      <contour>
        <pt x="266" y="102" on="0"/>
        <pt x="314" y="129" on="0"/>
        <pt x="346" y="157" on="0"/>
        <pt x="350" y="162" on="1"/>
        <pt x="350" y="227" on="1"/>
        <pt x="293" y="227" on="1"/>
        <pt x="235" y="227" on="0"/>
        <pt x="183" y="196" on="0"/>
        <pt x="183" y="162" on="1"/>
        <pt x="183" y="134" on="0"/>
        <pt x="215" y="102" on="0"/>
        <pt x="243" y="102" on="1"/>
      </contour>
    </TTGlyph>
    <TTGlyph name="aeacute" xMin="40" yMin="-10" xMax="836" yMax="851">
      <component glyphName="ae" x="0" y="0" flags="0x0"/>
      <component glyphName="acute" x="330" y="0" flags="0x0"/>
    </TTGlyph>
    <TTGlyph name="agrave" xMin="40" yMin="-10" xMax="576" yMax="849">
      <component glyphName="a" x="0" y="0" flags="0x0"/>
      <component glyphName="grave" x="87" y="0" flags="0x0"/>
    </TTGlyph>
    <TTGlyph name="amacron" xMin="40" yMin="-10" xMax="576" yMax="752">
      <component glyphName="a" x="0" y="0" flags="0x0"/>
      <component glyphName="macron" x="130" y="5" flags="0x4"/>
    </TTGlyph>
    <TTGlyph name="ampersand" xMin="55" yMin="-12" xMax="647" yMax="717">
      <contour>
        <pt x="181" y="-12" on="0"/>
        <pt x="55" y="96" on="0"/>
        <pt x="55" y="188" on="1"/>
        <pt x="55" y="257" on="0"/>
        <pt x="142" y="348" on="0"/>
        <pt x="182" y="368" on="1"/>
        <pt x="153" y="386" on="0"/>
        <pt x="114" y="417" on="0"/>
        <pt x="76" y="481" on="0"/>
        <pt x="76" y="526" on="1"/>
        <pt x="76" y="619" on="0"/>
        <pt x="211" y="717" on="0"/>
        <pt x="328" y="717" on="1"/>
        <pt x="380" y="717" on="0"/>
        <pt x="500" y="687" on="0"/>
        <pt x="525" y="675" on="1"/>
        <pt x="520" y="517" on="1"/>
        <pt x="426" y="517" on="1"/>
        <pt x="410" y="582" on="1"/>
        <pt x="407" y="583" on="0"/>
        <pt x="385" y="589" on="0"/>
        <pt x="345" y="595" on="0"/>
        <pt x="320" y="595" on="1"/>
        <pt x="274" y="595" on="0"/>
        <pt x="225" y="549" on="0"/>
        <pt x="225" y="516" on="1"/>
        <pt x="225" y="473" on="0"/>
        <pt x="292" y="425" on="0"/>
        <pt x="340" y="425" on="1"/>
        <pt x="647" y="425" on="1"/>
        <pt x="647" y="340" on="1"/>
        <pt x="577" y="317" on="1"/>
        <pt x="577" y="211" on="1"/>
        <pt x="577" y="107" on="0"/>
        <pt x="432" y="-12" on="0"/>
        <pt x="308" y="-12" on="1"/>
      </contour>
      <contour>
        <pt x="371" y="110" on="0"/>
        <pt x="432" y="170" on="0"/>
        <pt x="432" y="225" on="1"/>
        <pt x="432" y="317" on="1"/>
        <pt x="357" y="317" on="1"/>
        <pt x="292" y="317" on="0"/>
        <pt x="210" y="263" on="0"/>
        <pt x="210" y="209" on="1"/>
        <pt x="210" y="162" on="0"/>
        <pt x="268" y="110" on="0"/>
        <pt x="318" y="110" on="1"/>
      </contour>
    </TTGlyph>
    <TTGlyph name="aogonek" xMin="40" yMin="-235" xMax="576" yMax="550">
      <contour>
        <pt x="576" y="8" on="0"/>
        <pt x="510" y="-35" on="0"/>
        <pt x="457" y="-87" on="0"/>
        <pt x="457" y="-110" on="1"/>
        <pt x="457" y="-127" on="0"/>
        <pt x="478" y="-146" on="0"/>
        <pt x="495" y="-146" on="1"/>
        <pt x="505" y="-146" on="0"/>
        <pt x="534" y="-141" on="0"/>
        <pt x="538" y="-140" on="1"/>
        <pt x="555" y="-210" on="1"/>
        <pt x="551" y="-212" on="0"/>
        <pt x="522" y="-224" on="0"/>
        <pt x="476" y="-235" on="0"/>
        <pt x="452" y="-235" on="1"/>
        <pt x="405" y="-235" on="0"/>
        <pt x="342" y="-184" on="0"/>
        <pt x="342" y="-135" on="1"/>
        <pt x="342" y="-100" on="0"/>
        <pt x="381" y="-42" on="0"/>
        <pt x="429" y="-5" on="0"/>
        <pt x="445" y="2" on="1"/>
        <pt x="376" y="0" on="1"/>
        <pt x="358" y="65" on="1"/>
        <pt x="358" y="63" on="0"/>
        <pt x="306" y="23" on="0"/>
        <pt x="234" y="-10" on="0"/>
        <pt x="196" y="-10" on="1"/>
        <pt x="123" y="-10" on="0"/>
        <pt x="40" y="72" on="0"/>
        <pt x="40" y="147" on="1"/>
        <pt x="40" y="233" on="0"/>
        <pt x="163" y="312" on="0"/>
        <pt x="281" y="312" on="1"/>
        <pt x="351" y="312" on="1"/>
        <pt x="351" y="367" on="1"/>
        <pt x="351" y="440" on="0"/>
        <pt x="274" y="440" on="1"/>
        <pt x="251" y="440" on="0"/>
        <pt x="212" y="433" on="0"/>
        <pt x="189" y="426" on="0"/>
        <pt x="186" y="425" on="1"/>
        <pt x="171" y="362" on="1"/>
        <pt x="81" y="362" on="1"/>
        <pt x="74" y="510" on="1"/>
        <pt x="83" y="513" on="0"/>
        <pt x="152" y="532" on="0"/>
        <pt x="248" y="550" on="0"/>
        <pt x="291" y="550" on="1"/>
        <pt x="368" y="550" on="0"/>
        <pt x="459" y="511" on="0"/>
        <pt x="501" y="425" on="0"/>
        <pt x="501" y="352" on="1"/>
        <pt x="501" y="105" on="1"/>
        <pt x="576" y="87" on="1"/>
        <pt x="576" y="7" on="1"/>
      </contour>
      <contour>
        <pt x="185" y="133" on="0"/>
        <pt x="216" y="102" on="0"/>
        <pt x="244" y="102" on="1"/>
        <pt x="268" y="102" on="0"/>
        <pt x="315" y="128" on="0"/>
        <pt x="347" y="156" on="0"/>
        <pt x="351" y="160" on="1"/>
        <pt x="351" y="227" on="1"/>
        <pt x="294" y="227" on="1"/>
        <pt x="236" y="227" on="0"/>
        <pt x="185" y="196" on="0"/>
        <pt x="185" y="162" on="1"/>
      </contour>
    </TTGlyph>
    <TTGlyph name="approxequal" xMin="55" yMin="76" xMax="585" yMax="449">
      <contour>
        <pt x="55" y="334" on="0"/>
        <pt x="96" y="396" on="0"/>
        <pt x="168" y="449" on="0"/>
        <pt x="216" y="449" on="1"/>
        <pt x="245" y="449" on="0"/>
        <pt x="296" y="430" on="0"/>
        <pt x="328" y="413" on="1"/>
        <pt x="360" y="396" on="0"/>
        <pt x="400" y="381" on="0"/>
        <pt x="423" y="381" on="1"/>
        <pt x="448" y="381" on="0"/>
        <pt x="491" y="405" on="0"/>
        <pt x="520" y="434" on="0"/>
        <pt x="520" y="436" on="1"/>
        <pt x="585" y="392" on="1"/>
        <pt x="585" y="388" on="0"/>
        <pt x="542" y="325" on="0"/>
        <pt x="471" y="271" on="0"/>
        <pt x="427" y="271" on="1"/>
        <pt x="398" y="271" on="0"/>
        <pt x="344" y="290" on="0"/>
        <pt x="311" y="307" on="1"/>
        <pt x="275" y="324" on="0"/>
        <pt x="233" y="339" on="0"/>
        <pt x="210" y="339" on="1"/>
        <pt x="186" y="339" on="0"/>
        <pt x="145" y="315" on="0"/>
        <pt x="118" y="288" on="0"/>
        <pt x="118" y="286" on="1"/>
        <pt x="55" y="330" on="1"/>
      </contour>
      <contour>
        <pt x="55" y="139" on="0"/>
        <pt x="96" y="201" on="0"/>
        <pt x="168" y="254" on="0"/>
        <pt x="216" y="254" on="1"/>
        <pt x="246" y="254" on="0"/>
        <pt x="296" y="235" on="0"/>
        <pt x="328" y="218" on="1"/>
        <pt x="360" y="201" on="0"/>
        <pt x="400" y="186" on="0"/>
        <pt x="423" y="186" on="1"/>
        <pt x="448" y="186" on="0"/>
        <pt x="491" y="210" on="0"/>
        <pt x="520" y="239" on="0"/>
        <pt x="520" y="241" on="1"/>
        <pt x="585" y="197" on="1"/>
        <pt x="585" y="193" on="0"/>
        <pt x="542" y="130" on="0"/>
        <pt x="471" y="76" on="0"/>
        <pt x="427" y="76" on="1"/>
        <pt x="398" y="76" on="0"/>
        <pt x="344" y="95" on="0"/>
        <pt x="311" y="112" on="1"/>
        <pt x="275" y="129" on="0"/>
        <pt x="233" y="144" on="0"/>
        <pt x="210" y="144" on="1"/>
        <pt x="186" y="144" on="0"/>
        <pt x="145" y="120" on="0"/>
        <pt x="118" y="93" on="0"/>
        <pt x="118" y="91" on="1"/>
        <pt x="55" y="135" on="1"/>
      </contour>
    </TTGlyph>
    <TTGlyph name="aring" xMin="40" yMin="-10" xMax="576" yMax="857">
      <component glyphName="a" x="0" y="0" flags="0x0"/>
      <component glyphName="ring" x="90" y="0" flags="0x0"/>
    </TTGlyph>
    <TTGlyph name="aringacute" xMin="0" yMin="-10" xMax="576" yMax="842">
      <contour>
        <pt x="152" y="749" on="0"/>
        <pt x="190" y="810" on="0"/>
        <pt x="252" y="842" on="0"/>
        <pt x="286" y="842" on="1"/>
        <pt x="320" y="842" on="0"/>
        <pt x="381" y="812" on="0"/>
        <pt x="419" y="755" on="0"/>
        <pt x="419" y="715" on="1"/>
        <pt x="419" y="675" on="0"/>
        <pt x="381" y="615" on="0"/>
        <pt x="319" y="582" on="0"/>
        <pt x="286" y="582" on="1"/>
        <pt x="252" y="582" on="0"/>
        <pt x="190" y="612" on="0"/>
        <pt x="152" y="669" on="0"/>
        <pt x="152" y="709" on="1"/>
      </contour>
      <contour>
        <pt x="237" y="684" on="0"/>
        <pt x="262" y="655" on="0"/>
        <pt x="286" y="655" on="1"/>
        <pt x="307" y="655" on="0"/>
        <pt x="334" y="685" on="0"/>
        <pt x="334" y="713" on="1"/>
        <pt x="334" y="741" on="0"/>
        <pt x="309" y="770" on="0"/>
        <pt x="286" y="770" on="1"/>
        <pt x="264" y="770" on="0"/>
        <pt x="237" y="740" on="0"/>
        <pt x="237" y="712" on="1"/>
      </contour>
      <contour>
        <pt x="123" y="-10" on="0"/>
        <pt x="40" y="72" on="0"/>
        <pt x="40" y="147" on="1"/>
        <pt x="40" y="233" on="0"/>
        <pt x="163" y="312" on="0"/>
        <pt x="281" y="312" on="1"/>
        <pt x="351" y="312" on="1"/>
        <pt x="351" y="367" on="1"/>
        <pt x="351" y="440" on="0"/>
        <pt x="274" y="440" on="1"/>
        <pt x="251" y="440" on="0"/>
        <pt x="212" y="433" on="0"/>
        <pt x="189" y="426" on="0"/>
        <pt x="186" y="425" on="1"/>
        <pt x="171" y="362" on="1"/>
        <pt x="81" y="362" on="1"/>
        <pt x="74" y="510" on="1"/>
        <pt x="83" y="513" on="0"/>
        <pt x="152" y="532" on="0"/>
        <pt x="248" y="550" on="0"/>
        <pt x="291" y="550" on="1"/>
        <pt x="368" y="550" on="0"/>
        <pt x="459" y="511" on="0"/>
        <pt x="501" y="425" on="0"/>
        <pt x="501" y="352" on="1"/>
        <pt x="501" y="105" on="1"/>
        <pt x="576" y="87" on="1"/>
        <pt x="576" y="7" on="1"/>
        <pt x="376" y="0" on="1"/>
        <pt x="358" y="65" on="1"/>
        <pt x="358" y="63" on="0"/>
        <pt x="306" y="23" on="0"/>
        <pt x="234" y="-10" on="0"/>
        <pt x="196" y="-10" on="1"/>
      </contour>
      <contour>
        <pt x="268" y="102" on="0"/>
        <pt x="315" y="128" on="0"/>
        <pt x="347" y="156" on="0"/>
        <pt x="351" y="160" on="1"/>
        <pt x="351" y="227" on="1"/>
        <pt x="294" y="227" on="1"/>
        <pt x="236" y="227" on="0"/>
        <pt x="185" y="196" on="0"/>
        <pt x="185" y="162" on="1"/>
        <pt x="185" y="133" on="0"/>
        <pt x="216" y="102" on="0"/>
        <pt x="244" y="102" on="1"/>
      </contour>
      <contour>
        <pt x="5" y="60" on="1"/>
        <pt x="0" y="67" on="1"/>
        <pt x="22" y="85" on="1"/>
        <pt x="29" y="75" on="1"/>
      </contour>
    </TTGlyph>
    <TTGlyph name="arrowboth" xMin="61" yMin="70" xMax="730" yMax="543">
      <contour>
        <pt x="533" y="70" on="1"/>
        <pt x="465" y="138" on="1"/>
        <pt x="559" y="257" on="1"/>
        <pt x="231" y="257" on="1"/>
        <pt x="327" y="140" on="1"/>
        <pt x="261" y="71" on="1"/>
        <pt x="61" y="277" on="1"/>
        <pt x="61" y="335" on="1"/>
        <pt x="258" y="543" on="1"/>
        <pt x="326" y="475" on="1"/>
        <pt x="232" y="355" on="1"/>
        <pt x="560" y="356" on="1"/>
        <pt x="464" y="473" on="1"/>
        <pt x="530" y="542" on="1"/>
        <pt x="730" y="336" on="1"/>
        <pt x="730" y="278" on="1"/>
      </contour>
    </TTGlyph>
    <TTGlyph name="arrowdown" xMin="34" yMin="-13" xMax="588" yMax="571">
      <contour>
        <pt x="370" y="571" on="1"/>
        <pt x="370" y="174" on="1"/>
        <pt x="520" y="303" on="1"/>
        <pt x="588" y="221" on="1"/>
        <pt x="341" y="-13" on="1"/>
        <pt x="283" y="-13" on="1"/>
        <pt x="34" y="219" on="1"/>
        <pt x="109" y="300" on="1"/>
        <pt x="250" y="175" on="1"/>
        <pt x="250" y="571" on="1"/>
      </contour>
    </TTGlyph>
    <TTGlyph name="arrowleft" xMin="48" yMin="40" xMax="677" yMax="594">
      <contour>
        <pt x="677" y="258" on="1"/>
        <pt x="235" y="258" on="1"/>
        <pt x="364" y="108" on="1"/>
        <pt x="282" y="40" on="1"/>
        <pt x="48" y="287" on="1"/>
        <pt x="48" y="345" on="1"/>
        <pt x="280" y="594" on="1"/>
        <pt x="361" y="519" on="1"/>
        <pt x="236" y="378" on="1"/>
        <pt x="677" y="378" on="1"/>
      </contour>
    </TTGlyph>
    <TTGlyph name="arrowright" xMin="0" yMin="40" xMax="629" yMax="594">
      <contour>
        <pt x="0" y="378" on="1"/>
        <pt x="441" y="378" on="1"/>
        <pt x="316" y="519" on="1"/>
        <pt x="397" y="594" on="1"/>
        <pt x="629" y="345" on="1"/>
        <pt x="629" y="287" on="1"/>
        <pt x="395" y="40" on="1"/>
        <pt x="313" y="108" on="1"/>
        <pt x="442" y="258" on="1"/>
        <pt x="0" y="258" on="1"/>
      </contour>
    </TTGlyph>
    <TTGlyph name="arrowup" xMin="34" yMin="0" xMax="588" yMax="584">
      <contour>
        <pt x="252" y="0" on="1"/>
        <pt x="252" y="397" on="1"/>
        <pt x="102" y="268" on="1"/>
        <pt x="34" y="350" on="1"/>
        <pt x="281" y="584" on="1"/>
        <pt x="339" y="584" on="1"/>
        <pt x="588" y="352" on="1"/>
        <pt x="513" y="271" on="1"/>
        <pt x="372" y="396" on="1"/>
        <pt x="372" y="0" on="1"/>
      </contour>
    </TTGlyph>
    <TTGlyph name="arrowupdn" xMin="19" yMin="-28" xMax="492" yMax="641">
      <contour>
        <pt x="227" y="-28" on="1"/>
        <pt x="19" y="169" on="1"/>
        <pt x="87" y="239" on="1"/>
        <pt x="202" y="143" on="1"/>
        <pt x="202" y="471" on="1"/>
        <pt x="89" y="373" on="1"/>
        <pt x="20" y="441" on="1"/>
        <pt x="226" y="641" on="1"/>
        <pt x="284" y="641" on="1"/>
        <pt x="492" y="444" on="1"/>
        <pt x="424" y="374" on="1"/>
        <pt x="309" y="470" on="1"/>
        <pt x="309" y="142" on="1"/>
        <pt x="422" y="240" on="1"/>
        <pt x="491" y="172" on="1"/>
        <pt x="285" y="-28" on="1"/>
      </contour>
    </TTGlyph>
    <TTGlyph name="arrowupdnbse" xMin="88" yMin="-185" xMax="565" yMax="641">
      <contour>
        <pt x="296" y="-28" on="1"/>
        <pt x="88" y="169" on="1"/>
        <pt x="156" y="239" on="1"/>
        <pt x="271" y="141" on="1"/>
        <pt x="271" y="471" on="1"/>
        <pt x="158" y="373" on="1"/>
        <pt x="89" y="441" on="1"/>
        <pt x="295" y="641" on="1"/>
        <pt x="353" y="641" on="1"/>
        <pt x="561" y="444" on="1"/>
        <pt x="493" y="374" on="1"/>
        <pt x="378" y="470" on="1"/>
        <pt x="378" y="140" on="1"/>
        <pt x="491" y="240" on="1"/>
        <pt x="560" y="172" on="1"/>
        <pt x="354" y="-28" on="1"/>
      </contour>
      <contour>
        <pt x="95" y="-185" on="1"/>
        <pt x="95" y="-85" on="1"/>
        <pt x="565" y="-85" on="1"/>
        <pt x="565" y="-185" on="1"/>
      </contour>
    </TTGlyph>
    <TTGlyph name="asciicircum" xMin="50" yMin="320" xMax="545" yMax="705">
      <contour>
        <pt x="175" y="320" on="1"/>
        <pt x="50" y="320" on="1"/>
        <pt x="242" y="705" on="1"/>
        <pt x="352" y="705" on="1"/>
        <pt x="545" y="320" on="1"/>
        <pt x="416" y="320" on="1"/>
        <pt x="295" y="565" on="1"/>
      </contour>
    </TTGlyph>
    <TTGlyph name="asciitilde" xMin="43" yMin="196" xMax="573" yMax="378">
      <contour>
        <pt x="43" y="264" on="0"/>
        <pt x="84" y="326" on="0"/>
        <pt x="156" y="378" on="0"/>
        <pt x="204" y="378" on="1"/>
        <pt x="233" y="378" on="0"/>
        <pt x="284" y="359" on="0"/>
        <pt x="316" y="342" on="1"/>
        <pt x="347" y="326" on="0"/>
        <pt x="388" y="311" on="0"/>
        <pt x="411" y="311" on="1"/>
        <pt x="435" y="311" on="0"/>
        <pt x="478" y="335" on="0"/>
        <pt x="507" y="364" on="0"/>
        <pt x="507" y="366" on="1"/>
        <pt x="573" y="316" on="1"/>
        <pt x="573" y="312" on="0"/>
        <pt x="530" y="249" on="0"/>
        <pt x="459" y="196" on="0"/>
        <pt x="415" y="196" on="1"/>
        <pt x="386" y="196" on="0"/>
        <pt x="334" y="214" on="0"/>
        <pt x="299" y="231" on="1"/>
        <pt x="263" y="248" on="0"/>
        <pt x="221" y="263" on="0"/>
        <pt x="198" y="263" on="1"/>
        <pt x="174" y="263" on="0"/>
        <pt x="133" y="239" on="0"/>
        <pt x="105" y="210" on="0"/>
        <pt x="105" y="209" on="1"/>
        <pt x="43" y="260" on="1"/>
      </contour>
    </TTGlyph>
    <TTGlyph name="asterisk" xMin="25" yMin="400" xMax="382" yMax="738">
      <contour>
        <pt x="240" y="616" on="1"/>
        <pt x="204" y="587" on="1"/>
        <pt x="170" y="617" on="1"/>
        <pt x="156" y="736" on="1"/>
        <pt x="249" y="738" on="1"/>
      </contour>
      <contour>
        <pt x="260" y="550" on="1"/>
        <pt x="223" y="576" on="1"/>
        <pt x="240" y="616" on="1"/>
        <pt x="351" y="665" on="1"/>
        <pt x="382" y="575" on="1"/>
      </contour>
      <contour>
        <pt x="170" y="617" on="1"/>
        <pt x="188" y="574" on="1"/>
        <pt x="149" y="552" on="1"/>
        <pt x="25" y="573" on="1"/>
        <pt x="55" y="662" on="1"/>
      </contour>
      <contour>
        <pt x="149" y="552" on="1"/>
        <pt x="194" y="555" on="1"/>
        <pt x="204" y="511" on="1"/>
        <pt x="144" y="400" on="1"/>
        <pt x="67" y="454" on="1"/>
      </contour>
      <contour>
        <pt x="215" y="555" on="1"/>
        <pt x="260" y="550" on="1"/>
        <pt x="342" y="455" on="1"/>
        <pt x="269" y="400" on="1"/>
        <pt x="204" y="511" on="1"/>
      </contour>
    </TTGlyph>
    <TTGlyph name="asterisk.alt" xMin="25" yMin="408" xMax="387" yMax="745">
      <contour>
        <pt x="240" y="633" on="1"/>
        <pt x="209" y="593" on="1"/>
        <pt x="172" y="633" on="1"/>
        <pt x="154" y="745" on="1"/>
        <pt x="258" y="744" on="1"/>
      </contour>
      <contour>
        <pt x="172" y="633" on="1"/>
        <pt x="191" y="582" on="1"/>
        <pt x="137" y="576" on="1"/>
        <pt x="27" y="618" on="1"/>
        <pt x="77" y="708" on="1"/>
      </contour>
      <contour>
        <pt x="277" y="575" on="1"/>
        <pt x="224" y="583" on="1"/>
        <pt x="240" y="633" on="1"/>
        <pt x="335" y="708" on="1"/>
        <pt x="387" y="621" on="1"/>
      </contour>
      <contour>
        <pt x="137" y="576" on="1"/>
        <pt x="190" y="567" on="1"/>
        <pt x="172" y="518" on="1"/>
        <pt x="77" y="442" on="1"/>
        <pt x="25" y="530" on="1"/>
      </contour>
      <contour>
        <pt x="225" y="565" on="1"/>
        <pt x="277" y="575" on="1"/>
        <pt x="387" y="529" on="1"/>
        <pt x="337" y="441" on="1"/>
        <pt x="239" y="518" on="1"/>
      </contour>
      <contour>
        <pt x="172" y="518" on="1"/>
        <pt x="208" y="557" on="1"/>
        <pt x="239" y="518" on="1"/>
        <pt x="258" y="408" on="1"/>
        <pt x="154" y="408" on="1"/>
      </contour>
    </TTGlyph>
    <TTGlyph name="at" xMin="47" yMin="-15" xMax="780" yMax="717">
      <contour>
        <pt x="222" y="-15" on="0"/>
        <pt x="47" y="170" on="0"/>
        <pt x="47" y="345" on="1"/>
        <pt x="47" y="459" on="0"/>
        <pt x="139" y="627" on="0"/>
        <pt x="308" y="717" on="0"/>
        <pt x="421" y="717" on="1"/>
        <pt x="531" y="717" on="0"/>
        <pt x="693" y="636" on="0"/>
        <pt x="780" y="478" on="0"/>
        <pt x="780" y="366" on="1"/>
        <pt x="780" y="297" on="0"/>
        <pt x="731" y="198" on="0"/>
        <pt x="647" y="147" on="0"/>
        <pt x="593" y="147" on="1"/>
        <pt x="544" y="147" on="0"/>
        <pt x="486" y="186" on="0"/>
        <pt x="473" y="209" on="1"/>
        <pt x="473" y="207" on="0"/>
        <pt x="437" y="177" on="0"/>
        <pt x="385" y="151" on="0"/>
        <pt x="355" y="151" on="1"/>
        <pt x="302" y="151" on="0"/>
        <pt x="242" y="213" on="0"/>
        <pt x="242" y="266" on="1"/>
        <pt x="242" y="385" on="0"/>
        <pt x="410" y="385" on="1"/>
        <pt x="456" y="385" on="1"/>
        <pt x="456" y="419" on="1"/>
        <pt x="456" y="443" on="0"/>
        <pt x="428" y="466" on="0"/>
        <pt x="398" y="466" on="1"/>
        <pt x="370" y="466" on="0"/>
        <pt x="290" y="450" on="0"/>
        <pt x="290" y="449" on="1"/>
        <pt x="271" y="523" on="1"/>
        <pt x="277" y="525" on="0"/>
        <pt x="323" y="540" on="0"/>
        <pt x="390" y="553" on="0"/>
        <pt x="422" y="553" on="1"/>
        <pt x="499" y="553" on="0"/>
        <pt x="569" y="493" on="0"/>
        <pt x="569" y="427" on="1"/>
        <pt x="569" y="261" on="1"/>
        <pt x="569" y="245" on="0"/>
        <pt x="588" y="226" on="0"/>
        <pt x="604" y="226" on="1"/>
        <pt x="635" y="226" on="0"/>
        <pt x="670" y="295" on="0"/>
        <pt x="670" y="361" on="1"/>
        <pt x="670" y="483" on="0"/>
        <pt x="539" y="620" on="0"/>
        <pt x="416" y="620" on="1"/>
        <pt x="292" y="620" on="0"/>
        <pt x="157" y="479" on="0"/>
        <pt x="157" y="350" on="1"/>
        <pt x="157" y="220" on="0"/>
        <pt x="274" y="82" on="0"/>
        <pt x="393" y="82" on="1"/>
        <pt x="423" y="82" on="0"/>
        <pt x="479" y="93" on="0"/>
        <pt x="514" y="105" on="0"/>
        <pt x="518" y="107" on="1"/>
        <pt x="559" y="25" on="1"/>
        <pt x="559" y="24" on="0"/>
        <pt x="510" y="3" on="0"/>
        <pt x="433" y="-15" on="0"/>
        <pt x="386" y="-15" on="1"/>
      </contour>
      <contour>
        <pt x="409" y="238" on="0"/>
        <pt x="445" y="261" on="0"/>
        <pt x="456" y="272" on="1"/>
        <pt x="456" y="319" on="1"/>
        <pt x="417" y="319" on="1"/>
        <pt x="380" y="319" on="0"/>
        <pt x="347" y="298" on="0"/>
        <pt x="347" y="275" on="1"/>
        <pt x="347" y="258" on="0"/>
        <pt x="369" y="238" on="0"/>
        <pt x="388" y="238" on="1"/>
      </contour>
    </TTGlyph>
    <TTGlyph name="atilde" xMin="40" yMin="-10" xMax="576" yMax="786">
      <component glyphName="a" x="0" y="0" flags="0x0"/>
      <component glyphName="tilde" x="-11" y="0" flags="0x0"/>
    </TTGlyph>
    <TTGlyph name="b" xMin="10" yMin="-12" xMax="583" yMax="775">
      <contour>
        <pt x="244" y="-12" on="0"/>
        <pt x="152" y="-2" on="0"/>
        <pt x="93" y="8" on="0"/>
        <pt x="85" y="10" on="1"/>
        <pt x="85" y="667" on="1"/>
        <pt x="10" y="687" on="1"/>
        <pt x="10" y="767" on="1"/>
        <pt x="235" y="775" on="1"/>
        <pt x="235" y="497" on="1"/>
        <pt x="262" y="518" on="0"/>
        <pt x="329" y="550" on="0"/>
        <pt x="378" y="550" on="1"/>
        <pt x="478" y="550" on="0"/>
        <pt x="583" y="412" on="0"/>
        <pt x="583" y="285" on="1"/>
        <pt x="583" y="142" on="0"/>
        <pt x="435" y="-12" on="0"/>
        <pt x="293" y="-12" on="1"/>
      </contour>
      <contour>
        <pt x="428" y="108" on="0"/>
        <pt x="428" y="275" on="1"/>
        <pt x="428" y="352" on="0"/>
        <pt x="381" y="430" on="0"/>
        <pt x="330" y="430" on="1"/>
        <pt x="303" y="430" on="0"/>
        <pt x="261" y="410" on="0"/>
        <pt x="235" y="386" on="0"/>
        <pt x="235" y="385" on="1"/>
        <pt x="235" y="116" on="1"/>
        <pt x="235" y="115" on="0"/>
        <pt x="277" y="108" on="0"/>
        <pt x="309" y="108" on="1"/>
      </contour>
    </TTGlyph>
    <TTGlyph name="backslash" xMin="7" yMin="0" xMax="493" yMax="705">
      <contour>
        <pt x="493" y="0" on="1"/>
        <pt x="341" y="0" on="1"/>
        <pt x="7" y="705" on="1"/>
        <pt x="160" y="705" on="1"/>
      </contour>
    </TTGlyph>
    <TTGlyph name="bar" xMin="80" yMin="-230" xMax="198" yMax="755">
      <contour>
        <pt x="80" y="-230" on="1"/>
        <pt x="80" y="755" on="1"/>
        <pt x="198" y="755" on="1"/>
        <pt x="198" y="-230" on="1"/>
      </contour>
    </TTGlyph>
    <TTGlyph name="braceleft" xMin="30" yMin="-225" xMax="374" yMax="775">
      <contour>
        <pt x="240" y="-225" on="0"/>
        <pt x="160" y="-182" on="0"/>
        <pt x="125" y="-90" on="0"/>
        <pt x="125" y="-13" on="1"/>
        <pt x="125" y="141" on="1"/>
        <pt x="125" y="191" on="0"/>
        <pt x="83" y="245" on="0"/>
        <pt x="30" y="245" on="1"/>
        <pt x="30" y="345" on="1"/>
        <pt x="83" y="345" on="0"/>
        <pt x="125" y="399" on="0"/>
        <pt x="125" y="449" on="1"/>
        <pt x="125" y="590" on="1"/>
        <pt x="125" y="687" on="0"/>
        <pt x="215" y="775" on="0"/>
        <pt x="307" y="775" on="1"/>
        <pt x="374" y="775" on="1"/>
        <pt x="374" y="672" on="1"/>
        <pt x="325" y="672" on="0"/>
        <pt x="274" y="654" on="0"/>
        <pt x="253" y="611" on="0"/>
        <pt x="253" y="570" on="1"/>
        <pt x="253" y="465" on="1"/>
        <pt x="253" y="396" on="0"/>
        <pt x="212" y="314" on="0"/>
        <pt x="161" y="295" on="1"/>
        <pt x="253" y="259" on="0"/>
        <pt x="253" y="153" on="1"/>
        <pt x="253" y="-20" on="1"/>
        <pt x="253" y="-61" on="0"/>
        <pt x="274" y="-104" on="0"/>
        <pt x="325" y="-122" on="0"/>
        <pt x="374" y="-122" on="1"/>
        <pt x="374" y="-225" on="1"/>
        <pt x="307" y="-225" on="1"/>
      </contour>
    </TTGlyph>
    <TTGlyph name="braceright" xMin="40" yMin="-225" xMax="384" yMax="775">
      <contour>
        <pt x="40" y="-122" on="1"/>
        <pt x="89" y="-122" on="0"/>
        <pt x="139" y="-104" on="0"/>
        <pt x="160" y="-61" on="0"/>
        <pt x="160" y="-20" on="1"/>
        <pt x="160" y="153" on="1"/>
        <pt x="160" y="206" on="0"/>
        <pt x="208" y="277" on="0"/>
        <pt x="253" y="295" on="1"/>
        <pt x="160" y="331" on="0"/>
        <pt x="160" y="436" on="1"/>
        <pt x="160" y="570" on="1"/>
        <pt x="160" y="611" on="0"/>
        <pt x="139" y="654" on="0"/>
        <pt x="89" y="672" on="0"/>
        <pt x="40" y="672" on="1"/>
        <pt x="40" y="775" on="1"/>
        <pt x="107" y="775" on="1"/>
        <pt x="200" y="775" on="0"/>
        <pt x="289" y="686" on="0"/>
        <pt x="289" y="590" on="1"/>
        <pt x="289" y="449" on="1"/>
        <pt x="289" y="399" on="0"/>
        <pt x="331" y="345" on="0"/>
        <pt x="384" y="345" on="1"/>
        <pt x="384" y="245" on="1"/>
        <pt x="331" y="245" on="0"/>
        <pt x="289" y="191" on="0"/>
        <pt x="289" y="141" on="1"/>
        <pt x="289" y="-13" on="1"/>
        <pt x="289" y="-127" on="0"/>
        <pt x="205" y="-225" on="0"/>
        <pt x="106" y="-225" on="1"/>
        <pt x="40" y="-225" on="1"/>
      </contour>
    </TTGlyph>
    <TTGlyph name="bracketleft" xMin="67" yMin="-230" xMax="317" yMax="770">
      <contour>
        <pt x="317" y="-225" on="1"/>
        <pt x="67" y="-230" on="1"/>
        <pt x="67" y="770" on="1"/>
        <pt x="317" y="765" on="1"/>
        <pt x="317" y="662" on="1"/>
        <pt x="198" y="651" on="1"/>
        <pt x="198" y="-112" on="1"/>
        <pt x="317" y="-123" on="1"/>
      </contour>
    </TTGlyph>
    <TTGlyph name="bracketright" xMin="32" yMin="-230" xMax="282" yMax="770">
      <contour>
        <pt x="282" y="-230" on="1"/>
        <pt x="32" y="-225" on="1"/>
        <pt x="32" y="-122" on="1"/>
        <pt x="152" y="-111" on="1"/>
        <pt x="152" y="651" on="1"/>
        <pt x="32" y="662" on="1"/>
        <pt x="32" y="765" on="1"/>
        <pt x="282" y="770" on="1"/>
      </contour>
    </TTGlyph>
    <TTGlyph name="breve" xMin="56" yMin="596" xMax="383" yMax="774">
      <contour>
        <pt x="172" y="596" on="0"/>
        <pt x="100" y="634" on="0"/>
        <pt x="56" y="711" on="0"/>
        <pt x="56" y="765" on="1"/>
        <pt x="143" y="774" on="1"/>
        <pt x="151" y="737" on="0"/>
        <pt x="194" y="700" on="0"/>
        <pt x="221" y="700" on="1"/>
        <pt x="249" y="700" on="0"/>
        <pt x="292" y="734" on="0"/>
        <pt x="296" y="765" on="1"/>
        <pt x="383" y="772" on="1"/>
        <pt x="382" y="716" on="0"/>
        <pt x="334" y="637" on="0"/>
        <pt x="257" y="596" on="0"/>
        <pt x="214" y="596" on="1"/>
      </contour>
    </TTGlyph>
    <TTGlyph name="brokenbar" xMin="87" yMin="-265" xMax="205" yMax="765">
      <contour>
        <pt x="87" y="365" on="1"/>
        <pt x="87" y="765" on="1"/>
        <pt x="205" y="765" on="1"/>
        <pt x="205" y="365" on="1"/>
      </contour>
      <contour>
        <pt x="87" y="-265" on="1"/>
        <pt x="87" y="145" on="1"/>
        <pt x="205" y="145" on="1"/>
        <pt x="205" y="-265" on="1"/>
      </contour>
    </TTGlyph>
    <TTGlyph name="bullet" xMin="80" yMin="126" xMax="458" yMax="504">
      <contour>
        <pt x="80" y="366" on="0"/>
        <pt x="131" y="453" on="0"/>
        <pt x="218" y="504" on="0"/>
        <pt x="269" y="504" on="1"/>
        <pt x="320" y="504" on="0"/>
        <pt x="407" y="453" on="0"/>
        <pt x="458" y="366" on="0"/>
        <pt x="458" y="315" on="1"/>
        <pt x="458" y="264" on="0"/>
        <pt x="407" y="177" on="0"/>
        <pt x="320" y="126" on="0"/>
        <pt x="269" y="126" on="1"/>
        <pt x="218" y="126" on="0"/>
        <pt x="131" y="177" on="0"/>
        <pt x="80" y="264" on="0"/>
        <pt x="80" y="315" on="1"/>
      </contour>
    </TTGlyph>
    <TTGlyph name="c" xMin="35" yMin="-10" xMax="510" yMax="550">
      <contour>
        <pt x="172" y="-10" on="0"/>
        <pt x="35" y="134" on="0"/>
        <pt x="35" y="262" on="1"/>
        <pt x="35" y="396" on="0"/>
        <pt x="180" y="550" on="0"/>
        <pt x="310" y="550" on="1"/>
        <pt x="348" y="550" on="0"/>
        <pt x="426" y="534" on="0"/>
        <pt x="478" y="518" on="0"/>
        <pt x="485" y="515" on="1"/>
        <pt x="480" y="351" on="1"/>
        <pt x="390" y="351" on="1"/>
        <pt x="376" y="422" on="1"/>
        <pt x="371" y="423" on="0"/>
        <pt x="332" y="430" on="0"/>
        <pt x="307" y="430" on="1"/>
        <pt x="252" y="430" on="0"/>
        <pt x="190" y="355" on="0"/>
        <pt x="190" y="282" on="1"/>
        <pt x="190" y="199" on="0"/>
        <pt x="253" y="110" on="0"/>
        <pt x="315" y="110" on="1"/>
        <pt x="354" y="110" on="0"/>
        <pt x="413" y="134" on="0"/>
        <pt x="453" y="159" on="0"/>
        <pt x="460" y="163" on="1"/>
        <pt x="510" y="75" on="1"/>
        <pt x="476" y="45" on="0"/>
        <pt x="367" y="-10" on="0"/>
        <pt x="295" y="-10" on="1"/>
      </contour>
    </TTGlyph>
    <TTGlyph name="cacute" xMin="35" yMin="-10" xMax="510" yMax="851">
      <component glyphName="c" x="0" y="0" flags="0x0"/>
      <component glyphName="acute" x="185" y="0" flags="0x0"/>
    </TTGlyph>
    <TTGlyph name="caron" xMin="-15" yMin="605" xMax="398" yMax="824">
      <contour>
        <pt x="152" y="605" on="1"/>
        <pt x="-15" y="766" on="1"/>
        <pt x="39" y="823" on="1"/>
        <pt x="195" y="706" on="1"/>
        <pt x="350" y="824" on="1"/>
        <pt x="398" y="766" on="1"/>
        <pt x="241" y="610" on="1"/>
      </contour>
    </TTGlyph>
    <TTGlyph name="caron.Cup" xMin="0" yMin="750" xMax="385" yMax="957">
      <contour>
        <pt x="153" y="750" on="1"/>
        <pt x="0" y="897" on="1"/>
        <pt x="55" y="957" on="1"/>
        <pt x="196" y="851" on="1"/>
        <pt x="335" y="957" on="1"/>
        <pt x="385" y="897" on="1"/>
        <pt x="242" y="757" on="1"/>
      </contour>
    </TTGlyph>
    <TTGlyph name="caron.x" xMin="0" yMin="510" xMax="166" yMax="780">
      <contour>
        <pt x="18" y="600" on="0"/>
        <pt x="33" y="697" on="0"/>
        <pt x="33" y="744" on="1"/>
        <pt x="32" y="775" on="1"/>
        <pt x="166" y="780" on="1"/>
        <pt x="165" y="727" on="0"/>
        <pt x="120" y="594" on="0"/>
        <pt x="78" y="510" on="1"/>
        <pt x="0" y="538" on="1"/>
      </contour>
    </TTGlyph>
    <TTGlyph name="ccaron" xMin="35" yMin="-10" xMax="510" yMax="824">
      <component glyphName="c" x="0" y="0" flags="0x0"/>
      <component glyphName="caron" x="100" y="0" flags="0x0"/>
    </TTGlyph>
    <TTGlyph name="ccedilla" xMin="35" yMin="-229" xMax="510" yMax="550">
      <contour>
        <pt x="270" y="-229" on="0"/>
        <pt x="215" y="-215" on="0"/>
        <pt x="180" y="-200" on="0"/>
        <pt x="176" y="-197" on="1"/>
        <pt x="207" y="-142" on="1"/>
        <pt x="210" y="-144" on="0"/>
        <pt x="235" y="-154" on="0"/>
        <pt x="271" y="-163" on="0"/>
        <pt x="289" y="-163" on="1"/>
        <pt x="311" y="-163" on="0"/>
        <pt x="336" y="-143" on="0"/>
        <pt x="336" y="-126" on="1"/>
        <pt x="336" y="-105" on="0"/>
        <pt x="291" y="-82" on="0"/>
        <pt x="253" y="-82" on="1"/>
        <pt x="253" y="-7" on="1"/>
        <pt x="149" y="4" on="0"/>
        <pt x="35" y="145" on="0"/>
        <pt x="35" y="262" on="1"/>
        <pt x="35" y="396" on="0"/>
        <pt x="180" y="550" on="0"/>
        <pt x="310" y="550" on="1"/>
        <pt x="348" y="550" on="0"/>
        <pt x="426" y="534" on="0"/>
        <pt x="478" y="518" on="0"/>
        <pt x="485" y="515" on="1"/>
        <pt x="480" y="352" on="1"/>
        <pt x="390" y="352" on="1"/>
        <pt x="376" y="422" on="1"/>
        <pt x="371" y="423" on="0"/>
        <pt x="332" y="430" on="0"/>
        <pt x="307" y="430" on="1"/>
        <pt x="252" y="430" on="0"/>
        <pt x="190" y="356" on="0"/>
        <pt x="190" y="282" on="1"/>
        <pt x="190" y="199" on="0"/>
        <pt x="253" y="110" on="0"/>
        <pt x="315" y="110" on="1"/>
        <pt x="354" y="110" on="0"/>
        <pt x="413" y="134" on="0"/>
        <pt x="453" y="159" on="0"/>
        <pt x="460" y="163" on="1"/>
        <pt x="510" y="75" on="1"/>
        <pt x="431" y="7" on="0"/>
        <pt x="339" y="-6" on="1"/>
        <pt x="339" y="-40" on="1"/>
        <pt x="378" y="-48" on="0"/>
        <pt x="425" y="-95" on="0"/>
        <pt x="425" y="-130" on="1"/>
        <pt x="425" y="-173" on="0"/>
        <pt x="353" y="-229" on="0"/>
        <pt x="300" y="-229" on="1"/>
      </contour>
    </TTGlyph>
    <TTGlyph name="ccircumflex" xMin="35" yMin="-10" xMax="510" yMax="825">
      <component glyphName="c" x="0" y="0" flags="0x0"/>
      <component glyphName="circumflex.x" x="10" y="-15" flags="0x4"/>
    </TTGlyph>
    <TTGlyph name="cdotaccent" xMin="35" yMin="-10" xMax="510" yMax="776">
      <component glyphName="c" x="0" y="0" flags="0x0"/>
      <component glyphName="dotaccent" x="148" y="-149" flags="0x4"/>
    </TTGlyph>
    <TTGlyph name="cedilla" xMin="95" yMin="-233" xMax="343" yMax="0">
      <contour>
        <pt x="187" y="-233" on="0"/>
        <pt x="133" y="-219" on="0"/>
        <pt x="99" y="-204" on="0"/>
        <pt x="95" y="-201" on="1"/>
        <pt x="126" y="-146" on="1"/>
        <pt x="129" y="-148" on="0"/>
        <pt x="152" y="-158" on="0"/>
        <pt x="187" y="-167" on="0"/>
        <pt x="204" y="-167" on="1"/>
        <pt x="227" y="-167" on="0"/>
        <pt x="254" y="-146" on="0"/>
        <pt x="254" y="-129" on="1"/>
        <pt x="254" y="-108" on="0"/>
        <pt x="210" y="-86" on="0"/>
        <pt x="172" y="-86" on="1"/>
        <pt x="172" y="0" on="1"/>
        <pt x="257" y="0" on="1"/>
        <pt x="257" y="-43" on="1"/>
        <pt x="297" y="-51" on="0"/>
        <pt x="343" y="-97" on="0"/>
        <pt x="343" y="-132" on="1"/>
        <pt x="343" y="-177" on="0"/>
        <pt x="273" y="-233" on="0"/>
        <pt x="217" y="-233" on="1"/>
      </contour>
    </TTGlyph>
    <TTGlyph name="cent" xMin="38" yMin="0" xMax="485" yMax="705">
      <contour>
        <pt x="223" y="110" on="1"/>
        <pt x="134" y="126" on="0"/>
        <pt x="38" y="254" on="0"/>
        <pt x="38" y="353" on="1"/>
        <pt x="38" y="455" on="0"/>
        <pt x="133" y="589" on="0"/>
        <pt x="223" y="608" on="1"/>
        <pt x="223" y="705" on="1"/>
        <pt x="331" y="705" on="1"/>
        <pt x="331" y="614" on="1"/>
        <pt x="363" y="611" on="0"/>
        <pt x="422" y="596" on="0"/>
        <pt x="460" y="582" on="0"/>
        <pt x="465" y="580" on="1"/>
        <pt x="460" y="428" on="1"/>
        <pt x="375" y="428" on="1"/>
        <pt x="361" y="497" on="1"/>
        <pt x="356" y="498" on="0"/>
        <pt x="319" y="505" on="0"/>
        <pt x="297" y="505" on="1"/>
        <pt x="185" y="505" on="0"/>
        <pt x="185" y="372" on="1"/>
        <pt x="185" y="215" on="0"/>
        <pt x="304" y="215" on="1"/>
        <pt x="340" y="215" on="0"/>
        <pt x="395" y="236" on="0"/>
        <pt x="431" y="258" on="0"/>
        <pt x="436" y="261" on="1"/>
        <pt x="485" y="183" on="1"/>
        <pt x="461" y="162" on="0"/>
        <pt x="381" y="116" on="0"/>
        <pt x="331" y="108" on="1"/>
        <pt x="331" y="0" on="1"/>
        <pt x="223" y="0" on="1"/>
      </contour>
    </TTGlyph>
    <TTGlyph name="circumflex" xMin="70" yMin="635" xMax="474" yMax="840">
      <contour>
        <pt x="118" y="635" on="1"/>
        <pt x="70" y="701" on="1"/>
        <pt x="223" y="832" on="1"/>
        <pt x="312" y="840" on="1"/>
        <pt x="474" y="701" on="1"/>
        <pt x="426" y="635" on="1"/>
        <pt x="275" y="733" on="1"/>
      </contour>
    </TTGlyph>
    <TTGlyph name="circumflex.Cup" xMin="0" yMin="720" xMax="428" yMax="947">
      <contour>
        <pt x="48" y="720" on="1"/>
        <pt x="0" y="786" on="1"/>
        <pt x="164" y="939" on="1"/>
        <pt x="253" y="947" on="1"/>
        <pt x="428" y="786" on="1"/>
        <pt x="380" y="720" on="1"/>
        <pt x="216" y="840" on="1"/>
      </contour>
    </TTGlyph>
    <TTGlyph name="circumflex.x" xMin="67" yMin="613" xMax="495" yMax="840">
      <contour>
        <pt x="115" y="613" on="1"/>
        <pt x="67" y="679" on="1"/>
        <pt x="231" y="832" on="1"/>
        <pt x="320" y="840" on="1"/>
        <pt x="495" y="679" on="1"/>
        <pt x="447" y="613" on="1"/>
        <pt x="283" y="733" on="1"/>
      </contour>
    </TTGlyph>
    <TTGlyph name="colon" xMin="67" yMin="-13" xMax="237" yMax="469">
      <contour>
        <pt x="67" y="420" on="0"/>
        <pt x="118" y="469" on="0"/>
        <pt x="154" y="469" on="1"/>
        <pt x="195" y="469" on="0"/>
        <pt x="237" y="422" on="0"/>
        <pt x="237" y="378" on="1"/>
        <pt x="237" y="337" on="0"/>
        <pt x="186" y="288" on="0"/>
        <pt x="151" y="288" on="1"/>
        <pt x="110" y="288" on="0"/>
        <pt x="67" y="335" on="0"/>
        <pt x="67" y="378" on="1"/>
      </contour>
      <contour>
        <pt x="67" y="119" on="0"/>
        <pt x="118" y="168" on="0"/>
        <pt x="154" y="168" on="1"/>
        <pt x="195" y="168" on="0"/>
        <pt x="237" y="121" on="0"/>
        <pt x="237" y="78" on="1"/>
        <pt x="237" y="36" on="0"/>
        <pt x="187" y="-13" on="0"/>
        <pt x="151" y="-13" on="1"/>
        <pt x="110" y="-13" on="0"/>
        <pt x="67" y="34" on="0"/>
        <pt x="67" y="78" on="1"/>
      </contour>
    </TTGlyph>
    <TTGlyph name="comma" xMin="40" yMin="-185" xMax="241" yMax="168">
      <contour>
        <pt x="71" y="119" on="0"/>
        <pt x="120" y="168" on="0"/>
        <pt x="157" y="168" on="1"/>
        <pt x="195" y="168" on="0"/>
        <pt x="241" y="120" on="0"/>
        <pt x="241" y="76" on="1"/>
        <pt x="241" y="-37" on="0"/>
        <pt x="103" y="-185" on="1"/>
        <pt x="40" y="-133" on="1"/>
        <pt x="45" y="-127" on="0"/>
        <pt x="73" y="-84" on="0"/>
        <pt x="100" y="-31" on="0"/>
        <pt x="100" y="-13" on="1"/>
        <pt x="100" y="-3" on="0"/>
        <pt x="89" y="19" on="0"/>
        <pt x="88" y="21" on="1"/>
        <pt x="80" y="37" on="0"/>
        <pt x="71" y="61" on="0"/>
        <pt x="71" y="79" on="1"/>
      </contour>
    </TTGlyph>
    <TTGlyph name="copyright" xMin="37" yMin="-19" xMax="785" yMax="719">
      <contour>
        <pt x="295" y="-19" on="0"/>
        <pt x="129" y="73" on="0"/>
        <pt x="37" y="238" on="0"/>
        <pt x="37" y="345" on="1"/>
        <pt x="37" y="451" on="0"/>
        <pt x="134" y="622" on="0"/>
        <pt x="305" y="719" on="0"/>
        <pt x="411" y="719" on="1"/>
        <pt x="518" y="719" on="0"/>
        <pt x="688" y="627" on="0"/>
        <pt x="785" y="461" on="0"/>
        <pt x="785" y="355" on="1"/>
        <pt x="785" y="249" on="0"/>
        <pt x="683" y="78" on="0"/>
        <pt x="507" y="-19" on="0"/>
        <pt x="401" y="-19" on="1"/>
      </contour>
      <contour>
        <pt x="486" y="75" on="0"/>
        <pt x="612" y="145" on="0"/>
        <pt x="683" y="270" on="0"/>
        <pt x="683" y="350" on="1"/>
        <pt x="683" y="430" on="0"/>
        <pt x="612" y="555" on="0"/>
        <pt x="486" y="625" on="0"/>
        <pt x="406" y="625" on="1"/>
        <pt x="326" y="625" on="0"/>
        <pt x="205" y="555" on="0"/>
        <pt x="139" y="431" on="0"/>
        <pt x="139" y="350" on="1"/>
        <pt x="139" y="269" on="0"/>
        <pt x="205" y="144" on="0"/>
        <pt x="326" y="75" on="0"/>
        <pt x="406" y="75" on="1"/>
      </contour>
      <contour>
        <pt x="323" y="152" on="0"/>
        <pt x="224" y="251" on="0"/>
        <pt x="224" y="342" on="1"/>
        <pt x="224" y="439" on="0"/>
        <pt x="327" y="553" on="0"/>
        <pt x="419" y="553" on="1"/>
        <pt x="447" y="553" on="0"/>
        <pt x="504" y="540" on="0"/>
        <pt x="543" y="525" on="0"/>
        <pt x="548" y="523" on="1"/>
        <pt x="545" y="411" on="1"/>
        <pt x="476" y="411" on="1"/>
        <pt x="465" y="466" on="1"/>
        <pt x="461" y="467" on="0"/>
        <pt x="431" y="472" on="0"/>
        <pt x="417" y="472" on="1"/>
        <pt x="334" y="472" on="0"/>
        <pt x="334" y="355" on="1"/>
        <pt x="334" y="294" on="0"/>
        <pt x="377" y="235" on="0"/>
        <pt x="421" y="235" on="1"/>
        <pt x="449" y="235" on="0"/>
        <pt x="507" y="260" on="0"/>
        <pt x="523" y="273" on="1"/>
        <pt x="560" y="216" on="1"/>
        <pt x="483" y="152" on="0"/>
        <pt x="408" y="152" on="1"/>
      </contour>
    </TTGlyph>
    <TTGlyph name="currency" xMin="51" yMin="35" xMax="573" yMax="561">
      <contour>
        <pt x="51" y="117" on="1"/>
        <pt x="127" y="192" on="1"/>
        <pt x="105" y="239" on="0"/>
        <pt x="105" y="296" on="1"/>
        <pt x="105" y="354" on="0"/>
        <pt x="131" y="400" on="1"/>
        <pt x="52" y="480" on="1"/>
        <pt x="126" y="560" on="1"/>
        <pt x="206" y="480" on="1"/>
        <pt x="259" y="510" on="0"/>
        <pt x="317" y="510" on="1"/>
        <pt x="373" y="510" on="0"/>
        <pt x="421" y="485" on="1"/>
        <pt x="498" y="561" on="1"/>
        <pt x="572" y="481" on="1"/>
        <pt x="498" y="407" on="1"/>
        <pt x="523" y="360" on="0"/>
        <pt x="523" y="302" on="1"/>
        <pt x="523" y="241" on="0"/>
        <pt x="495" y="191" on="1"/>
        <pt x="573" y="114" on="1"/>
        <pt x="498" y="35" on="1"/>
        <pt x="419" y="113" on="1"/>
        <pt x="371" y="85" on="0"/>
        <pt x="312" y="85" on="1"/>
        <pt x="246" y="85" on="0"/>
        <pt x="201" y="112" on="1"/>
        <pt x="126" y="37" on="1"/>
      </contour>
      <contour>
        <pt x="402" y="189" on="0"/>
        <pt x="402" y="298" on="1"/>
        <pt x="402" y="403" on="0"/>
        <pt x="314" y="403" on="1"/>
        <pt x="270" y="403" on="0"/>
        <pt x="227" y="349" on="0"/>
        <pt x="227" y="298" on="1"/>
        <pt x="227" y="189" on="0"/>
        <pt x="314" y="189" on="1"/>
      </contour>
    </TTGlyph>
    <TTGlyph name="d" xMin="40" yMin="-10" xMax="618" yMax="775">
      <contour>
        <pt x="142" y="-10" on="0"/>
        <pt x="40" y="130" on="0"/>
        <pt x="40" y="257" on="1"/>
        <pt x="40" y="400" on="0"/>
        <pt x="177" y="550" on="0"/>
        <pt x="313" y="550" on="1"/>
        <pt x="344" y="550" on="0"/>
        <pt x="388" y="540" on="1"/>
        <pt x="388" y="667" on="1"/>
        <pt x="308" y="687" on="1"/>
        <pt x="308" y="767" on="1"/>
        <pt x="538" y="775" on="1"/>
        <pt x="538" y="107" on="1"/>
        <pt x="618" y="87" on="1"/>
        <pt x="618" y="7" on="1"/>
        <pt x="405" y="0" on="1"/>
        <pt x="396" y="53" on="1"/>
        <pt x="374" y="31" on="0"/>
        <pt x="300" y="-10" on="0"/>
        <pt x="245" y="-10" on="1"/>
      </contour>
      <contour>
        <pt x="319" y="110" on="0"/>
        <pt x="363" y="135" on="0"/>
        <pt x="388" y="165" on="0"/>
        <pt x="388" y="167" on="1"/>
        <pt x="388" y="415" on="1"/>
        <pt x="356" y="430" on="0"/>
        <pt x="310" y="430" on="1"/>
        <pt x="249" y="430" on="0"/>
        <pt x="195" y="344" on="0"/>
        <pt x="195" y="265" on="1"/>
        <pt x="195" y="188" on="0"/>
        <pt x="241" y="110" on="0"/>
        <pt x="291" y="110" on="1"/>
      </contour>
    </TTGlyph>
    <TTGlyph name="dagger" xMin="35" yMin="0" xMax="480" yMax="760">
      <contour>
        <pt x="257" y="481" on="1"/>
        <pt x="35" y="515" on="1"/>
        <pt x="35" y="610" on="1"/>
        <pt x="200" y="610" on="1"/>
        <pt x="195" y="752" on="1"/>
        <pt x="320" y="760" on="1"/>
        <pt x="313" y="610" on="1"/>
        <pt x="480" y="610" on="1"/>
        <pt x="480" y="515" on="1"/>
      </contour>
      <contour>
        <pt x="257" y="0" on="1"/>
        <pt x="195" y="51" on="1"/>
        <pt x="179" y="443" on="1"/>
        <pt x="257" y="426" on="1"/>
        <pt x="336" y="443" on="1"/>
        <pt x="320" y="51" on="1"/>
      </contour>
    </TTGlyph>
    <TTGlyph name="daggerdbl" xMin="35" yMin="0" xMax="480" yMax="760">
      <contour>
        <pt x="257" y="481" on="1"/>
        <pt x="35" y="515" on="1"/>
        <pt x="35" y="610" on="1"/>
        <pt x="200" y="610" on="1"/>
        <pt x="195" y="752" on="1"/>
        <pt x="320" y="760" on="1"/>
        <pt x="313" y="610" on="1"/>
        <pt x="480" y="610" on="1"/>
        <pt x="480" y="515" on="1"/>
      </contour>
      <contour>
        <pt x="257" y="319" on="1"/>
        <pt x="81" y="361" on="1"/>
        <pt x="81" y="460" on="1"/>
        <pt x="257" y="431" on="1"/>
        <pt x="433" y="460" on="1"/>
        <pt x="433" y="361" on="1"/>
      </contour>
      <contour>
        <pt x="257" y="0" on="1"/>
        <pt x="195" y="51" on="1"/>
        <pt x="186" y="286" on="1"/>
        <pt x="257" y="270" on="1"/>
        <pt x="329" y="286" on="1"/>
        <pt x="320" y="51" on="1"/>
      </contour>
    </TTGlyph>
    <TTGlyph name="dcaron" xMin="40" yMin="-10" xMax="746" yMax="780">
      <contour>
        <pt x="598" y="600" on="0"/>
        <pt x="613" y="697" on="0"/>
        <pt x="613" y="744" on="1"/>
        <pt x="612" y="775" on="1"/>
        <pt x="746" y="780" on="1"/>
        <pt x="745" y="727" on="0"/>
        <pt x="700" y="594" on="0"/>
        <pt x="658" y="510" on="1"/>
        <pt x="580" y="538" on="1"/>
      </contour>
      <contour>
        <pt x="142" y="-10" on="0"/>
        <pt x="40" y="130" on="0"/>
        <pt x="40" y="257" on="1"/>
        <pt x="40" y="400" on="0"/>
        <pt x="177" y="550" on="0"/>
        <pt x="313" y="550" on="1"/>
        <pt x="344" y="550" on="0"/>
        <pt x="388" y="540" on="1"/>
        <pt x="388" y="667" on="1"/>
        <pt x="308" y="687" on="1"/>
        <pt x="308" y="767" on="1"/>
        <pt x="538" y="775" on="1"/>
        <pt x="538" y="107" on="1"/>
        <pt x="618" y="87" on="1"/>
        <pt x="618" y="7" on="1"/>
        <pt x="405" y="0" on="1"/>
        <pt x="396" y="53" on="1"/>
        <pt x="374" y="31" on="0"/>
        <pt x="300" y="-10" on="0"/>
        <pt x="245" y="-10" on="1"/>
      </contour>
      <contour>
        <pt x="319" y="110" on="0"/>
        <pt x="363" y="135" on="0"/>
        <pt x="388" y="165" on="0"/>
        <pt x="388" y="167" on="1"/>
        <pt x="388" y="415" on="1"/>
        <pt x="356" y="430" on="0"/>
        <pt x="310" y="430" on="1"/>
        <pt x="249" y="430" on="0"/>
        <pt x="195" y="344" on="0"/>
        <pt x="195" y="265" on="1"/>
        <pt x="195" y="188" on="0"/>
        <pt x="241" y="110" on="0"/>
        <pt x="291" y="110" on="1"/>
      </contour>
    </TTGlyph>
    <TTGlyph name="dcroat" xMin="40" yMin="-10" xMax="618" yMax="775">
      <contour>
        <pt x="618" y="87" on="1"/>
        <pt x="618" y="7" on="1"/>
        <pt x="405" y="0" on="1"/>
        <pt x="396" y="53" on="1"/>
        <pt x="374" y="31" on="0"/>
        <pt x="300" y="-10" on="0"/>
        <pt x="245" y="-10" on="1"/>
        <pt x="142" y="-10" on="0"/>
        <pt x="40" y="130" on="0"/>
        <pt x="40" y="257" on="1"/>
        <pt x="40" y="400" on="0"/>
        <pt x="177" y="550" on="0"/>
        <pt x="313" y="550" on="1"/>
        <pt x="344" y="550" on="0"/>
        <pt x="388" y="540" on="1"/>
        <pt x="388" y="577" on="1"/>
        <pt x="308" y="577" on="1"/>
        <pt x="308" y="647" on="1"/>
        <pt x="388" y="647" on="1"/>
        <pt x="388" y="667" on="1"/>
        <pt x="308" y="687" on="1"/>
        <pt x="308" y="767" on="1"/>
        <pt x="538" y="775" on="1"/>
        <pt x="538" y="647" on="1"/>
        <pt x="615" y="647" on="1"/>
        <pt x="615" y="577" on="1"/>
        <pt x="538" y="577" on="1"/>
        <pt x="538" y="107" on="1"/>
      </contour>
      <contour>
        <pt x="388" y="415" on="1"/>
        <pt x="356" y="430" on="0"/>
        <pt x="310" y="430" on="1"/>
        <pt x="249" y="430" on="0"/>
        <pt x="195" y="344" on="0"/>
        <pt x="195" y="265" on="1"/>
        <pt x="195" y="188" on="0"/>
        <pt x="241" y="110" on="0"/>
        <pt x="291" y="110" on="1"/>
        <pt x="319" y="110" on="0"/>
        <pt x="363" y="135" on="0"/>
        <pt x="388" y="165" on="0"/>
        <pt x="388" y="167" on="1"/>
      </contour>
    </TTGlyph>
    <TTGlyph name="degree" xMin="45" yMin="419" xMax="381" yMax="741">
      <contour>
        <pt x="45" y="652" on="0"/>
        <pt x="139" y="741" on="0"/>
        <pt x="213" y="741" on="1"/>
        <pt x="287" y="741" on="0"/>
        <pt x="381" y="656" on="0"/>
        <pt x="381" y="585" on="1"/>
        <pt x="381" y="509" on="0"/>
        <pt x="287" y="419" on="0"/>
        <pt x="213" y="419" on="1"/>
        <pt x="138" y="419" on="0"/>
        <pt x="45" y="505" on="0"/>
        <pt x="45" y="580" on="1"/>
      </contour>
      <contour>
        <pt x="145" y="548" on="0"/>
        <pt x="180" y="508" on="0"/>
        <pt x="213" y="508" on="1"/>
        <pt x="246" y="508" on="0"/>
        <pt x="281" y="548" on="0"/>
        <pt x="281" y="584" on="1"/>
        <pt x="281" y="616" on="0"/>
        <pt x="244" y="652" on="0"/>
        <pt x="213" y="652" on="1"/>
        <pt x="182" y="652" on="0"/>
        <pt x="145" y="616" on="0"/>
        <pt x="145" y="584" on="1"/>
      </contour>
    </TTGlyph>
    <TTGlyph name="dieresis" xMin="90" yMin="634" xMax="454" yMax="790">
      <contour>
        <pt x="90" y="747" on="0"/>
        <pt x="133" y="790" on="0"/>
        <pt x="164" y="790" on="1"/>
        <pt x="199" y="790" on="0"/>
        <pt x="236" y="749" on="0"/>
        <pt x="236" y="712" on="1"/>
        <pt x="236" y="676" on="0"/>
        <pt x="193" y="634" on="0"/>
        <pt x="162" y="634" on="1"/>
        <pt x="127" y="634" on="0"/>
        <pt x="90" y="674" on="0"/>
        <pt x="90" y="712" on="1"/>
      </contour>
      <contour>
        <pt x="308" y="747" on="0"/>
        <pt x="352" y="790" on="0"/>
        <pt x="382" y="790" on="1"/>
        <pt x="417" y="790" on="0"/>
        <pt x="454" y="749" on="0"/>
        <pt x="454" y="712" on="1"/>
        <pt x="454" y="676" on="0"/>
        <pt x="411" y="634" on="0"/>
        <pt x="380" y="634" on="1"/>
        <pt x="345" y="634" on="0"/>
        <pt x="308" y="674" on="0"/>
        <pt x="308" y="712" on="1"/>
      </contour>
    </TTGlyph>
    <TTGlyph name="divide" xMin="52" yMin="-42" xMax="577" yMax="573">
      <contour>
        <pt x="228" y="525" on="0"/>
        <pt x="278" y="573" on="0"/>
        <pt x="317" y="573" on="1"/>
        <pt x="402" y="573" on="0"/>
        <pt x="402" y="481" on="1"/>
        <pt x="402" y="437" on="0"/>
        <pt x="353" y="388" on="0"/>
        <pt x="314" y="388" on="1"/>
        <pt x="272" y="388" on="0"/>
        <pt x="228" y="436" on="0"/>
        <pt x="228" y="481" on="1"/>
      </contour>
      <contour>
        <pt x="52" y="323" on="1"/>
        <pt x="577" y="323" on="1"/>
        <pt x="577" y="208" on="1"/>
        <pt x="52" y="208" on="1"/>
      </contour>
      <contour>
        <pt x="228" y="95" on="0"/>
        <pt x="278" y="143" on="0"/>
        <pt x="317" y="143" on="1"/>
        <pt x="402" y="143" on="0"/>
        <pt x="402" y="51" on="1"/>
        <pt x="402" y="7" on="0"/>
        <pt x="353" y="-42" on="0"/>
        <pt x="314" y="-42" on="1"/>
        <pt x="272" y="-42" on="0"/>
        <pt x="228" y="6" on="0"/>
        <pt x="228" y="51" on="1"/>
      </contour>
    </TTGlyph>
    <TTGlyph name="dollar" xMin="55" yMin="-146" xMax="507" yMax="765">
      <contour>
        <pt x="225" y="-11" on="1"/>
        <pt x="184" y="-9" on="0"/>
        <pt x="109" y="5" on="0"/>
        <pt x="61" y="19" on="0"/>
        <pt x="55" y="21" on="1"/>
        <pt x="55" y="198" on="1"/>
        <pt x="147" y="198" on="1"/>
        <pt x="162" y="123" on="1"/>
        <pt x="165" y="122" on="0"/>
        <pt x="187" y="113" on="0"/>
        <pt x="225" y="105" on="0"/>
        <pt x="249" y="105" on="1"/>
        <pt x="297" y="105" on="0"/>
        <pt x="361" y="142" on="0"/>
        <pt x="361" y="176" on="1"/>
        <pt x="361" y="205" on="0"/>
        <pt x="309" y="238" on="0"/>
        <pt x="250" y="258" on="1"/>
        <pt x="190" y="279" on="0"/>
        <pt x="112" y="319" on="0"/>
        <pt x="55" y="397" on="0"/>
        <pt x="55" y="460" on="1"/>
        <pt x="55" y="536" on="0"/>
        <pt x="147" y="632" on="0"/>
        <pt x="225" y="647" on="1"/>
        <pt x="225" y="765" on="1"/>
        <pt x="332" y="765" on="1"/>
        <pt x="332" y="651" on="1"/>
        <pt x="370" y="648" on="0"/>
        <pt x="440" y="632" on="0"/>
        <pt x="482" y="617" on="0"/>
        <pt x="488" y="615" on="1"/>
        <pt x="484" y="451" on="1"/>
        <pt x="398" y="451" on="1"/>
        <pt x="379" y="525" on="1"/>
        <pt x="379" y="526" on="0"/>
        <pt x="323" y="540" on="0"/>
        <pt x="299" y="540" on="1"/>
        <pt x="252" y="540" on="0"/>
        <pt x="202" y="505" on="0"/>
        <pt x="202" y="477" on="1"/>
        <pt x="202" y="448" on="0"/>
        <pt x="256" y="414" on="0"/>
        <pt x="314" y="394" on="1"/>
        <pt x="375" y="372" on="0"/>
        <pt x="451" y="333" on="0"/>
        <pt x="507" y="257" on="0"/>
        <pt x="507" y="198" on="1"/>
        <pt x="507" y="117" on="0"/>
        <pt x="412" y="12" on="0"/>
        <pt x="332" y="-5" on="1"/>
        <pt x="332" y="-146" on="1"/>
        <pt x="225" y="-146" on="1"/>
      </contour>
    </TTGlyph>
    <TTGlyph name="dotaccent" xMin="75" yMin="769" xMax="221" yMax="925">
      <contour>
        <pt x="75" y="882" on="0"/>
        <pt x="119" y="925" on="0"/>
        <pt x="149" y="925" on="1"/>
        <pt x="184" y="925" on="0"/>
        <pt x="221" y="884" on="0"/>
        <pt x="221" y="847" on="1"/>
        <pt x="221" y="811" on="0"/>
        <pt x="178" y="769" on="0"/>
        <pt x="147" y="769" on="1"/>
        <pt x="112" y="769" on="0"/>
        <pt x="75" y="809" on="0"/>
        <pt x="75" y="847" on="1"/>
      </contour>
    </TTGlyph>
    <TTGlyph name="dotlessi" xMin="35" yMin="0" xMax="332" yMax="540">
      <contour>
        <pt x="35" y="0" on="1"/>
        <pt x="35" y="80" on="1"/>
        <pt x="115" y="105" on="1"/>
        <pt x="115" y="432" on="1"/>
        <pt x="35" y="452" on="1"/>
        <pt x="35" y="532" on="1"/>
        <pt x="262" y="540" on="1"/>
        <pt x="262" y="105" on="1"/>
        <pt x="332" y="80" on="1"/>
        <pt x="332" y="0" on="1"/>
      </contour>
    </TTGlyph>
    <TTGlyph name="e" xMin="35" yMin="-10" xMax="529" yMax="550">
      <contour>
        <pt x="168" y="-10" on="0"/>
        <pt x="35" y="131" on="0"/>
        <pt x="35" y="260" on="1"/>
        <pt x="35" y="347" on="0"/>
        <pt x="99" y="478" on="0"/>
        <pt x="219" y="550" on="0"/>
        <pt x="302" y="550" on="1"/>
        <pt x="412" y="550" on="0"/>
        <pt x="529" y="424" on="0"/>
        <pt x="529" y="315" on="1"/>
        <pt x="529" y="291" on="0"/>
        <pt x="524" y="246" on="0"/>
        <pt x="523" y="240" on="1"/>
        <pt x="191" y="237" on="1"/>
        <pt x="195" y="177" on="0"/>
        <pt x="260" y="110" on="0"/>
        <pt x="312" y="110" on="1"/>
        <pt x="349" y="110" on="0"/>
        <pt x="424" y="131" on="0"/>
        <pt x="473" y="153" on="0"/>
        <pt x="480" y="157" on="1"/>
        <pt x="523" y="74" on="1"/>
        <pt x="523" y="72" on="0"/>
        <pt x="453" y="27" on="0"/>
        <pt x="352" y="-10" on="0"/>
        <pt x="295" y="-10" on="1"/>
      </contour>
      <contour>
        <pt x="374" y="330" on="1"/>
        <pt x="374" y="375" on="0"/>
        <pt x="334" y="430" on="0"/>
        <pt x="292" y="430" on="1"/>
        <pt x="251" y="430" on="0"/>
        <pt x="199" y="375" on="0"/>
        <pt x="193" y="330" on="1"/>
      </contour>
    </TTGlyph>
    <TTGlyph name="eacute" xMin="35" yMin="-10" xMax="529" yMax="849">
      <component glyphName="e" x="0" y="0" flags="0x0"/>
      <component glyphName="acute.x" x="154" y="0" flags="0x0"/>
    </TTGlyph>
    <TTGlyph name="ebreve" xMin="35" yMin="-10" xMax="529" yMax="790">
      <component glyphName="e" x="0" y="0" flags="0x0"/>
      <component glyphName="breve" x="76" y="16" flags="0x4"/>
    </TTGlyph>
    <TTGlyph name="ecaron" xMin="35" yMin="-10" xMax="529" yMax="824">
      <component glyphName="e" x="0" y="0" flags="0x0"/>
      <component glyphName="caron" x="91" y="0" flags="0x0"/>
    </TTGlyph>
    <TTGlyph name="ecircumflex" xMin="35" yMin="-10" xMax="529" yMax="825">
      <component glyphName="e" x="0" y="0" flags="0x0"/>
      <component glyphName="circumflex.x" x="5" y="-15" flags="0x4"/>
    </TTGlyph>
    <TTGlyph name="edieresis" xMin="35" yMin="-10" xMax="529" yMax="776">
      <component glyphName="e" x="0" y="0" flags="0x0"/>
      <component glyphName="dieresis" x="14" y="-14" flags="0x4"/>
    </TTGlyph>
    <TTGlyph name="edotaccent" xMin="35" yMin="-10" xMax="529" yMax="776">
      <component glyphName="e" x="0" y="0" flags="0x0"/>
      <component glyphName="dotaccent" x="150" y="-149" flags="0x4"/>
    </TTGlyph>
    <TTGlyph name="egrave" xMin="35" yMin="-10" xMax="529" yMax="849">
      <component glyphName="e" x="0" y="0" flags="0x0"/>
      <component glyphName="grave" x="102" y="0" flags="0x0"/>
    </TTGlyph>
    <TTGlyph name="eight" xMin="45" yMin="-13" xMax="573" yMax="717">
      <contour>
        <pt x="556" y="470" on="0"/>
        <pt x="490" y="398" on="0"/>
        <pt x="447" y="378" on="1"/>
        <pt x="505" y="351" on="0"/>
        <pt x="573" y="270" on="0"/>
        <pt x="573" y="206" on="1"/>
        <pt x="573" y="142" on="0"/>
        <pt x="504" y="42" on="0"/>
        <pt x="380" y="-13" on="0"/>
        <pt x="298" y="-13" on="1"/>
        <pt x="217" y="-13" on="0"/>
        <pt x="103" y="39" on="0"/>
        <pt x="45" y="132" on="0"/>
        <pt x="45" y="192" on="1"/>
        <pt x="45" y="256" on="0"/>
        <pt x="124" y="337" on="0"/>
        <pt x="173" y="361" on="1"/>
        <pt x="123" y="389" on="0"/>
        <pt x="68" y="464" on="0"/>
        <pt x="68" y="521" on="1"/>
        <pt x="68" y="614" on="0"/>
        <pt x="204" y="717" on="0"/>
        <pt x="321" y="717" on="1"/>
        <pt x="434" y="717" on="0"/>
        <pt x="556" y="613" on="0"/>
        <pt x="556" y="528" on="1"/>
      </contour>
      <contour>
        <pt x="217" y="486" on="0"/>
        <pt x="272" y="444" on="0"/>
        <pt x="325" y="424" on="1"/>
        <pt x="357" y="437" on="0"/>
        <pt x="406" y="485" on="0"/>
        <pt x="406" y="521" on="1"/>
        <pt x="406" y="554" on="0"/>
        <pt x="354" y="595" on="0"/>
        <pt x="311" y="595" on="1"/>
        <pt x="267" y="595" on="0"/>
        <pt x="217" y="554" on="0"/>
        <pt x="217" y="521" on="1"/>
      </contour>
      <contour>
        <pt x="415" y="240" on="0"/>
        <pt x="355" y="285" on="0"/>
        <pt x="295" y="308" on="1"/>
        <pt x="202" y="266" on="0"/>
        <pt x="202" y="199" on="1"/>
        <pt x="202" y="156" on="0"/>
        <pt x="257" y="110" on="0"/>
        <pt x="308" y="110" on="1"/>
        <pt x="359" y="110" on="0"/>
        <pt x="415" y="158" on="0"/>
        <pt x="415" y="202" on="1"/>
      </contour>
    </TTGlyph>
    <TTGlyph name="ellipsis" xMin="52" yMin="-13" xMax="727" yMax="168">
      <contour>
        <pt x="52" y="119" on="0"/>
        <pt x="103" y="168" on="0"/>
        <pt x="139" y="168" on="1"/>
        <pt x="180" y="168" on="0"/>
        <pt x="222" y="121" on="0"/>
        <pt x="222" y="78" on="1"/>
        <pt x="222" y="36" on="0"/>
        <pt x="172" y="-13" on="0"/>
        <pt x="136" y="-13" on="1"/>
        <pt x="95" y="-13" on="0"/>
        <pt x="52" y="34" on="0"/>
        <pt x="52" y="78" on="1"/>
      </contour>
      <contour>
        <pt x="305" y="119" on="0"/>
        <pt x="356" y="168" on="0"/>
        <pt x="391" y="168" on="1"/>
        <pt x="432" y="168" on="0"/>
        <pt x="475" y="121" on="0"/>
        <pt x="475" y="78" on="1"/>
        <pt x="475" y="36" on="0"/>
        <pt x="425" y="-13" on="0"/>
        <pt x="389" y="-13" on="1"/>
        <pt x="348" y="-13" on="0"/>
        <pt x="305" y="34" on="0"/>
        <pt x="305" y="78" on="1"/>
      </contour>
      <contour>
        <pt x="557" y="119" on="0"/>
        <pt x="608" y="168" on="0"/>
        <pt x="644" y="168" on="1"/>
        <pt x="685" y="168" on="0"/>
        <pt x="727" y="121" on="0"/>
        <pt x="727" y="78" on="1"/>
        <pt x="727" y="36" on="0"/>
        <pt x="677" y="-13" on="0"/>
        <pt x="641" y="-13" on="1"/>
        <pt x="600" y="-13" on="0"/>
        <pt x="557" y="34" on="0"/>
        <pt x="557" y="78" on="1"/>
      </contour>
    </TTGlyph>
    <TTGlyph name="emacron" xMin="35" yMin="-10" xMax="529" yMax="751">
      <component glyphName="e" x="0" y="0" flags="0x0"/>
      <component glyphName="macron" x="130" y="4" flags="0x4"/>
    </TTGlyph>
    <TTGlyph name="emdash" xMin="0" yMin="267" xMax="970" yMax="385">
      <contour>
        <pt x="0" y="385" on="1"/>
        <pt x="970" y="385" on="1"/>
        <pt x="970" y="267" on="1"/>
        <pt x="0" y="267" on="1"/>
      </contour>
    </TTGlyph>
    <TTGlyph name="endash" xMin="0" yMin="267" xMax="500" yMax="385">
      <contour>
        <pt x="0" y="385" on="1"/>
        <pt x="500" y="385" on="1"/>
        <pt x="500" y="267" on="1"/>
        <pt x="0" y="267" on="1"/>
      </contour>
    </TTGlyph>
    <TTGlyph name="eng" xMin="35" yMin="-245" xMax="590" yMax="548">
      <contour>
        <pt x="349" y="-245" on="0"/>
        <pt x="300" y="-239" on="0"/>
        <pt x="293" y="-238" on="1"/>
        <pt x="305" y="-145" on="1"/>
        <pt x="357" y="-145" on="1"/>
        <pt x="401" y="-145" on="0"/>
        <pt x="440" y="-91" on="0"/>
        <pt x="440" y="-40" on="1"/>
        <pt x="440" y="347" on="1"/>
        <pt x="440" y="382" on="0"/>
        <pt x="403" y="427" on="0"/>
        <pt x="372" y="427" on="1"/>
        <pt x="344" y="427" on="0"/>
        <pt x="297" y="402" on="0"/>
        <pt x="265" y="372" on="0"/>
        <pt x="265" y="370" on="1"/>
        <pt x="265" y="105" on="1"/>
        <pt x="317" y="80" on="1"/>
        <pt x="317" y="0" on="1"/>
        <pt x="35" y="0" on="1"/>
        <pt x="35" y="80" on="1"/>
        <pt x="115" y="105" on="1"/>
        <pt x="115" y="430" on="1"/>
        <pt x="35" y="455" on="1"/>
        <pt x="35" y="535" on="1"/>
        <pt x="247" y="540" on="1"/>
        <pt x="254" y="471" on="1"/>
        <pt x="254" y="473" on="0"/>
        <pt x="317" y="514" on="0"/>
        <pt x="398" y="548" on="0"/>
        <pt x="438" y="548" on="1"/>
        <pt x="512" y="548" on="0"/>
        <pt x="590" y="453" on="0"/>
        <pt x="590" y="370" on="1"/>
        <pt x="590" y="18" on="1"/>
        <pt x="590" y="-73" on="0"/>
        <pt x="550" y="-187" on="0"/>
        <pt x="454" y="-245" on="0"/>
        <pt x="369" y="-245" on="1"/>
      </contour>
    </TTGlyph>
    <TTGlyph name="eogonek" xMin="35" yMin="-235" xMax="529" yMax="550">
      <contour>
        <pt x="304" y="-235" on="0"/>
        <pt x="242" y="-184" on="0"/>
        <pt x="242" y="-137" on="1"/>
        <pt x="242" y="-72" on="0"/>
        <pt x="322" y="-8" on="1"/>
        <pt x="304" y="-10" on="0"/>
        <pt x="295" y="-10" on="1"/>
        <pt x="168" y="-10" on="0"/>
        <pt x="35" y="131" on="0"/>
        <pt x="35" y="260" on="1"/>
        <pt x="35" y="347" on="0"/>
        <pt x="99" y="478" on="0"/>
        <pt x="219" y="550" on="0"/>
        <pt x="302" y="550" on="1"/>
        <pt x="412" y="550" on="0"/>
        <pt x="529" y="424" on="0"/>
        <pt x="529" y="315" on="1"/>
        <pt x="529" y="291" on="0"/>
        <pt x="525" y="246" on="0"/>
        <pt x="524" y="240" on="1"/>
        <pt x="192" y="237" on="1"/>
        <pt x="196" y="177" on="0"/>
        <pt x="261" y="110" on="0"/>
        <pt x="312" y="110" on="1"/>
        <pt x="362" y="110" on="0"/>
        <pt x="439" y="136" on="0"/>
        <pt x="480" y="157" on="1"/>
        <pt x="523" y="74" on="1"/>
        <pt x="472" y="38" on="0"/>
        <pt x="357" y="-70" on="0"/>
        <pt x="357" y="-107" on="1"/>
        <pt x="357" y="-125" on="0"/>
        <pt x="378" y="-146" on="0"/>
        <pt x="395" y="-146" on="1"/>
        <pt x="405" y="-146" on="0"/>
        <pt x="433" y="-141" on="0"/>
        <pt x="437" y="-140" on="1"/>
        <pt x="454" y="-210" on="1"/>
        <pt x="450" y="-212" on="0"/>
        <pt x="422" y="-224" on="0"/>
        <pt x="376" y="-235" on="0"/>
        <pt x="352" y="-235" on="1"/>
      </contour>
      <contour>
        <pt x="374" y="330" on="1"/>
        <pt x="374" y="375" on="0"/>
        <pt x="334" y="430" on="0"/>
        <pt x="292" y="430" on="1"/>
        <pt x="252" y="430" on="0"/>
        <pt x="200" y="375" on="0"/>
        <pt x="194" y="330" on="1"/>
      </contour>
    </TTGlyph>
    <TTGlyph name="equal" xMin="50" yMin="107" xMax="550" yMax="437">
      <contour>
        <pt x="50" y="437" on="1"/>
        <pt x="550" y="437" on="1"/>
        <pt x="550" y="322" on="1"/>
        <pt x="50" y="322" on="1"/>
      </contour>
      <contour>
        <pt x="50" y="222" on="1"/>
        <pt x="550" y="222" on="1"/>
        <pt x="550" y="107" on="1"/>
        <pt x="50" y="107" on="1"/>
      </contour>
    </TTGlyph>
    <TTGlyph name="equivalence" xMin="50" yMin="-58" xMax="550" yMax="437">
      <contour>
        <pt x="50" y="437" on="1"/>
        <pt x="550" y="437" on="1"/>
        <pt x="550" y="322" on="1"/>
        <pt x="50" y="322" on="1"/>
      </contour>
      <contour>
        <pt x="50" y="247" on="1"/>
        <pt x="550" y="247" on="1"/>
        <pt x="550" y="132" on="1"/>
        <pt x="50" y="132" on="1"/>
      </contour>
      <contour>
        <pt x="50" y="57" on="1"/>
        <pt x="550" y="57" on="1"/>
        <pt x="550" y="-58" on="1"/>
        <pt x="50" y="-58" on="1"/>
      </contour>
    </TTGlyph>
    <TTGlyph name="estimated" xMin="50" yMin="60" xMax="625" yMax="640">
      <contour>
        <pt x="171" y="163" on="1"/>
        <pt x="202" y="133" on="0"/>
        <pt x="288" y="101" on="0"/>
        <pt x="335" y="101" on="1"/>
        <pt x="399" y="101" on="0"/>
        <pt x="521" y="147" on="0"/>
        <pt x="559" y="186" on="1"/>
        <pt x="585" y="160" on="1"/>
        <pt x="543" y="115" on="0"/>
        <pt x="403" y="60" on="0"/>
        <pt x="335" y="60" on="1"/>
        <pt x="250" y="60" on="0"/>
        <pt x="121" y="130" on="0"/>
        <pt x="50" y="259" on="0"/>
        <pt x="50" y="345" on="1"/>
        <pt x="50" y="426" on="0"/>
        <pt x="129" y="561" on="0"/>
        <pt x="264" y="640" on="0"/>
        <pt x="345" y="640" on="1"/>
        <pt x="424" y="640" on="0"/>
        <pt x="552" y="567" on="0"/>
        <pt x="625" y="439" on="0"/>
        <pt x="625" y="360" on="1"/>
        <pt x="171" y="360" on="1"/>
      </contour>
      <contour>
        <pt x="245" y="600" on="0"/>
        <pt x="171" y="526" on="1"/>
        <pt x="171" y="395" on="1"/>
        <pt x="505" y="395" on="1"/>
        <pt x="505" y="535" on="1"/>
        <pt x="471" y="567" on="0"/>
        <pt x="394" y="600" on="0"/>
        <pt x="345" y="600" on="1"/>
      </contour>
    </TTGlyph>
    <TTGlyph name="eth" xMin="35" yMin="-12" xMax="538" yMax="789">
      <contour>
        <pt x="165" y="-12" on="0"/>
        <pt x="35" y="116" on="0"/>
        <pt x="35" y="240" on="1"/>
        <pt x="35" y="321" on="0"/>
        <pt x="100" y="441" on="0"/>
        <pt x="215" y="505" on="0"/>
        <pt x="290" y="505" on="1"/>
        <pt x="329" y="505" on="0"/>
        <pt x="368" y="483" on="1"/>
        <pt x="341" y="555" on="0"/>
        <pt x="290" y="603" on="1"/>
        <pt x="173" y="536" on="1"/>
        <pt x="115" y="615" on="1"/>
        <pt x="203" y="665" on="1"/>
        <pt x="162" y="687" on="0"/>
        <pt x="118" y="702" on="1"/>
        <pt x="164" y="789" on="1"/>
        <pt x="242" y="770" on="0"/>
        <pt x="311" y="728" on="1"/>
        <pt x="416" y="789" on="1"/>
        <pt x="474" y="710" on="1"/>
        <pt x="393" y="664" on="1"/>
        <pt x="464" y="594" on="0"/>
        <pt x="538" y="396" on="0"/>
        <pt x="538" y="272" on="1"/>
        <pt x="538" y="187" on="0"/>
        <pt x="475" y="58" on="0"/>
        <pt x="358" y="-12" on="0"/>
        <pt x="280" y="-12" on="1"/>
      </contour>
      <contour>
        <pt x="338" y="103" on="0"/>
        <pt x="383" y="178" on="0"/>
        <pt x="383" y="250" on="1"/>
        <pt x="383" y="320" on="0"/>
        <pt x="342" y="390" on="0"/>
        <pt x="290" y="390" on="1"/>
        <pt x="237" y="390" on="0"/>
        <pt x="190" y="317" on="0"/>
        <pt x="190" y="245" on="1"/>
        <pt x="190" y="179" on="0"/>
        <pt x="235" y="103" on="0"/>
        <pt x="285" y="103" on="1"/>
      </contour>
    </TTGlyph>
    <TTGlyph name="exclam" xMin="85" yMin="-13" xMax="255" yMax="765">
      <contour>
        <pt x="229" y="261" on="1"/>
        <pt x="109" y="256" on="1"/>
        <pt x="91" y="765" on="1"/>
        <pt x="247" y="765" on="1"/>
      </contour>
      <contour>
        <pt x="85" y="119" on="0"/>
        <pt x="136" y="168" on="0"/>
        <pt x="171" y="168" on="1"/>
        <pt x="212" y="168" on="0"/>
        <pt x="255" y="121" on="0"/>
        <pt x="255" y="78" on="1"/>
        <pt x="255" y="36" on="0"/>
        <pt x="204" y="-13" on="0"/>
        <pt x="168" y="-13" on="1"/>
        <pt x="127" y="-13" on="0"/>
        <pt x="85" y="34" on="0"/>
        <pt x="85" y="78" on="1"/>
      </contour>
    </TTGlyph>
    <TTGlyph name="exclamdbl" xMin="85" yMin="-13" xMax="530" yMax="765">
      <component glyphName="exclam" x="0" y="0" flags="0x0"/>
      <component glyphName="exclam" x="275" y="0" flags="0x0"/>
    </TTGlyph>
    <TTGlyph name="exclamdown" xMin="82" yMin="-221" xMax="252" yMax="557">
      <contour>
        <pt x="252" y="425" on="0"/>
        <pt x="201" y="376" on="0"/>
        <pt x="166" y="376" on="1"/>
        <pt x="125" y="376" on="0"/>
        <pt x="82" y="423" on="0"/>
        <pt x="82" y="466" on="1"/>
        <pt x="82" y="508" on="0"/>
        <pt x="133" y="557" on="0"/>
        <pt x="169" y="557" on="1"/>
        <pt x="210" y="557" on="0"/>
        <pt x="252" y="510" on="0"/>
        <pt x="252" y="466" on="1"/>
      </contour>
      <contour>
        <pt x="110" y="283" on="1"/>
        <pt x="230" y="288" on="1"/>
        <pt x="249" y="-221" on="1"/>
        <pt x="92" y="-221" on="1"/>
      </contour>
    </TTGlyph>
    <TTGlyph name="f" xMin="40" yMin="0" xMax="522" yMax="787">
      <contour>
        <pt x="50" y="80" on="1"/>
        <pt x="130" y="105" on="1"/>
        <pt x="130" y="430" on="1"/>
        <pt x="40" y="430" on="1"/>
        <pt x="40" y="515" on="1"/>
        <pt x="130" y="530" on="1"/>
        <pt x="130" y="575" on="1"/>
        <pt x="130" y="673" on="0"/>
        <pt x="241" y="787" on="0"/>
        <pt x="345" y="787" on="1"/>
        <pt x="393" y="787" on="0"/>
        <pt x="472" y="771" on="0"/>
        <pt x="522" y="751" on="0"/>
        <pt x="522" y="750" on="1"/>
        <pt x="519" y="603" on="1"/>
        <pt x="429" y="603" on="1"/>
        <pt x="414" y="673" on="1"/>
        <pt x="410" y="674" on="0"/>
        <pt x="378" y="677" on="0"/>
        <pt x="357" y="677" on="1"/>
        <pt x="280" y="677" on="0"/>
        <pt x="280" y="592" on="1"/>
        <pt x="280" y="530" on="1"/>
        <pt x="410" y="530" on="1"/>
        <pt x="407" y="430" on="1"/>
        <pt x="280" y="430" on="1"/>
        <pt x="280" y="105" on="1"/>
        <pt x="380" y="80" on="1"/>
        <pt x="380" y="0" on="1"/>
        <pt x="50" y="0" on="1"/>
      </contour>
    </TTGlyph>
    <TTGlyph name="fi" xMin="40" yMin="0" xMax="725" yMax="787">
      <contour>
        <pt x="50" y="80" on="1"/>
        <pt x="130" y="105" on="1"/>
        <pt x="130" y="432" on="1"/>
        <pt x="40" y="432" on="1"/>
        <pt x="40" y="515" on="1"/>
        <pt x="130" y="532" on="1"/>
        <pt x="130" y="572" on="1"/>
        <pt x="130" y="678" on="0"/>
        <pt x="252" y="787" on="0"/>
        <pt x="392" y="787" on="1"/>
        <pt x="451" y="787" on="0"/>
        <pt x="559" y="771" on="0"/>
        <pt x="626" y="753" on="0"/>
        <pt x="635" y="750" on="1"/>
        <pt x="633" y="609" on="1"/>
        <pt x="523" y="609" on="1"/>
        <pt x="510" y="669" on="1"/>
        <pt x="500" y="670" on="0"/>
        <pt x="433" y="677" on="0"/>
        <pt x="402" y="677" on="1"/>
        <pt x="335" y="677" on="0"/>
        <pt x="280" y="632" on="0"/>
        <pt x="280" y="590" on="1"/>
        <pt x="280" y="532" on="1"/>
        <pt x="655" y="540" on="1"/>
        <pt x="655" y="105" on="1"/>
        <pt x="725" y="80" on="1"/>
        <pt x="725" y="0" on="1"/>
        <pt x="435" y="0" on="1"/>
        <pt x="435" y="80" on="1"/>
        <pt x="505" y="105" on="1"/>
        <pt x="505" y="432" on="1"/>
        <pt x="280" y="432" on="1"/>
        <pt x="280" y="105" on="1"/>
        <pt x="350" y="80" on="1"/>
        <pt x="350" y="0" on="1"/>
        <pt x="50" y="0" on="1"/>
      </contour>
    </TTGlyph>
    <TTGlyph name="five" xMin="17" yMin="-13" xMax="518" yMax="705">
      <contour>
        <pt x="184" y="-13" on="0"/>
        <pt x="68" y="16" on="0"/>
        <pt x="17" y="42" on="1"/>
        <pt x="60" y="152" on="1"/>
        <pt x="102" y="134" on="0"/>
        <pt x="195" y="111" on="0"/>
        <pt x="234" y="111" on="1"/>
        <pt x="288" y="111" on="0"/>
        <pt x="351" y="164" on="0"/>
        <pt x="351" y="210" on="1"/>
        <pt x="351" y="259" on="0"/>
        <pt x="270" y="317" on="0"/>
        <pt x="179" y="317" on="1"/>
        <pt x="57" y="317" on="1"/>
        <pt x="74" y="705" on="1"/>
        <pt x="484" y="705" on="1"/>
        <pt x="481" y="582" on="1"/>
        <pt x="216" y="582" on="1"/>
        <pt x="209" y="432" on="1"/>
        <pt x="267" y="430" on="1"/>
        <pt x="348" y="428" on="0"/>
        <pt x="461" y="372" on="0"/>
        <pt x="518" y="279" on="0"/>
        <pt x="518" y="220" on="1"/>
        <pt x="518" y="161" on="0"/>
        <pt x="451" y="54" on="0"/>
        <pt x="324" y="-13" on="0"/>
        <pt x="240" y="-13" on="1"/>
      </contour>
    </TTGlyph>
    <TTGlyph name="fiveeighths" xMin="37" yMin="-13" xMax="1034" yMax="705">
      <contour>
        <pt x="160" y="264" on="0"/>
        <pt x="86" y="279" on="0"/>
        <pt x="43" y="294" on="0"/>
        <pt x="37" y="297" on="1"/>
        <pt x="75" y="383" on="1"/>
        <pt x="79" y="381" on="0"/>
        <pt x="111" y="370" on="0"/>
        <pt x="159" y="359" on="0"/>
        <pt x="183" y="359" on="1"/>
        <pt x="214" y="359" on="0"/>
        <pt x="257" y="384" on="0"/>
        <pt x="257" y="404" on="1"/>
        <pt x="257" y="435" on="0"/>
        <pt x="206" y="454" on="0"/>
        <pt x="144" y="454" on="1"/>
        <pt x="64" y="454" on="1"/>
        <pt x="77" y="705" on="1"/>
        <pt x="364" y="705" on="1"/>
        <pt x="362" y="613" on="1"/>
        <pt x="192" y="613" on="1"/>
        <pt x="186" y="539" on="1"/>
        <pt x="285" y="539" on="0"/>
        <pt x="387" y="472" on="0"/>
        <pt x="387" y="410" on="1"/>
        <pt x="387" y="365" on="0"/>
        <pt x="336" y="299" on="0"/>
        <pt x="252" y="264" on="0"/>
        <pt x="202" y="264" on="1"/>
      </contour>
      <contour>
        <pt x="238" y="0" on="1"/>
        <pt x="646" y="705" on="1"/>
        <pt x="791" y="705" on="1"/>
        <pt x="383" y="0" on="1"/>
      </contour>
      <contour>
        <pt x="783" y="-13" on="0"/>
        <pt x="697" y="19" on="0"/>
        <pt x="651" y="73" on="0"/>
        <pt x="651" y="107" on="1"/>
        <pt x="651" y="155" on="0"/>
        <pt x="705" y="199" on="0"/>
        <pt x="742" y="214" on="1"/>
        <pt x="714" y="228" on="0"/>
        <pt x="672" y="279" on="0"/>
        <pt x="672" y="314" on="1"/>
        <pt x="672" y="369" on="0"/>
        <pt x="770" y="431" on="0"/>
        <pt x="856" y="431" on="1"/>
        <pt x="935" y="431" on="0"/>
        <pt x="1020" y="367" on="0"/>
        <pt x="1020" y="317" on="1"/>
        <pt x="1020" y="272" on="0"/>
        <pt x="976" y="231" on="0"/>
        <pt x="945" y="221" on="1"/>
        <pt x="987" y="205" on="0"/>
        <pt x="1034" y="158" on="0"/>
        <pt x="1034" y="120" on="1"/>
        <pt x="1034" y="60" on="0"/>
        <pt x="928" y="-13" on="0"/>
        <pt x="840" y="-13" on="1"/>
      </contour>
      <contour>
        <pt x="875" y="256" on="0"/>
        <pt x="900" y="283" on="0"/>
        <pt x="900" y="301" on="1"/>
        <pt x="900" y="319" on="0"/>
        <pt x="869" y="341" on="0"/>
        <pt x="842" y="341" on="1"/>
        <pt x="817" y="341" on="0"/>
        <pt x="792" y="320" on="0"/>
        <pt x="792" y="301" on="1"/>
        <pt x="792" y="283" on="0"/>
        <pt x="827" y="260" on="0"/>
        <pt x="859" y="250" on="1"/>
      </contour>
      <contour>
        <pt x="872" y="77" on="0"/>
        <pt x="904" y="100" on="0"/>
        <pt x="904" y="123" on="1"/>
        <pt x="904" y="142" on="0"/>
        <pt x="865" y="167" on="0"/>
        <pt x="830" y="178" on="1"/>
        <pt x="809" y="170" on="0"/>
        <pt x="781" y="148" on="0"/>
        <pt x="781" y="127" on="1"/>
        <pt x="781" y="104" on="0"/>
        <pt x="820" y="77" on="0"/>
        <pt x="846" y="77" on="1"/>
      </contour>
    </TTGlyph>
    <TTGlyph name="fl" xMin="40" yMin="0" xMax="743" yMax="787">
      <contour>
        <pt x="50" y="80" on="1"/>
        <pt x="130" y="105" on="1"/>
        <pt x="130" y="430" on="1"/>
        <pt x="40" y="430" on="1"/>
        <pt x="40" y="515" on="1"/>
        <pt x="130" y="530" on="1"/>
        <pt x="130" y="577" on="1"/>
        <pt x="130" y="678" on="0"/>
        <pt x="254" y="787" on="0"/>
        <pt x="385" y="787" on="1"/>
        <pt x="446" y="787" on="0"/>
        <pt x="565" y="776" on="0"/>
        <pt x="643" y="764" on="0"/>
        <pt x="653" y="762" on="1"/>
        <pt x="653" y="105" on="1"/>
        <pt x="743" y="80" on="1"/>
        <pt x="743" y="0" on="1"/>
        <pt x="433" y="0" on="1"/>
        <pt x="433" y="80" on="1"/>
        <pt x="503" y="105" on="1"/>
        <pt x="503" y="668" on="1"/>
        <pt x="493" y="670" on="0"/>
        <pt x="428" y="677" on="0"/>
        <pt x="397" y="677" on="1"/>
        <pt x="338" y="677" on="0"/>
        <pt x="280" y="633" on="0"/>
        <pt x="280" y="595" on="1"/>
        <pt x="280" y="530" on="1"/>
        <pt x="410" y="530" on="1"/>
        <pt x="407" y="430" on="1"/>
        <pt x="280" y="430" on="1"/>
        <pt x="280" y="105" on="1"/>
        <pt x="350" y="80" on="1"/>
        <pt x="350" y="0" on="1"/>
        <pt x="50" y="0" on="1"/>
      </contour>
    </TTGlyph>
    <TTGlyph name="florin" xMin="-67" yMin="-200" xMax="440" yMax="780">
      <contour>
        <pt x="-9" y="-200" on="0"/>
        <pt x="-59" y="-195" on="0"/>
        <pt x="-67" y="-194" on="1"/>
        <pt x="-54" y="-90" on="1"/>
        <pt x="-12" y="-90" on="1"/>
        <pt x="35" y="-90" on="0"/>
        <pt x="71" y="-46" on="0"/>
        <pt x="76" y="6" on="1"/>
        <pt x="109" y="365" on="1"/>
        <pt x="27" y="365" on="1"/>
        <pt x="28" y="450" on="1"/>
        <pt x="118" y="465" on="1"/>
        <pt x="126" y="551" on="1"/>
        <pt x="136" y="664" on="0"/>
        <pt x="241" y="780" on="0"/>
        <pt x="346" y="780" on="1"/>
        <pt x="368" y="780" on="0"/>
        <pt x="430" y="775" on="0"/>
        <pt x="440" y="774" on="1"/>
        <pt x="430" y="670" on="1"/>
        <pt x="365" y="670" on="1"/>
        <pt x="318" y="670" on="0"/>
        <pt x="282" y="626" on="0"/>
        <pt x="277" y="574" on="1"/>
        <pt x="267" y="465" on="1"/>
        <pt x="398" y="465" on="1"/>
        <pt x="395" y="365" on="1"/>
        <pt x="259" y="365" on="1"/>
        <pt x="227" y="29" on="1"/>
        <pt x="216" y="-84" on="0"/>
        <pt x="112" y="-200" on="0"/>
        <pt x="7" y="-200" on="1"/>
      </contour>
    </TTGlyph>
    <TTGlyph name="foundryicon" xMin="0" yMin="0" xMax="676" yMax="676">
      <contour>
        <pt x="47" y="0" on="0"/>
        <pt x="0" y="47" on="0"/>
        <pt x="0" y="92" on="1"/>
        <pt x="0" y="583" on="1"/>
        <pt x="0" y="629" on="0"/>
        <pt x="47" y="676" on="0"/>
        <pt x="92" y="676" on="1"/>
        <pt x="583" y="676" on="1"/>
        <pt x="629" y="676" on="0"/>
        <pt x="676" y="629" on="0"/>
        <pt x="676" y="583" on="1"/>
        <pt x="676" y="92" on="1"/>
        <pt x="676" y="47" on="0"/>
        <pt x="629" y="0" on="0"/>
        <pt x="583" y="0" on="1"/>
        <pt x="92" y="0" on="1"/>
      </contour>
      <contour>
        <pt x="201" y="416" on="0"/>
        <pt x="199" y="416" on="1"/>
        <pt x="193" y="416" on="0"/>
        <pt x="193" y="425" on="1"/>
        <pt x="193" y="561" on="1"/>
        <pt x="107" y="561" on="1"/>
        <pt x="107" y="161" on="1"/>
        <pt x="193" y="161" on="1"/>
        <pt x="193" y="370" on="1"/>
        <pt x="193" y="378" on="0"/>
        <pt x="205" y="384" on="0"/>
        <pt x="220" y="384" on="1"/>
        <pt x="270" y="384" on="0"/>
        <pt x="270" y="319" on="1"/>
        <pt x="270" y="161" on="1"/>
        <pt x="356" y="161" on="1"/>
        <pt x="356" y="368" on="1"/>
        <pt x="356" y="405" on="0"/>
        <pt x="305" y="452" on="0"/>
        <pt x="266" y="452" on="1"/>
        <pt x="210" y="419" on="1"/>
      </contour>
      <contour>
        <pt x="419" y="403" on="1"/>
        <pt x="432" y="403" on="0"/>
        <pt x="432" y="392" on="1"/>
        <pt x="432" y="239" on="1"/>
        <pt x="432" y="203" on="0"/>
        <pt x="483" y="154" on="0"/>
        <pt x="522" y="154" on="1"/>
        <pt x="595" y="197" on="1"/>
        <pt x="595" y="226" on="1"/>
        <pt x="577" y="221" on="0"/>
        <pt x="564" y="221" on="1"/>
        <pt x="540" y="221" on="0"/>
        <pt x="518" y="253" on="0"/>
        <pt x="518" y="288" on="1"/>
        <pt x="518" y="392" on="1"/>
        <pt x="518" y="403" on="0"/>
        <pt x="529" y="403" on="1"/>
        <pt x="596" y="403" on="1"/>
        <pt x="596" y="445" on="1"/>
        <pt x="529" y="445" on="1"/>
        <pt x="518" y="445" on="0"/>
        <pt x="518" y="457" on="1"/>
        <pt x="518" y="489" on="1"/>
        <pt x="493" y="489" on="1"/>
        <pt x="390" y="424" on="1"/>
        <pt x="390" y="403" on="1"/>
      </contour>
    </TTGlyph>
    <TTGlyph name="four" xMin="15" yMin="0" xMax="595" yMax="720">
      <contour>
        <pt x="341" y="0" on="1"/>
        <pt x="341" y="142" on="1"/>
        <pt x="30" y="142" on="1"/>
        <pt x="15" y="260" on="1"/>
        <pt x="328" y="720" on="1"/>
        <pt x="495" y="705" on="1"/>
        <pt x="495" y="265" on="1"/>
        <pt x="595" y="265" on="1"/>
        <pt x="595" y="142" on="1"/>
        <pt x="495" y="142" on="1"/>
        <pt x="495" y="0" on="1"/>
      </contour>
      <contour>
        <pt x="165" y="265" on="1"/>
        <pt x="343" y="265" on="1"/>
        <pt x="343" y="529" on="1"/>
      </contour>
    </TTGlyph>
    <TTGlyph name="fraction" xMin="-15" yMin="-74" xMax="624" yMax="772">
      <contour>
        <pt x="85" y="-74" on="1"/>
        <pt x="-15" y="-7" on="1"/>
        <pt x="524" y="772" on="1"/>
        <pt x="624" y="705" on="1"/>
      </contour>
    </TTGlyph>
    <TTGlyph name="franc" xMin="45" yMin="0" xMax="555" yMax="705">
      <contour>
        <pt x="45" y="0" on="1"/>
        <pt x="45" y="85" on="1"/>
        <pt x="120" y="115" on="1"/>
        <pt x="120" y="164" on="1"/>
        <pt x="45" y="164" on="1"/>
        <pt x="45" y="259" on="1"/>
        <pt x="120" y="259" on="1"/>
        <pt x="120" y="585" on="1"/>
        <pt x="45" y="615" on="1"/>
        <pt x="45" y="700" on="1"/>
        <pt x="275" y="705" on="1"/>
        <pt x="555" y="705" on="1"/>
        <pt x="555" y="515" on="1"/>
        <pt x="462" y="515" on="1"/>
        <pt x="437" y="585" on="1"/>
        <pt x="275" y="585" on="1"/>
        <pt x="275" y="420" on="1"/>
        <pt x="477" y="420" on="1"/>
        <pt x="477" y="310" on="1"/>
        <pt x="275" y="310" on="1"/>
        <pt x="275" y="259" on="1"/>
        <pt x="403" y="259" on="1"/>
        <pt x="403" y="164" on="1"/>
        <pt x="275" y="164" on="1"/>
        <pt x="275" y="115" on="1"/>
        <pt x="367" y="85" on="1"/>
        <pt x="367" y="0" on="1"/>
      </contour>
    </TTGlyph>
    <TTGlyph name="g" xMin="40" yMin="-255" xMax="590" yMax="550">
      <contour>
        <pt x="172" y="-255" on="0"/>
        <pt x="40" y="-189" on="0"/>
        <pt x="40" y="-110" on="1"/>
        <pt x="40" y="-72" on="0"/>
        <pt x="87" y="-18" on="0"/>
        <pt x="145" y="12" on="0"/>
        <pt x="145" y="10" on="1"/>
        <pt x="145" y="8" on="0"/>
        <pt x="112" y="21" on="0"/>
        <pt x="85" y="51" on="0"/>
        <pt x="85" y="76" on="1"/>
        <pt x="85" y="107" on="0"/>
        <pt x="137" y="189" on="1"/>
        <pt x="108" y="208" on="0"/>
        <pt x="60" y="282" on="0"/>
        <pt x="60" y="345" on="1"/>
        <pt x="60" y="444" on="0"/>
        <pt x="193" y="550" on="0"/>
        <pt x="300" y="550" on="1"/>
        <pt x="367" y="550" on="0"/>
        <pt x="418" y="526" on="1"/>
        <pt x="590" y="530" on="1"/>
        <pt x="590" y="450" on="1"/>
        <pt x="508" y="436" on="1"/>
        <pt x="509" y="432" on="0"/>
        <pt x="525" y="390" on="0"/>
        <pt x="525" y="357" on="1"/>
        <pt x="525" y="253" on="0"/>
        <pt x="395" y="152" on="0"/>
        <pt x="285" y="152" on="1"/>
        <pt x="266" y="152" on="0"/>
        <pt x="237" y="157" on="0"/>
        <pt x="234" y="157" on="1"/>
        <pt x="230" y="90" on="1"/>
        <pt x="378" y="90" on="1"/>
        <pt x="474" y="90" on="0"/>
        <pt x="578" y="10" on="0"/>
        <pt x="578" y="-65" on="1"/>
        <pt x="578" y="-151" on="0"/>
        <pt x="437" y="-255" on="0"/>
        <pt x="298" y="-255" on="1"/>
      </contour>
      <contour>
        <pt x="336" y="252" on="0"/>
        <pt x="375" y="300" on="0"/>
        <pt x="375" y="352" on="1"/>
        <pt x="375" y="400" on="0"/>
        <pt x="336" y="447" on="0"/>
        <pt x="295" y="447" on="1"/>
        <pt x="251" y="447" on="0"/>
        <pt x="210" y="400" on="0"/>
        <pt x="210" y="352" on="1"/>
        <pt x="210" y="305" on="0"/>
        <pt x="249" y="252" on="0"/>
        <pt x="290" y="252" on="1"/>
      </contour>
      <contour>
        <pt x="378" y="-145" on="0"/>
        <pt x="438" y="-113" on="0"/>
        <pt x="438" y="-77" on="1"/>
        <pt x="438" y="-45" on="0"/>
        <pt x="391" y="-20" on="0"/>
        <pt x="338" y="-20" on="1"/>
        <pt x="233" y="-20" on="1"/>
        <pt x="229" y="-22" on="0"/>
        <pt x="206" y="-37" on="0"/>
        <pt x="185" y="-66" on="0"/>
        <pt x="185" y="-85" on="1"/>
        <pt x="185" y="-121" on="0"/>
        <pt x="244" y="-145" on="0"/>
        <pt x="310" y="-145" on="1"/>
      </contour>
    </TTGlyph>
    <TTGlyph name="gbreve" xMin="40" yMin="-255" xMax="590" yMax="790">
      <component glyphName="g" x="0" y="0" flags="0x0"/>
      <component glyphName="breve" x="85" y="16" flags="0x4"/>
    </TTGlyph>
    <TTGlyph name="gcircumflex" xMin="40" yMin="-255" xMax="590" yMax="825">
      <component glyphName="g" x="0" y="0" flags="0x0"/>
      <component glyphName="circumflex.x" x="23" y="-15" flags="0x4"/>
    </TTGlyph>
    <TTGlyph name="gcommaaccent" xMin="40" yMin="-255" xMax="590" yMax="860">
      <component glyphName="g" x="0" y="0" flags="0x0"/>
      <component glyphName="uni0326" x="449" y="910" flags="0x4"/>
    </TTGlyph>
    <TTGlyph name="gdotaccent" xMin="40" yMin="-255" xMax="590" yMax="776">
      <component glyphName="g" x="0" y="0" flags="0x0"/>
      <component glyphName="dotaccent" x="148" y="-149" flags="0x4"/>
    </TTGlyph>
    <TTGlyph name="germandbls" xMin="35" yMin="-10" xMax="748" yMax="787">
      <contour>
        <pt x="493" y="-10" on="0"/>
        <pt x="417" y="0" on="0"/>
        <pt x="365" y="10" on="0"/>
        <pt x="358" y="12" on="1"/>
        <pt x="358" y="173" on="1"/>
        <pt x="448" y="173" on="1"/>
        <pt x="458" y="106" on="1"/>
        <pt x="458" y="105" on="0"/>
        <pt x="500" y="95" on="0"/>
        <pt x="524" y="95" on="1"/>
        <pt x="559" y="95" on="0"/>
        <pt x="596" y="124" on="0"/>
        <pt x="596" y="149" on="1"/>
        <pt x="596" y="173" on="0"/>
        <pt x="554" y="204" on="0"/>
        <pt x="510" y="223" on="1"/>
        <pt x="465" y="243" on="0"/>
        <pt x="407" y="279" on="0"/>
        <pt x="365" y="343" on="0"/>
        <pt x="365" y="391" on="1"/>
        <pt x="365" y="434" on="0"/>
        <pt x="399" y="485" on="0"/>
        <pt x="432" y="514" on="1"/>
        <pt x="458" y="538" on="0"/>
        <pt x="483" y="572" on="0"/>
        <pt x="483" y="597" on="1"/>
        <pt x="483" y="635" on="0"/>
        <pt x="421" y="677" on="0"/>
        <pt x="380" y="677" on="1"/>
        <pt x="334" y="677" on="0"/>
        <pt x="283" y="624" on="0"/>
        <pt x="283" y="577" on="1"/>
        <pt x="283" y="0" on="1"/>
        <pt x="53" y="0" on="1"/>
        <pt x="53" y="80" on="1"/>
        <pt x="133" y="105" on="1"/>
        <pt x="133" y="430" on="1"/>
        <pt x="35" y="430" on="1"/>
        <pt x="35" y="515" on="1"/>
        <pt x="133" y="530" on="1"/>
        <pt x="133" y="570" on="1"/>
        <pt x="133" y="635" on="0"/>
        <pt x="194" y="733" on="0"/>
        <pt x="306" y="787" on="0"/>
        <pt x="378" y="787" on="1"/>
        <pt x="498" y="787" on="0"/>
        <pt x="630" y="696" on="0"/>
        <pt x="630" y="618" on="1"/>
        <pt x="630" y="573" on="0"/>
        <pt x="595" y="516" on="0"/>
        <pt x="562" y="484" on="1"/>
        <pt x="539" y="462" on="0"/>
        <pt x="517" y="430" on="0"/>
        <pt x="517" y="410" on="1"/>
        <pt x="517" y="383" on="0"/>
        <pt x="560" y="351" on="0"/>
        <pt x="607" y="331" on="1"/>
        <pt x="651" y="312" on="0"/>
        <pt x="708" y="278" on="0"/>
        <pt x="748" y="217" on="0"/>
        <pt x="748" y="172" on="1"/>
        <pt x="748" y="118" on="0"/>
        <pt x="692" y="35" on="0"/>
        <pt x="593" y="-10" on="0"/>
        <pt x="529" y="-10" on="1"/>
      </contour>
    </TTGlyph>
    <TTGlyph name="grave" xMin="24" yMin="598" xMax="315" yMax="849">
      <contour>
        <pt x="24" y="745" on="1"/>
        <pt x="92" y="849" on="1"/>
        <pt x="315" y="671" on="1"/>
        <pt x="266" y="598" on="1"/>
      </contour>
    </TTGlyph>
    <TTGlyph name="grave.Cup" xMin="0" yMin="735" xMax="273" yMax="956">
      <contour>
        <pt x="0" y="847" on="1"/>
        <pt x="58" y="956" on="1"/>
        <pt x="273" y="815" on="1"/>
        <pt x="227" y="735" on="1"/>
      </contour>
    </TTGlyph>
    <TTGlyph name="grave.x" xMin="24" yMin="598" xMax="315" yMax="849">
      <contour>
        <pt x="24" y="745" on="1"/>
        <pt x="92" y="849" on="1"/>
        <pt x="315" y="671" on="1"/>
        <pt x="266" y="598" on="1"/>
      </contour>
    </TTGlyph>
    <TTGlyph name="greater" xMin="40" yMin="-10" xMax="557" yMax="547">
      <contour>
        <pt x="395" y="267" on="1"/>
        <pt x="40" y="417" on="1"/>
        <pt x="40" y="547" on="1"/>
        <pt x="557" y="328" on="1"/>
        <pt x="557" y="208" on="1"/>
        <pt x="40" y="-10" on="1"/>
        <pt x="40" y="122" on="1"/>
      </contour>
    </TTGlyph>
    <TTGlyph name="greaterequal" xMin="45" yMin="-25" xMax="537" yMax="590">
      <contour>
        <pt x="390" y="364" on="1"/>
        <pt x="45" y="467" on="1"/>
        <pt x="45" y="590" on="1"/>
        <pt x="537" y="425" on="1"/>
        <pt x="537" y="305" on="1"/>
        <pt x="45" y="135" on="1"/>
        <pt x="45" y="257" on="1"/>
      </contour>
      <contour>
        <pt x="537" y="-25" on="1"/>
        <pt x="45" y="-25" on="1"/>
        <pt x="45" y="94" on="1"/>
        <pt x="537" y="94" on="1"/>
      </contour>
    </TTGlyph>
    <TTGlyph name="guillemotleft" xMin="55" yMin="49" xMax="544" yMax="480">
      <contour>
        <pt x="207" y="49" on="1"/>
        <pt x="55" y="226" on="1"/>
        <pt x="55" y="303" on="1"/>
        <pt x="207" y="480" on="1"/>
        <pt x="290" y="425" on="1"/>
        <pt x="181" y="265" on="1"/>
        <pt x="290" y="105" on="1"/>
      </contour>
      <contour>
        <pt x="461" y="49" on="1"/>
        <pt x="305" y="226" on="1"/>
        <pt x="305" y="303" on="1"/>
        <pt x="461" y="480" on="1"/>
        <pt x="544" y="425" on="1"/>
        <pt x="431" y="265" on="1"/>
        <pt x="544" y="105" on="1"/>
      </contour>
    </TTGlyph>
    <TTGlyph name="guillemotright" xMin="55" yMin="49" xMax="544" yMax="480">
      <contour>
        <pt x="168" y="265" on="1"/>
        <pt x="55" y="425" on="1"/>
        <pt x="138" y="480" on="1"/>
        <pt x="294" y="303" on="1"/>
        <pt x="294" y="226" on="1"/>
        <pt x="138" y="49" on="1"/>
        <pt x="55" y="105" on="1"/>
      </contour>
      <contour>
        <pt x="418" y="265" on="1"/>
        <pt x="309" y="425" on="1"/>
        <pt x="392" y="480" on="1"/>
        <pt x="544" y="303" on="1"/>
        <pt x="544" y="226" on="1"/>
        <pt x="392" y="49" on="1"/>
        <pt x="309" y="105" on="1"/>
      </contour>
    </TTGlyph>
    <TTGlyph name="guilsinglleft" xMin="50" yMin="49" xMax="289" yMax="480">
      <contour>
        <pt x="289" y="105" on="1"/>
        <pt x="206" y="49" on="1"/>
        <pt x="50" y="226" on="1"/>
        <pt x="50" y="303" on="1"/>
        <pt x="206" y="480" on="1"/>
        <pt x="289" y="425" on="1"/>
        <pt x="176" y="265" on="1"/>
      </contour>
    </TTGlyph>
    <TTGlyph name="guilsinglright" xMin="55" yMin="49" xMax="294" yMax="480">
      <contour>
        <pt x="168" y="265" on="1"/>
        <pt x="55" y="425" on="1"/>
        <pt x="138" y="480" on="1"/>
        <pt x="294" y="303" on="1"/>
        <pt x="294" y="226" on="1"/>
        <pt x="138" y="49" on="1"/>
        <pt x="55" y="105" on="1"/>
      </contour>
    </TTGlyph>
    <TTGlyph name="h" xMin="25" yMin="0" xMax="650" yMax="775">
      <contour>
        <pt x="25" y="80" on="1"/>
        <pt x="105" y="105" on="1"/>
        <pt x="105" y="667" on="1"/>
        <pt x="25" y="687" on="1"/>
        <pt x="25" y="767" on="1"/>
        <pt x="255" y="775" on="1"/>
        <pt x="255" y="482" on="1"/>
        <pt x="286" y="508" on="0"/>
        <pt x="374" y="550" on="0"/>
        <pt x="423" y="550" on="1"/>
        <pt x="499" y="550" on="0"/>
        <pt x="580" y="455" on="0"/>
        <pt x="580" y="370" on="1"/>
        <pt x="580" y="105" on="1"/>
        <pt x="650" y="80" on="1"/>
        <pt x="650" y="0" on="1"/>
        <pt x="378" y="0" on="1"/>
        <pt x="378" y="80" on="1"/>
        <pt x="430" y="104" on="1"/>
        <pt x="430" y="346" on="1"/>
        <pt x="430" y="388" on="0"/>
        <pt x="394" y="426" on="0"/>
        <pt x="365" y="426" on="1"/>
        <pt x="338" y="426" on="0"/>
        <pt x="277" y="396" on="0"/>
        <pt x="255" y="373" on="1"/>
        <pt x="255" y="105" on="1"/>
        <pt x="308" y="80" on="1"/>
        <pt x="308" y="0" on="1"/>
        <pt x="25" y="0" on="1"/>
      </contour>
    </TTGlyph>
    <TTGlyph name="hbar" xMin="25" yMin="0" xMax="650" yMax="775">
      <contour>
        <pt x="650" y="80" on="1"/>
        <pt x="650" y="0" on="1"/>
        <pt x="378" y="0" on="1"/>
        <pt x="378" y="80" on="1"/>
        <pt x="430" y="104" on="1"/>
        <pt x="430" y="346" on="1"/>
        <pt x="430" y="388" on="0"/>
        <pt x="394" y="426" on="0"/>
        <pt x="365" y="426" on="1"/>
        <pt x="338" y="426" on="0"/>
        <pt x="277" y="396" on="0"/>
        <pt x="255" y="373" on="1"/>
        <pt x="255" y="105" on="1"/>
        <pt x="308" y="80" on="1"/>
        <pt x="308" y="0" on="1"/>
        <pt x="25" y="0" on="1"/>
        <pt x="25" y="80" on="1"/>
        <pt x="105" y="105" on="1"/>
        <pt x="105" y="560" on="1"/>
        <pt x="25" y="560" on="1"/>
        <pt x="25" y="640" on="1"/>
        <pt x="105" y="640" on="1"/>
        <pt x="105" y="667" on="1"/>
        <pt x="25" y="687" on="1"/>
        <pt x="25" y="767" on="1"/>
        <pt x="255" y="775" on="1"/>
        <pt x="255" y="640" on="1"/>
        <pt x="327" y="640" on="1"/>
        <pt x="327" y="560" on="1"/>
        <pt x="255" y="560" on="1"/>
        <pt x="255" y="482" on="1"/>
        <pt x="286" y="508" on="0"/>
        <pt x="374" y="550" on="0"/>
        <pt x="423" y="550" on="1"/>
        <pt x="499" y="550" on="0"/>
        <pt x="580" y="455" on="0"/>
        <pt x="580" y="370" on="1"/>
        <pt x="580" y="105" on="1"/>
      </contour>
    </TTGlyph>
</ttFont>
